SplineFontDB: 3.0
FontName: boon-700
FullName: Boon Bold
FamilyName: Boon
Weight: Bold
Copyright: Copyright (C) 2013 Sungsit Sawaiwan <http://sungsit.com/> \n\nThis font is free software: you can redistribute it and/or modify it under the terms of the GNU General Public License as published by the Free Software Foundation, either version 3 of the License, or (at your option) any later version. \n\nThis font is distributed in the hope that it will be useful, but WITHOUT ANY WARRANTY; without even the implied warranty of MERCHANTABILITY or FITNESS FOR A PARTICULAR PURPOSE. See the GNU General Public License for more details. \n\nYou should have received a copy of the GNU General Public License along with this program. If not, see <http://www.gnu.org/licenses/>. \n\nAs a special exception, if you create a document which uses this font, and embed this font or unaltered portions of this font into the document, this font does not by itself cause the resulting document to be covered by the GNU General Public License. This exception does not however invalidate any other reasons why the document might be covered by the GNU General Public License. If you modify this font, you may extend this exception to your version of the font, but you are not obligated to do so. If you do not wish to do so, delete this exception statement from your version.
UComments: "Created with FontForge 2.0 <http://fontforge.org/>" 
Version: 0.5
ItalicAngle: 0
UnderlinePosition: -60
UnderlineWidth: 20
Ascent: 840
Descent: 360
woffMajor: 0
woffMinor: 5
LayerCount: 2
Layer: 0 0 "Back"  1
Layer: 1 0 "Fore"  0
FSType: 8
OS2Version: 0
OS2_WeightWidthSlopeOnly: 0
OS2_UseTypoMetrics: 1
CreationTime: 1369324892
ModificationTime: 1378931804
PfmFamily: 33
TTFWeight: 700
TTFWidth: 5
LineGap: 108
VLineGap: 0
OS2TypoAscent: 0
OS2TypoAOffset: 1
OS2TypoDescent: 0
OS2TypoDOffset: 1
OS2TypoLinegap: 108
OS2WinAscent: 0
OS2WinAOffset: 1
OS2WinDescent: 0
OS2WinDOffset: 1
HheadAscent: 0
HheadAOffset: 1
HheadDescent: 0

StartChar: uni0E04
Encoding: 164 3588 0
Width: 670
VWidth: 0
Flags: W
HStem: 0 21G<460 610> 220 45<291.555 367.842> 355 45<292.021 367.842> 500 120<242.353 417.647>
VStem: 50 150<295.408 458.511> 60 180<17.9453 137.15> 80 160<3.90926 252.113> 375 45<272.158 347.842> 460 150<0 458.014>
LayerCount: 2
Fore
SplineSet
330 355 m 4xf180
 305 355 285 335 285 310 c 4
 285 285 305 265 330 265 c 4
 355 265 375 285 375 310 c 4
 375 335 355 355 330 355 c 4xf180
330 400 m 4
 380 400 420 360 420 310 c 4
 420 260 380 220 330 220 c 4
 302 220 276 233 260 254 c 5
 244 214 240 157 240 100 c 4xf580
 240 51 240 -10 240 -10 c 5xf380
 240 -10 61 -6 60 30 c 5xf580
 60 30 80 79 80 140 c 4xf380
 80 242 50 255 50 390 c 4
 50 516 147 620 330 620 c 4
 513 620 610 516 610 390 c 6
 610 0 l 5
 460 0 l 5
 460 390 l 6
 460 463 399 500 330 500 c 4
 261 500 200 463 200 390 c 4xf980
 200 352 203 321 208 293 c 5
 229 353 268 400 330 400 c 4
EndSplineSet
EndChar

StartChar: uni0E05
Encoding: 165 3589 2
Width: 670
VWidth: 0
Flags: W
HStem: 0 21G<460 610> 220 45<291.555 367.842> 355 45<291.358 367.842> 600 20G<205.5 264.231 395.769 454.5>
VStem: 50 150<299.772 483.366> 60 180<17.9453 137.15> 80 160<3.90926 252.064> 375 45<272.158 347.842> 460 150<0 482.853>
LayerCount: 2
Fore
SplineSet
330 355 m 0xf180
 305 355 285 335 285 310 c 0
 285 285 305 265 330 265 c 0
 355 265 375 285 375 310 c 0
 375 335 355 355 330 355 c 0xf180
330 400 m 0
 380 400 420 360 420 310 c 0
 420 260 380 220 330 220 c 0
 302 220 276 233 260 254 c 1
 244 214 240 157 240 100 c 0xf580
 240 51 240 -10 240 -10 c 1xf380
 240 -10 61 -6 60 30 c 1xf580
 60 30 80 79 80 140 c 0xf380
 80 242 50 275 50 410 c 0
 50 554 176 620 235 620 c 1
 330 555 l 1
 425 620 l 1
 484 620 610 554 610 410 c 2
 610 0 l 1
 460 0 l 1
 460 410 l 2
 460 477 415 500 415 500 c 1
 330 445 l 1
 245 500 l 1
 245 500 200 477 200 410 c 0xf980
 200 368 204 331 210 298 c 1
 231 356 270 400 330 400 c 0
EndSplineSet
EndChar

StartChar: uni0E14
Encoding: 180 3604 3
Width: 670
VWidth: 0
Flags: W
HStem: 0 21G<460 610> 355 45<292.158 367.842> 500 120<242.353 417.647>
VStem: 50 150<196.42 458.511> 80 149<128.712 315.327> 240 45<271.641 347.842> 375 45<271.504 347.842> 460 150<0 458.014>
LayerCount: 2
Fore
SplineSet
330 355 m 0xe7
 305 355 285 335 285 310 c 0
 285 285 305 265 330 265 c 0
 355 265 375 285 375 310 c 0
 375 335 355 355 330 355 c 0xe7
330 400 m 0
 380 400 420 360 420 310 c 0
 420 169 250 74 250 -10 c 1
 250 -10 61 -6 60 30 c 1
 60 30 80 79 80 140 c 0xef
 80 242 50 255 50 390 c 0
 50 516 147 620 330 620 c 0
 513 620 610 516 610 390 c 2
 610 0 l 1
 460 0 l 1
 460 390 l 2
 460 463 399 500 330 500 c 0
 261 500 200 463 200 390 c 0xf7
 200 270 225 217 229 127 c 1xef
 260 156 295 184 319 221 c 1
 274 226 240 264 240 310 c 0
 240 360 280 400 330 400 c 0
EndSplineSet
EndChar

StartChar: uni0E15
Encoding: 181 3605 4
Width: 670
VWidth: 0
Flags: W
HStem: 0 21G<460 610> 355 45<292.158 367.842> 600 20G<205.5 264.231 395.769 454.5>
VStem: 50 150<200.228 483.366> 80 149<128.712 332.925> 240 45<271.641 347.842> 375 45<271.504 347.842> 460 150<0 482.853>
LayerCount: 2
Fore
SplineSet
330 355 m 4xe7
 305 355 285 335 285 310 c 4
 285 285 305 265 330 265 c 4
 355 265 375 285 375 310 c 4
 375 335 355 355 330 355 c 4xe7
330 400 m 4
 380 400 420 360 420 310 c 4
 420 169 250 74 250 -10 c 5
 250 -10 61 -6 60 30 c 5
 60 30 80 79 80 140 c 4xef
 80 242 50 275 50 410 c 4
 50 554 176 620 235 620 c 5
 330 555 l 5
 425 620 l 5
 484 620 610 554 610 410 c 6
 610 0 l 5
 460 0 l 5
 460 410 l 6
 460 477 415 500 415 500 c 5
 330 445 l 5
 245 500 l 5
 245 500 200 477 200 410 c 4xf7
 200 290 225 220 229 127 c 5xef
 261 156 295 184 319 221 c 5
 274 226 240 264 240 310 c 4
 240 360 280 400 330 400 c 4
EndSplineSet
EndChar

StartChar: uni0E01
Encoding: 161 3585 5
Width: 670
VWidth: 0
Flags: W
HStem: 0 21G<100 260 450 610> 390 20<296.974 320> 500 120<242.711 416.996>
VStem: 100 160<0 367.476> 450 160<0 465.354>
LayerCount: 2
Fore
SplineSet
260 0 m 1
 100 0 l 1
 100 280 l 6
 100 350 131 379 154 391 c 1
 50 420 l 1
 70 493 152 620 340 620 c 0
 491 620 610 536 610 400 c 2
 610 0 l 1
 450 0 l 1
 450 400 l 2
 450 473 395 500 340 500 c 0
 277 500 227 476 203 436 c 1
 320 410 l 1
 320 390 l 1
 320 390 260 387 260 280 c 2
 260 0 l 1
EndSplineSet
EndChar

StartChar: uni0E16
Encoding: 182 3606 6
Width: 670
VWidth: 0
Flags: W
HStem: -10 80<184.668 265.332> 0 21G<450 610> 390 20<296.974 320> 500 120<242.711 416.996>
VStem: 100 160<224.463 367.476> 100 80<74.9226 155.588> 270 80<74.6675 155.638> 450 160<0 465.354>
LayerCount: 2
Fore
SplineSet
225 160 m 4xb7
 200 160 180 140 180 115 c 4
 180 90 200 70 225 70 c 4
 250 70 270 90 270 115 c 4
 270 140 250 160 225 160 c 4xb7
100 115 m 6
 100 280 l 6
 100 350 131 379 154 391 c 5
 50 420 l 5
 70 493 152 620 340 620 c 4
 491 620 610 536 610 400 c 6
 610 0 l 5
 450 0 l 5
 450 400 l 6
 450 473 395 500 340 500 c 4
 277 500 227 476 203 436 c 5
 320 410 l 5
 320 390 l 5
 320 390 260 387 260 280 c 6
 260 235 l 5x7b
 312 220 350 172 350 115 c 4
 350 46 294 -10 225 -10 c 4
 156 -10 100 46 100 115 c 6
EndSplineSet
EndChar

StartChar: uni0E28
Encoding: 200 3624 7
Width: 690
VWidth: 0
Flags: W
HStem: 0 21G<460 610> 220 45<291.555 367.842> 355 45<292.021 367.842> 500 120<242.353 417.899>
VStem: 50 150<295.408 458.511> 60 180<17.9453 137.15> 80 160<3.90926 252.113> 375 45<272.158 347.842> 460 150<0 459.008> 510 140<585.242 680>
LayerCount: 2
Fore
SplineSet
330 400 m 0xf980
 380 400 420 360 420 310 c 0
 420 260 380 220 330 220 c 0
 302 220 276 233 260 254 c 1
 244 214 240 157 240 100 c 2xf5
 240 -10 l 1xf3
 240 -10 61 -6 60 30 c 1xf5
 60 30 80 79 80 140 c 0xf3
 80 242 50 255 50 390 c 0
 50 516 147 620 330 620 c 0
 395 620 450 607 493 584 c 1
 504 606 510 635 510 680 c 1
 650 680 l 1xf940
 650 596 617 540 579 505 c 1
 599 471 610 432 610 390 c 2
 610 0 l 1
 460 0 l 1
 460 390 l 2
 460 463 399 500 330 500 c 0
 261 500 200 463 200 390 c 0
 200 352 203 321 208 293 c 1
 229 353 268 400 330 400 c 0xf980
330 355 m 0
 305 355 285 335 285 310 c 0
 285 285 305 265 330 265 c 0
 355 265 375 285 375 310 c 0
 375 335 355 355 330 355 c 0
EndSplineSet
Substitution2: "Ascent Substitute" uni0E28.alt
EndChar

StartChar: uni0E20
Encoding: 192 3616 8
Width: 690
VWidth: 0
Flags: W
HStem: -10 80<124.668 205.332> 0 21G<470 630> 390 20<326.974 350> 500 120<262.711 436.996>
VStem: 40 80<74.6675 155.638> 130 160<224.463 368.096> 210 80<74.9226 155.588> 470 160<0 465.354>
LayerCount: 2
Fore
SplineSet
165 160 m 4xbb
 140 160 120 140 120 115 c 4
 120 90 140 70 165 70 c 4
 190 70 210 90 210 115 c 4
 210 140 190 160 165 160 c 4xbb
630 400 m 6
 630 0 l 5
 470 0 l 5
 470 400 l 6
 470 473 415 500 360 500 c 4
 297 500 247 476 223 437 c 5
 265 428 308 419 350 410 c 5
 350 390 l 5
 350 390 290 387 290 280 c 6x7d
 290 115 l 6x7b
 290 46 234 -10 165 -10 c 4
 96 -10 40 46 40 115 c 4
 40 172 78 220 130 235 c 5
 130 280 l 6xbd
 130 348 159 378 182 391 c 5
 70 420 l 5
 90 493 172 620 360 620 c 4
 511 620 630 536 630 400 c 6
EndSplineSet
EndChar

StartChar: uni0E48
Encoding: 232 3656 9
Width: 0
VWidth: 0
Flags: W
HStem: 990 250<-123.442 -100>
VStem: -220 120<1033 1240>
LayerCount: 2
Fore
SplineSet
-220 1240 m 1
 -100 1240 l 1
 -100 990 l 1
 -220 1033 l 1
 -220 1240 l 1
EndSplineSet
Position2: "Nikhahit & Tone High-Left" dx=-240 dy=0 dh=0 dv=0 [ddx={} ddy={} ddh={} ddv={}]
Position2: "Mai Han-Akat & Tone High-Left" dx=-300 dy=0 dh=0 dv=0 [ddx={} ddy={} ddh={} ddv={}]
Position2: "Tone High-Left" dx=-200 dy=0 dh=0 dv=0 [ddx={} ddy={} ddh={} ddv={}]
MultipleSubs2: "Tone High-Low" uni0E48.low
EndChar

StartChar: uni0E34
Encoding: 212 3636 10
Width: 0
VWidth: 0
Flags: W
HStem: 850 100<-424.702 -271.553>
AnchorPoint: "thai_above" -80 630 mark 0
LayerCount: 2
Fore
SplineSet
-590 760 m 1
 -590 807 -527 950 -370 950 c 0
 -181 950 -80 753 -80 670 c 1
 -270 748 -469 760 -590 760 c 1
-442 799 m 1
 -370 794 -287 781 -205 758 c 1
 -236 803 -283 850 -360 850 c 0
 -398 850 -429 830 -442 799 c 1
EndSplineSet
Substitution2: "Thai Tone & Vowel Above-Narrow" uni0E34.narrow
Position2: "Vowel Above-Left" dx=-140 dy=0 dh=0 dv=0 [ddx={} ddy={} ddh={} ddv={}]
EndChar

StartChar: uni0E38
Encoding: 216 3640 11
Width: 0
VWidth: 0
Flags: W
HStem: -360 155<-203.878 -136.122> -135 65<-202.931 -137.069>
VStem: -270 65<-203.379 -137.069> -210 140<-360 -245.472> -135 65<-203.878 -138.016>
LayerCount: 2
Fore
SplineSet
-170 -70 m 4xe0
 -115 -70 -70 -115 -70 -170 c 2xe8
 -70 -360 l 1
 -210 -360 l 1
 -210 -262 l 1xd0
 -245 -246 -270 -211 -270 -170 c 0
 -270 -115 -225 -70 -170 -70 c 4xe0
-170 -135 m 0
 -189 -135 -205 -151 -205 -170 c 0
 -205 -189 -189 -205 -170 -205 c 0
 -151 -205 -135 -189 -135 -170 c 0
 -135 -151 -151 -135 -170 -135 c 0
EndSplineSet
Validated: 1
Position2: "Vowel Below-Low" dx=0 dy=-200 dh=0 dv=0
EndChar

StartChar: uni0E35
Encoding: 213 3637 12
Width: 0
VWidth: 0
Flags: W
HStem: 850 100<-424.702 -270.204>
VStem: -200 120<840.406 940>
AnchorPoint: "thai_above" -80 630 mark 0
LayerCount: 2
Fore
SplineSet
-200 980 m 1
 -80 940 l 1
 -80 670 l 1
 -270 748 -469 760 -590 760 c 1
 -590 807 -527 950 -370 950 c 0
 -278 950 -219 897 -182 839 c 1
 -193 869 -200 899 -200 920 c 2
 -200 980 l 1
-442 799 m 1
 -370 794 -287 781 -205 758 c 1
 -236 803 -283 850 -360 850 c 0
 -398 850 -429 830 -442 799 c 1
EndSplineSet
Substitution2: "Thai Tone & Vowel Above-Narrow" uni0E35.narrow
Position2: "Vowel Above-Left" dx=-140 dy=0 dh=0 dv=0 [ddx={} ddy={} ddh={} ddv={}]
EndChar

StartChar: uni0E48.low
Encoding: 256 63237 13
Width: 0
VWidth: 0
Flags: W
HStem: 700 260<-225 -85>
VStem: -225 140<700 960>
AnchorPoint: "thai_above" -80 630 mark 0
LayerCount: 2
Fore
SplineSet
-225 960 m 1
 -85 960 l 1
 -85 700 l 1
 -225 700 l 1
 -225 960 l 1
EndSplineSet
Position2: "Tone Low-Left" dx=-220 dy=0 dh=0 dv=0 [ddx={} ddy={} ddh={} ddv={}]
Substitution2: "Tone Low-High" uni0E48
EndChar

StartChar: uni0E49.low
Encoding: 257 63238 14
Width: 0
VWidth: 0
Flags: W
HStem: 700 145<-398.878 -331.122> 700 90<-471.793 -400.14 -308 -208.799> 915 55<-398.5 -331.5>
VStem: -455 55<846.648 913.5> -330 55<846.698 913.5> -170 140<825.81 920>
AnchorPoint: "thai_above" -80 630 mark 0
LayerCount: 2
Fore
SplineSet
-365 915 m 0xbc
 -384 915 -400 899 -400 880 c 0
 -400 861 -384 845 -365 845 c 0
 -346 845 -330 861 -330 880 c 0
 -330 899 -346 915 -365 915 c 0xbc
-365 970 m 0
 -315 970 -275 930 -275 880 c 0
 -275 841 -293 809 -308 790 c 1
 -300 790 l 2
 -217 790 -170 816 -170 920 c 1
 -30 920 l 1
 -30 790 -102 700 -300 700 c 2
 -445 700 l 2
 -501 700 -510 790 -510 790 c 1
 -407 790 l 1x7c
 -405 792 -403 795 -400 797 c 1
 -433 811 -455 843 -455 880 c 0
 -455 930 -415 970 -365 970 c 0
EndSplineSet
Substitution2: "Thai Tone & Vowel Above-Narrow" uni0E49.narrow
Substitution2: "Thai Special Tone for Asc" uni0E49
Position2: "Tone Low-Left" dx=-220 dy=0 dh=0 dv=0 [ddx={} ddy={} ddh={} ddv={}]
Substitution2: "Tone Low-High" uni0E49
EndChar

StartChar: uni0E4A.low
Encoding: 258 63239 15
Width: 0
VWidth: 0
Flags: W
HStem: 695 55<-439.523 -380.493> 810 55<-423.783 -380.708> 890 70<-422.442 -351.166 -265 -244.41>
VStem: -510 70<751.432 852.835> -380 55<750.493 809.507> -240 80<794.308 888.966> -140 130<806.81 930>
AnchorPoint: "thai_above" -80 630 mark 0
LayerCount: 2
Fore
SplineSet
-410 810 m 0
 -427 810 -440 797 -440 780 c 0
 -440 763 -427 750 -410 750 c 0
 -393 750 -380 763 -380 780 c 0
 -380 797 -393 810 -410 810 c 0
-265 890 m 1
 -290 850 l 1
 -345 850 l 1
 -349 867 -368 890 -390 890 c 0
 -408 890 -419 879 -424 863 c 1
 -418 864 -411 865 -404 865 c 0
 -357 865 -325 827 -325 780 c 0
 -325 733 -363 695 -410 695 c 0
 -464 695 -510 748 -510 825 c 0
 -510 893 -459 960 -395 960 c 0
 -348 960 -324 934 -311 912 c 1
 -285 960 l 1
 -265 960 l 2
 -209 960 -160 899 -160 830 c 0
 -160 818 -162 806 -164 794 c 1
 -150 813 -140 852 -140 930 c 1
 -10 930 l 1
 -10 761 -111 700 -265 700 c 1
 -265 765 l 1
 -250 765 -240 795 -240 830 c 0
 -240 865 -251 890 -265 890 c 1
EndSplineSet
Substitution2: "Thai Tone & Vowel Above-Narrow" uni0E4A.narrow
Substitution2: "Thai Special Tone for Asc" uni0E4A
Position2: "Tone Low-Left" dx=-200 dy=0 dh=0 dv=0 [ddx={} ddy={} ddh={} ddv={}]
Substitution2: "Tone Low-High" uni0E4A
EndChar

StartChar: uni0E4B.low
Encoding: 259 63240 16
Width: 0
VWidth: 0
Flags: W
HStem: 790 80<-360 -260 -140 -40>
VStem: -260 120<700 790 870 960>
AnchorPoint: "thai_above" -80 630 mark 0
LayerCount: 2
Fore
SplineSet
-260 960 m 1
 -140 960 l 1
 -140 870 l 1
 -40 870 l 1
 -40 790 l 1
 -140 790 l 1
 -140 700 l 1
 -260 700 l 1
 -260 790 l 1
 -360 790 l 1
 -360 870 l 1
 -260 870 l 1
 -260 960 l 1
EndSplineSet
Position2: "Tone Low-Left" dx=-230 dy=0 dh=0 dv=0 [ddx={} ddy={} ddh={} ddv={}]
Substitution2: "Tone Low-High" uni0E4B
EndChar

StartChar: uni0E4C.low
Encoding: 260 63241 17
Width: 0
VWidth: 0
Flags: W
HStem: 690 50<-263.26 -196.74>
VStem: -320 55<741.979 807.251> -195 55<741.979 808.539>
AnchorPoint: "thai_above" -80 630 mark 0
LayerCount: 2
Fore
SplineSet
-195 975 m 1
 -50 975 l 1
 -50 909 -119 878 -164 841 c 1
 -149 825 -140 803 -140 780 c 0
 -140 730 -180 690 -230 690 c 0
 -280 690 -320 730 -320 780 c 0
 -320 877 -195 908 -195 975 c 1
-230 810 m 0
 -249 810 -265 794 -265 775 c 0
 -265 756 -249 740 -230 740 c 0
 -211 740 -195 756 -195 775 c 0
 -195 794 -211 810 -230 810 c 0
EndSplineSet
Position2: "Tone Low-Left" dx=-140 dy=0 dh=0 dv=0 [ddx={} ddy={} ddh={} ddv={}]
Substitution2: "Tone Low-High" uni0E4C
EndChar

StartChar: uni0E10.descless
Encoding: 261 63232 18
Width: 590
VWidth: 0
Flags: W
HStem: 100 65<124.488 205.608> 255 65<124.488 204.556> 370 74<187 291.697> 500 110<506.511 560> 520 100<224.156 414.46>
VStem: 55 65<169.488 250.512> 340 160<174 333.287>
LayerCount: 2
Fore
SplineSet
165 255 m 0xe6
 140 255 120 235 120 210 c 0
 120 185 140 165 165 165 c 0
 190 165 210 185 210 210 c 0
 210 235 190 255 165 255 c 0xe6
475 445 m 5
 424 496 384 520 310 520 c 0
 248 520 199 488 187 444 c 1
 371 440 500 413 500 305 c 2
 500 60 l 2
 500 15 404 -10 310 -10 c 1
 302 62 287 121 264 162 c 1
 246 125 209 100 165 100 c 0
 104 100 55 149 55 210 c 0
 55 271 104 320 165 320 c 0
 243 320 302 262 340 174 c 1
 340 305 l 2
 340 362 147 370 40 370 c 1
 40 546 185 620 305 620 c 0xee
 400 620 450 573 475 550 c 5
 495 577 529 610 560 610 c 5
 560 500 l 5xf6
 529 500 494 472 475 445 c 5
EndSplineSet
EndChar

StartChar: uni0E0D.descless
Encoding: 262 63247 19
Width: 930
VWidth: 0
Flags: W
HStem: -20 120<613.89 706.11> -10 80<184.668 265.332> 390 20<296.974 320> 500 120<242.711 416.996> 580 20G<710 870>
VStem: 100 160<224.463 367.476> 100 80<74.9226 155.588> 270 80<74.6675 155.638> 450 160<104.793 465.354> 710 160<104.793 600>
LayerCount: 2
Fore
SplineSet
100 115 m 2x73c0
 100 280 l 2
 100 350 131 379 154 391 c 1
 50 420 l 1
 70 493 152 620 340 620 c 0x75c0
 491 620 610 536 610 400 c 2
 610 130 l 2
 610 107 633 100 660 100 c 0
 687 100 710 107 710 130 c 2
 710 600 l 1
 870 600 l 1xadc0
 870 130 l 2
 870 92 855 -20 660 -20 c 0
 465 -20 450 92 450 130 c 2
 450 400 l 2
 450 473 395 500 340 500 c 0
 277 500 227 476 203 436 c 1
 320 410 l 1
 320 390 l 1
 320 390 260 387 260 280 c 2
 260 235 l 1xb5c0
 312 220 350 172 350 115 c 0
 350 46 294 -10 225 -10 c 0
 156 -10 100 46 100 115 c 2x73c0
225 160 m 0
 200 160 180 140 180 115 c 0x63c0
 180 90 200 70 225 70 c 0
 250 70 270 90 270 115 c 0
 270 140 250 160 225 160 c 0
EndSplineSet
EndChar

StartChar: uni0E36
Encoding: 214 3638 20
Width: 0
VWidth: 0
Flags: W
HStem: 850 100<-424.702 -270.012> 915 65<-203.475 -137.069>
VStem: -135 65<846.486 912.931>
AnchorPoint: "thai_above" -80 630 mark 0
LayerCount: 2
Fore
SplineSet
-170 980 m 0x60
 -115 980 -70 935 -70 880 c 0
 -70 843 -90 810 -121 793 c 1
 -94 747 -80 701 -80 670 c 1
 -270 748 -469 760 -590 760 c 1
 -590 807 -527 950 -370 950 c 0xa0
 -329 950 -292 941 -259 925 c 1
 -243 958 -209 980 -170 980 c 0x60
-170 915 m 0x60
 -189 915 -205 899 -205 880 c 0
 -205 861 -189 845 -170 845 c 0
 -151 845 -135 861 -135 880 c 0
 -135 899 -151 915 -170 915 c 0x60
-360 850 m 0xa0
 -398 850 -429 830 -442 799 c 1
 -370 794 -287 781 -205 758 c 1
 -236 803 -283 850 -360 850 c 0xa0
EndSplineSet
Substitution2: "Thai Tone & Vowel Above-Narrow" uni0E36.narrow
Position2: "Vowel Above-Left" dx=-140 dy=0 dh=0 dv=0 [ddx={} ddy={} ddh={} ddv={}]
EndChar

StartChar: uni0E37
Encoding: 215 3639 21
Width: 0
VWidth: 0
Flags: W
HStem: 840 100<-424.702 -351.575>
VStem: -190 110<828.89 930>
AnchorPoint: "thai_above" -80 630 mark 0
LayerCount: 2
Fore
SplineSet
-190 970 m 1
 -80 930 l 1
 -80 660 l 1
 -270 738 -469 750 -590 750 c 1
 -590 797 -527 940 -370 940 c 0
 -363 940 -356 940 -350 939 c 1
 -350 1010 l 1
 -240 970 l 1
 -240 895 l 1
 -216 876 -197 852 -181 828 c 1
 -187 847 -190 865 -190 880 c 2
 -190 970 l 1
-442 789 m 1
 -370 784 -287 771 -205 748 c 1
 -236 793 -283 840 -360 840 c 0
 -398 840 -429 820 -442 789 c 1
EndSplineSet
Substitution2: "Thai Tone & Vowel Above-Narrow" uni0E37.narrow
Position2: "Vowel Above-Left" dx=-140 dy=0 dh=0 dv=0 [ddx={} ddy={} ddh={} ddv={}]
EndChar

StartChar: uni0E2D
Encoding: 205 3629 22
Width: 650
VWidth: 0
Flags: W
HStem: -20 110<227.898 405.47> 305 75<140.515 219.485> 500 120<226.856 403.144>
VStem: 60 75<219.412 298.381> 225 75<220.097 299.484> 430 160<117.412 471.499>
LayerCount: 2
Fore
SplineSet
180 305 m 0
 155 305 135 285 135 260 c 0
 135 235 155 215 180 215 c 0
 205 215 225 235 225 260 c 0
 225 285 205 305 180 305 c 0
180 380 m 0
 246 380 300 326 300 260 c 0
 300 205 263 159 213 144 c 1
 224 96 270 90 325 90 c 0
 388 90 430 119 430 170 c 2
 430 420 l 2
 430 471 379 500 315 500 c 0
 251 500 200 471 200 420 c 5
 40 420 l 5
 40 535 148 620 315 620 c 0
 482 620 590 535 590 420 c 2
 590 170 l 2
 590 34 470 -20 325 -20 c 0
 180 -20 60 34 60 170 c 2
 60 260 l 2
 60 326 114 380 180 380 c 0
EndSplineSet
EndChar

StartChar: uni0E4D
Encoding: 237 3661 23
Width: 0
VWidth: 0
Flags: W
HStem: 690 70<-238.931 -161.069> 900 70<-238.931 -161.069>
VStem: -350 100<768.144 891.856> -150 100<768.144 891.856>
AnchorPoint: "thai_above" -80 630 mark 0
LayerCount: 2
Fore
SplineSet
-200 970 m 0
 -117 970 -50 907 -50 830 c 0
 -50 753 -117 690 -200 690 c 0
 -283 690 -350 753 -350 830 c 0
 -350 907 -283 970 -200 970 c 0
-200 900 m 0
 -233 900 -250 869 -250 830 c 0
 -250 791 -233 760 -200 760 c 0
 -167 760 -150 791 -150 830 c 0
 -150 869 -167 900 -200 900 c 0
EndSplineSet
Position2: "Vowel Above-Left" dx=-220 dy=0 dh=0 dv=0 [ddx={} ddy={} ddh={} ddv={}]
EndChar

StartChar: uni0E32
Encoding: 210 3634 25
Width: 550
VWidth: 0
Flags: W
HStem: 0 21G<330 490> 500 120<198.913 311.087>
VStem: 20 160<400 482.11> 330 160<0 482.11>
LayerCount: 2
Fore
SplineSet
490 400 m 6
 490 0 l 5
 330 0 l 5
 330 400 l 6
 330 466 307 500 255 500 c 4
 203 500 180 466 180 400 c 5
 20 400 l 5
 20 525 98 620 255 620 c 4
 412 620 490 525 490 400 c 6
EndSplineSet
Substitution2: "Sara AA Substitute" uni0E45
EndChar

StartChar: uni0E25
Encoding: 197 3621 26
Width: 650
VWidth: 0
Flags: W
HStem: -20 75<159.774 239.485> 145 75<167.444 239.485> 275 100<195.553 367.362> 500 120<226.856 403.144>
VStem: 40 115<62.2965 207.379> 245 75<60.5155 139.485> 420 170<17.9453 228.612> 430 160<295 471.499>
LayerCount: 2
Fore
SplineSet
200 145 m 4xfc
 175 145 155 125 155 100 c 4
 155 75 175 55 200 55 c 4
 225 55 245 75 245 100 c 4
 245 125 225 145 200 145 c 4xfc
200 220 m 4
 266 220 320 166 320 100 c 4
 320 34 266 -20 200 -20 c 4
 112 -20 40 49 40 180 c 4
 40 279 117 375 260 375 c 4
 339 375 395 342 430 295 c 5
 430 420 l 6
 430 471 379 500 315 500 c 4
 251 500 200 471 200 420 c 5
 40 420 l 5
 40 535 148 620 315 620 c 4
 482 620 590 535 590 420 c 6xfd
 590 30 l 6
 590 -6 420 -10 420 -10 c 5
 420 170 l 6xfe
 420 223 361 275 280 275 c 4
 219 275 182 249 167 215 c 5
 178 218 189 220 200 220 c 4
EndSplineSet
EndChar

StartChar: uni0E40
Encoding: 224 3648 27
Width: 340
VWidth: 0
Flags: W
HStem: -10 80<154.668 235.332> 580 20G<70 230>
VStem: 70 160<224.463 600> 70 80<74.9226 155.588> 240 80<74.6675 155.638>
LayerCount: 2
Fore
SplineSet
195 160 m 4xd8
 170 160 150 140 150 115 c 4
 150 90 170 70 195 70 c 4
 220 70 240 90 240 115 c 4
 240 140 220 160 195 160 c 4xd8
70 115 m 6
 70 600 l 5
 230 600 l 5
 230 235 l 5xe8
 282 220 320 172 320 115 c 4
 320 46 264 -10 195 -10 c 4
 126 -10 70 46 70 115 c 6
EndSplineSet
EndChar

StartChar: uni0E2A
Encoding: 202 3626 29
Width: 670
VWidth: 0
Flags: W
HStem: -20 75<159.774 239.485> 145 75<167.444 239.485> 275 100<195.553 367.362> 500 120<226.856 402.823>
VStem: 40 115<62.2965 207.379> 245 75<60.5155 139.485> 420 170<17.9453 228.612> 430 160<295 473.255> 490 140<589.26 680>
LayerCount: 2
Fore
SplineSet
200 220 m 0xfe
 266 220 320 166 320 100 c 0
 320 34 266 -20 200 -20 c 0
 112 -20 40 49 40 180 c 0
 40 279 117 375 260 375 c 0
 339 375 395 342 430 295 c 1
 430 420 l 2xfd
 430 471 379 500 315 500 c 0
 251 500 200 471 200 420 c 1
 40 420 l 1
 40 535 148 620 315 620 c 0
 377 620 431 608 475 587 c 1
 484 609 490 638 490 680 c 1
 630 680 l 1xfc80
 630 600 600 546 564 510 c 1
 581 484 590 453 590 420 c 2xfd
 590 30 l 2
 590 -6 420 -10 420 -10 c 1
 420 170 l 2
 420 223 361 275 280 275 c 0
 219 275 182 249 167 215 c 1
 178 218 189 220 200 220 c 0xfe
200 145 m 0
 175 145 155 125 155 100 c 0
 155 75 175 55 200 55 c 0
 225 55 245 75 245 100 c 0
 245 125 225 145 200 145 c 0
EndSplineSet
Substitution2: "Ascent Substitute" uni0E2A.alt
EndChar

StartChar: uni0E2E
Encoding: 206 3630 30
Width: 670
VWidth: 0
Flags: W
HStem: -20 110<227.898 405.47> 305 75<140.515 219.485> 500 120<226.856 402.823>
VStem: 60 75<219.412 298.381> 225 75<220.097 299.484> 430 160<117.412 473.255> 490 140<589.26 680>
LayerCount: 2
Fore
SplineSet
180 380 m 0xfc
 246 380 300 326 300 260 c 0
 300 205 263 159 213 144 c 1
 224 96 270 90 325 90 c 0
 388 90 430 119 430 170 c 2
 430 420 l 2xfc
 430 471 379 500 315 500 c 0
 251 500 200 471 200 420 c 1
 40 420 l 1
 40 535 148 620 315 620 c 0
 377 620 431 608 475 587 c 1
 484 609 490 638 490 680 c 1
 630 680 l 1xfa
 630 600 600 546 564 510 c 1
 581 484 590 453 590 420 c 2
 590 170 l 2
 590 34 470 -20 325 -20 c 0
 180 -20 60 34 60 170 c 2
 60 260 l 2
 60 326 114 380 180 380 c 0xfc
180 305 m 0
 155 305 135 285 135 260 c 0
 135 235 155 215 180 215 c 0
 205 215 225 235 225 260 c 0
 225 285 205 305 180 305 c 0
EndSplineSet
Substitution2: "Ascent Substitute" uni0E2E.alt
EndChar

StartChar: uni0E1D
Encoding: 189 3613 31
Width: 740
VWidth: 0
Flags: W
HStem: 370 75<210 248.381> 535 75<169.983 249.485> 580 20<510 670> 600 240<510 670>
VStem: 50 115<449.412 528.645> 50 160<77.1171 370> 255 75<450.516 529.484> 510 160<77.1171 600 600 840>
LayerCount: 2
Fore
SplineSet
510 840 m 1x93
 670 840 l 1x93
 670 600 l 1
 510 600 l 1xa3
 510 840 l 1x93
EndSplineSet
Refer: 35 3612 N 1 0 0 1 0 0 2
EndChar

StartChar: uni0E1A
Encoding: 186 3610 32
Width: 720
VWidth: 0
Flags: W
HStem: -20 120<316.165 483.835> 530 80<127.092 212.908> 580 20G<500 660>
VStem: 40 80<436.174 522.908> 140 160<117.412 362.235> 220 80<435.957 521.773> 500 160<117.412 600>
LayerCount: 2
Fore
SplineSet
500 600 m 5xba
 660 600 l 5
 660 170 l 6
 660 34 558 -20 400 -20 c 4
 242 -20 140 34 140 170 c 6
 140 353 l 5xba
 83 367 40 419 40 480 c 4
 40 552 98 610 170 610 c 4
 242 610 300 552 300 480 c 6xd6
 300 170 l 6
 300 113 347 100 400 100 c 4
 453 100 500 113 500 170 c 6
 500 600 l 5xba
170 530 m 4xd6
 142 530 120 508 120 480 c 4
 120 452 142 430 170 430 c 4
 198 430 220 452 220 480 c 4
 220 508 198 530 170 530 c 4xd6
EndSplineSet
EndChar

StartChar: uni0E1B
Encoding: 187 3611 33
Width: 730
VWidth: 0
Flags: W
HStem: -20 120<316.165 483.835> 530 80<127.092 212.908> 580 20<500 660> 600 240<500 660>
VStem: 40 80<436.174 522.908> 140 160<117.412 362.235> 220 80<435.957 521.773> 500 160<117.412 600 600 840>
LayerCount: 2
Fore
SplineSet
500 840 m 1x99
 660 840 l 1x99
 660 600 l 1
 500 600 l 1xa9
 500 840 l 1x99
EndSplineSet
Refer: 32 3610 N 1 0 0 1 0 0 2
EndChar

StartChar: uni0E49
Encoding: 233 3657 34
Width: 0
VWidth: 0
Flags: W
HStem: 1020 125<-283.847 -226.234> 1020 75<-354.995 -284> 1205 55<-285.237 -226.431>
VStem: -340 54<1145.36 1204.51> -226 56<1145.65 1204.51> -100 130<1132.85 1230>
LayerCount: 2
Fore
SplineSet
-256 1205 m 4xbc
 -272 1205 -286 1192 -286 1175 c 4
 -286 1158 -272 1145 -256 1145 c 4
 -239 1145 -226 1158 -226 1175 c 4
 -226 1192 -239 1205 -256 1205 c 4xbc
-256 1260 m 4
 -209 1260 -170 1222 -170 1175 c 4
 -170 1135 -192 1109 -208 1096 c 5
 -133 1103 -100 1138 -100 1230 c 5
 30 1230 l 5
 30 1100 -38 1020 -240 1020 c 6xbc
 -330 1020 l 6
 -378 1020 -390 1095 -390 1095 c 5
 -284 1095 l 5x7c
 -317 1107 -340 1138 -340 1175 c 4
 -340 1222 -302 1260 -256 1260 c 4
EndSplineSet
Validated: 1
Substitution2: "Thai Tone & Vowel Above-Narrow" uni0E49.narrow
Position2: "Nikhahit & Tone High-Left" dx=-210 dy=0 dh=0 dv=0 [ddx={} ddy={} ddh={} ddv={}]
Position2: "Mai Han-Akat & Tone High-Left" dx=-260 dy=0 dh=0 dv=0 [ddx={} ddy={} ddh={} ddv={}]
Position2: "Tone High-Left" dx=-180 dy=0 dh=0 dv=0 [ddx={} ddy={} ddh={} ddv={}]
MultipleSubs2: "Tone High-Low" uni0E49.low
EndChar

StartChar: uni0E1C
Encoding: 188 3612 35
Width: 730
VWidth: 0
Flags: W
HStem: 370 75<210 248.381> 535 75<169.983 249.485> 580 20G<510 670>
VStem: 50 160<77.1171 370> 50 115<449.412 528.645> 255 75<450.516 529.484> 510 160<77.1171 600>
LayerCount: 2
Fore
SplineSet
210 535 m 0xd6
 185 535 165 515 165 490 c 0xce
 165 465 185 445 210 445 c 0
 235 445 255 465 255 490 c 0
 255 515 235 535 210 535 c 0xd6
210 610 m 0xd6
 276 610 330 556 330 490 c 0
 330 424 276 370 210 370 c 1
 210 85 l 2
 210 82 210 79 210 76 c 1
 310 330 l 1
 410 330 l 1
 510 76 l 1
 510 79 510 82 510 85 c 2
 510 600 l 1
 670 600 l 1
 670 110 l 2
 670 -1 547 -10 440 -10 c 1
 360 199 l 1
 280 -10 l 1
 173 -10 50 -1 50 110 c 2xb6
 50 440 l 2xae
 50 535 111 610 210 610 c 0xd6
EndSplineSet
EndChar

StartChar: uni0E1E
Encoding: 190 3614 36
Width: 760
VWidth: 0
Flags: W
HStem: 530 80<127.092 212.908> 580 20G<540 700>
VStem: 40 80<436.174 522.908> 140 160<158 362.235> 220 80<435.957 521.773> 540 160<158 600>
LayerCount: 2
Fore
SplineSet
540 600 m 5x74
 700 600 l 5
 700 80 l 6
 700 9 609 -10 500 -10 c 5
 420 338 l 5
 340 -10 l 5
 231 -10 140 9 140 80 c 6
 140 353 l 5x74
 83 367 40 419 40 480 c 4
 40 552 98 610 170 610 c 4
 242 610 300 552 300 480 c 6xac
 300 158 l 5
 385 490 l 5
 455 490 l 5
 540 158 l 5
 540 600 l 5x74
170 530 m 4xac
 142 530 120 508 120 480 c 4
 120 452 142 430 170 430 c 4
 198 430 220 452 220 480 c 4
 220 508 198 530 170 530 c 4xac
EndSplineSet
EndChar

StartChar: uni0E1F
Encoding: 191 3615 37
Width: 770
VWidth: 0
Flags: W
HStem: 530 80<127.092 212.908> 580 20<540 700> 600 240<540 700>
VStem: 40 80<436.174 522.908> 140 160<158 362.235> 220 80<435.957 521.773> 540 160<158 600 600 840>
LayerCount: 2
Fore
SplineSet
540 840 m 1x32
 700 840 l 1x32
 700 600 l 1
 540 600 l 1x52
 540 840 l 1x32
EndSplineSet
Refer: 36 3614 N 1 0 0 1 0 0 2
EndChar

StartChar: uni0E43
Encoding: 227 3651 39
Width: 400
VWidth: 0
Flags: W
HStem: -10 80<204.668 285.332> 750 60<62.9321 137.068> 940 80<154.511 258.283>
VStem: 0 60<812.932 886.539> 120 160<224.463 669.594> 120 80<74.9226 155.588> 140 60<812.932 887.033> 280 100<790.452 916.815> 290 80<74.6675 155.638>
LayerCount: 2
Fore
SplineSet
100 890 m 0xf2
 78 890 60 872 60 850 c 0
 60 828 78 810 100 810 c 0
 122 810 140 828 140 850 c 0
 140 872 122 890 100 890 c 0xf2
245 160 m 0
 220 160 200 140 200 115 c 0
 200 90 220 70 245 70 c 0
 270 70 290 90 290 115 c 0xf480
 290 140 270 160 245 160 c 0
280 600 m 2xf8
 280 235 l 1xf8
 332 220 370 172 370 115 c 0
 370 46 314 -10 245 -10 c 0
 176 -10 120 46 120 115 c 2xf480
 120 600 l 2xf8
 120 705 280 755 280 860 c 0
 280 898 252 940 190 940 c 0
 176 940 164 938 153 935 c 1
 181 917 200 886 200 850 c 0
 200 795 155 750 100 750 c 0
 45 750 0 795 0 850 c 0
 0 923 61 1020 190 1020 c 0
 314 1020 380 940 380 860 c 0xf3
 380 748 280 706 280 600 c 2xf8
EndSplineSet
EndChar

StartChar: uni0E44
Encoding: 228 3652 40
Width: 400
VWidth: 0
Flags: W
HStem: -10 80<204.668 285.332> 930 90<10 100.421>
VStem: 120 160<224.463 700.797> 120 80<74.9226 155.588> 290 80<74.6675 155.638>
LayerCount: 2
Fore
SplineSet
245 160 m 0xd8
 220 160 200 140 200 115 c 0
 200 90 220 70 245 70 c 0
 270 70 290 90 290 115 c 0
 290 140 270 160 245 160 c 0xd8
280 600 m 2xe8
 280 235 l 1xe8
 332 220 370 172 370 115 c 0
 370 46 314 -10 245 -10 c 0
 176 -10 120 46 120 115 c 2xd8
 120 600 l 2
 120 747 266 841 320 913 c 1
 180 855 l 1
 180 855 86 930 10 930 c 1
 10 1020 l 1
 109 1020 180 945 180 945 c 1
 360 1020 l 1
 376 1020 410 988 410 940 c 0
 410 830 280 768 280 600 c 2xe8
EndSplineSet
EndChar

StartChar: uni0E29
Encoding: 201 3625 41
Width: 770
VWidth: 0
Flags: W
HStem: -20 120<316.165 483.835> 185 70<439.114 500> 395 40<363.912 426.088> 530 80<127.092 212.908> 580 20G<500 660>
VStem: 40 80<436.174 522.908> 140 160<117.412 362.235> 220 80<435.957 521.773> 320 40<330.271 391.088> 430 40<328.72 391.088> 500 160<117.412 190.537 285 600> 705 85<304.53 380>
AnchorPoint: "thai_above" 660 630 basechar 0
LayerCount: 2
Fore
SplineSet
170 530 m 0xf5f0
 142 530 120 508 120 480 c 0
 120 452 142 430 170 430 c 0
 198 430 220 452 220 480 c 0
 220 508 198 530 170 530 c 0xf5f0
500 600 m 1xeef0
 660 600 l 1
 660 285 l 1
 685 305 703 336 705 380 c 1
 790 380 l 1
 789 307 737 237 660 202 c 1
 660 170 l 2
 660 34 558 -20 400 -20 c 0
 242 -20 140 34 140 170 c 2
 140 353 l 1xeef0
 83 367 40 419 40 480 c 0
 40 552 98 610 170 610 c 0
 242 610 300 552 300 480 c 2xf5f0
 300 170 l 2
 300 113 347 100 400 100 c 0
 453 100 500 113 500 170 c 2
 500 185 l 1
 413 201 320 256 320 360 c 0
 320 401 354 435 395 435 c 0
 436 435 470 401 470 360 c 0
 470 329 451 303 425 291 c 1
 444 271 472 260 500 255 c 1
 500 600 l 1xeef0
395 395 m 0
 376 395 360 379 360 360 c 0
 360 341 376 325 395 325 c 0
 414 325 430 341 430 360 c 0
 430 379 414 395 395 395 c 0
EndSplineSet
EndChar

StartChar: uni0E42
Encoding: 226 3650 42
Width: 400
VWidth: 0
Flags: W
HStem: -10 80<204.668 285.332> 930 90<118.271 271.846>
VStem: 120 160<224.463 759.617> 120 80<74.9226 155.588> 290 80<74.6675 155.638>
LayerCount: 2
Fore
SplineSet
245 160 m 0xd8
 220 160 200 140 200 115 c 0
 200 90 220 70 245 70 c 0
 270 70 290 90 290 115 c 0
 290 140 270 160 245 160 c 0xd8
280 600 m 2xe8
 280 235 l 1xe8
 332 220 370 172 370 115 c 0
 370 46 314 -10 245 -10 c 0
 176 -10 120 46 120 115 c 2xd8
 120 600 l 2
 120 778 100 840 -20 840 c 1
 -20 935 64 1020 180 1020 c 0
 250 1020 296 978 310 965 c 1
 327 984 361 1010 390 1020 c 1
 390 930 l 1
 354 920 326 895 310 875 c 1
 268 915 239 930 190 930 c 0
 151 930 116 911 104 885 c 1
 205 866 280 794 280 600 c 2xe8
EndSplineSet
EndChar

StartChar: uni0E21
Encoding: 193 3617 43
Width: 660
VWidth: 0
Flags: W
HStem: -20 85<144.49 236.5> 530 80<137.092 222.908> 580 20G<440 600>
VStem: 50 85<74.4899 165.684 433.857 525.452> 150 160<243.428 362.235> 230 80<435.957 521.773> 440 160<131 600>
LayerCount: 2
Fore
SplineSet
180 530 m 0xd6
 152 530 130 508 130 480 c 0
 130 452 152 430 180 430 c 0
 208 430 230 452 230 480 c 0
 230 508 208 530 180 530 c 0xd6
440 600 m 1xb6
 600 600 l 1xb6
 600 60 l 2
 600 15 517 -10 420 -10 c 1
 420 -10 401 66 330 113 c 1
 326 39 265 -20 190 -20 c 0
 113 -20 50 43 50 120 c 0
 50 183 92 237 150 254 c 1
 150 353 l 1
 93 367 50 419 50 480 c 0
 50 552 108 610 180 610 c 0xda
 252 610 310 552 310 480 c 2
 310 236 l 1
 364 212 408 172 440 131 c 1
 440 600 l 1xb6
190 175 m 0
 160 175 135 150 135 120 c 0
 135 90 160 65 190 65 c 0
 220 65 245 90 245 120 c 0
 245 150 220 175 190 175 c 0
EndSplineSet
EndChar

StartChar: uni0E06
Encoding: 166 3590 44
Width: 690
VWidth: 0
Flags: W
HStem: -20 85<174.49 266.5> 300 55<100.47 179.708> 445 55<122.352 179.708> 535 75<127.905 200.077> 580 20G<470 630>
VStem: 30 65<360.419 474.294> 80 85<74.4899 165.614> 185 55<360.292 439.708> 330 110<383.777 527.711> 470 160<131 600>
LayerCount: 2
Fore
SplineSet
220 175 m 0xe3c0
 190 175 165 150 165 120 c 0
 165 90 190 65 220 65 c 0
 250 65 275 90 275 120 c 0
 275 150 250 175 220 175 c 0xe3c0
140 445 m 0
 115 445 95 425 95 400 c 0xe5c0
 95 375 115 355 140 355 c 0
 165 355 185 375 185 400 c 0
 185 425 165 445 140 445 c 0
160 610 m 0xf5c0
 197 610 227 588 247 561 c 1
 271 610 l 1
 314 610 l 1xf5c0
 371 593 440 536 440 445 c 0
 440 337 367 314 352 230 c 1
 401 206 441 169 470 131 c 1
 470 600 l 1
 630 600 l 1xedc0
 630 60 l 2
 630 15 547 -10 450 -10 c 1
 450 -10 431 66 360 113 c 1
 356 39 295 -20 220 -20 c 0
 143 -20 80 43 80 120 c 0
 80 192 134 251 204 259 c 1
 239 334 330 380 330 445 c 0
 330 482 325 506 303 530 c 1
 275 485 l 1
 210 485 l 1
 203 509 189 535 165 535 c 0xf3c0
 144 535 130 521 122 498 c 1
 128 499 134 500 140 500 c 0
 195 500 240 455 240 400 c 0
 240 345 195 300 140 300 c 0
 71 300 30 362 30 440 c 0
 30 508 72 610 160 610 c 0xf5c0
EndSplineSet
EndChar

StartChar: uni0E31
Encoding: 209 3633 45
Width: 0
VWidth: 0
Flags: W
HStem: 700 90<-253.356 -147.63> 895 65<-364.783 -297.536>
VStem: -430 64<826.72 892.816> -296 66<826.302 893.036> -100 120<840.085 930>
LayerCount: 2
Fore
SplineSet
-330 895 m 4
 -350 895 -366 879 -366 860 c 4
 -366 841 -350 825 -330 825 c 4
 -311 825 -296 841 -296 860 c 4
 -296 879 -311 895 -330 895 c 4
-330 960 m 4
 -275 960 -230 915 -230 860 c 4
 -230 834 -240 811 -256 793 c 5
 -245 791 -231 790 -216 790 c 4
 -148 790 -100 849 -100 930 c 5
 20 930 l 5
 20 814 -59 700 -216 700 c 4
 -324 700 -430 754 -430 860 c 4
 -430 915 -386 960 -330 960 c 4
EndSplineSet
Substitution2: "Thai Tone & Vowel Above-Narrow" uni0E31.narrow
Position2: "Vowel Above-Left" dx=-240 dy=0 dh=0 dv=0 [ddx={} ddy={} ddh={} ddv={}]
EndChar

StartChar: uni0E4C
Encoding: 236 3660 46
Width: 0
VWidth: 0
Flags: W
HStem: 980 55<-259.237 -200.431>
VStem: -314 54<1035.49 1094.33> -200 56<1035.49 1094.75>
LayerCount: 2
Fore
SplineSet
-180 1250 m 1
 -40 1250 l 1
 -40 1185 -111 1145 -159 1112 c 1
 -150 1098 -144 1082 -144 1065 c 0
 -144 1018 -183 980 -230 980 c 0
 -276 980 -314 1018 -314 1065 c 0
 -314 1160 -180 1188 -180 1250 c 1
-230 1095 m 0
 -246 1095 -260 1082 -260 1065 c 0
 -260 1048 -246 1035 -230 1035 c 0
 -213 1035 -200 1048 -200 1065 c 0
 -200 1082 -213 1095 -230 1095 c 0
EndSplineSet
Validated: 1
Position2: "Tone High-Left" dx=-140 dy=0 dh=0 dv=0 [ddx={} ddy={} ddh={} ddv={}]
MultipleSubs2: "Tone High-Low" uni0E4C.low
EndChar

StartChar: uni0E39
Encoding: 217 3641 47
Width: 0
VWidth: 0
Flags: W
HStem: -370 80<-268.724 -191.276> -135 65<-402.931 -337.069>
VStem: -470 65<-203.076 -137.069> -335 65<-203.878 -138.016> -190 120<-288.939 -90>
LayerCount: 2
Fore
SplineSet
-370 -135 m 4
 -389 -135 -405 -151 -405 -170 c 4
 -405 -189 -389 -205 -370 -205 c 4
 -351 -205 -335 -189 -335 -170 c 4
 -335 -151 -351 -135 -370 -135 c 4
-390 -268 m 5
 -436 -259 -470 -218 -470 -170 c 4
 -470 -115 -425 -70 -370 -70 c 4
 -315 -70 -270 -115 -270 -170 c 6
 -270 -270 l 6
 -270 -286 -257 -290 -230 -290 c 4
 -203 -290 -190 -286 -190 -270 c 6
 -190 -90 l 5
 -70 -90 l 5
 -70 -270 l 6
 -70 -321 -85 -370 -230 -370 c 4
 -375 -370 -390 -321 -390 -270 c 6
 -390 -268 l 5
EndSplineSet
Validated: 1
Position2: "Vowel Below-Low" dx=0 dy=-200 dh=0 dv=0
EndChar

StartChar: uni0E03
Encoding: 163 3587 48
Width: 690
VWidth: 0
Flags: W
HStem: -20 120<359.229 460.771> 300 55<100.47 179.708> 445 55<122.352 179.708> 535 75<127.905 200.077> 580 20G<470 630>
VStem: 30 65<360.419 474.294> 185 55<360.292 439.708> 190 160<110.692 278.648> 330 110<384.137 527.711> 470 160<110.692 600>
LayerCount: 2
Fore
SplineSet
140 445 m 4xe640
 115 445 95 425 95 400 c 4
 95 375 115 355 140 355 c 4
 165 355 185 375 185 400 c 4
 185 425 165 445 140 445 c 4xe640
275 485 m 5
 210 485 l 5
 203 509 189 535 165 535 c 4
 144 535 130 521 122 498 c 5
 128 499 134 500 140 500 c 4
 195 500 240 455 240 400 c 4
 240 345 195 300 140 300 c 4
 71 300 30 362 30 440 c 4
 30 508 72 610 160 610 c 4
 197 610 227 588 247 561 c 5
 271 610 l 5
 314 610 l 5
 371 593 440 536 440 445 c 4xf6c0
 440 325 350 310 350 200 c 6
 350 160 l 6
 350 120 371 100 410 100 c 4
 449 100 470 120 470 160 c 6
 470 600 l 5
 630 600 l 5
 630 160 l 6
 630 92 598 -20 410 -20 c 4
 222 -20 190 92 190 160 c 6
 190 200 l 6xed40
 190 313 330 364 330 445 c 4xecc0
 330 482 325 506 303 530 c 5
 275 485 l 5
EndSplineSet
EndChar

StartChar: uni0E22
Encoding: 194 3618 49
Width: 660
VWidth: 0
Flags: W
HStem: -20 120<220.536 427.626> 245 90<224.204 320> 370 70<189.694 263.965> 540 70<176.938 263.965> 580 20G<440 600>
VStem: 40 160<123.612 221.35> 40 130<446.528 533.397> 270 70<446.035 533.965> 440 160<118.051 600>
LayerCount: 2
Fore
SplineSet
440 600 m 1xed80
 600 600 l 1
 600 80 l 2
 600 57 484 -20 320 -20 c 0
 156 -20 40 44 40 170 c 0xed80
 40 231 74 271 126 297 c 1
 71 334 40 388 40 450 c 0
 40 553 116 610 220 610 c 0xf380
 286 610 340 556 340 490 c 0
 340 424 286 370 220 370 c 0
 209 370 199 371 189 374 c 1
 217 347 264 335 320 335 c 1
 320 245 l 1
 240 245 200 214 200 170 c 0
 200 119 256 100 320 100 c 0
 387 100 424 120 440 135 c 1
 440 600 l 1xed80
220 540 m 0xf380
 192 540 170 518 170 490 c 0
 170 462 192 440 220 440 c 0
 248 440 270 462 270 490 c 0
 270 518 248 540 220 540 c 0xf380
EndSplineSet
EndChar

StartChar: uni0E46
Encoding: 230 3654 50
Width: 660
VWidth: 0
Flags: W
HStem: -290 120<280 382.253> 250 65<142.771 216.835> 395 65<142.643 216.835> 540 80<154.33 241.587>
VStem: 50 90<319.868 529.314> 220 65<318.165 391.835> 410 160<-143.155 534.284>
LayerCount: 2
Fore
SplineSet
570 -80 m 2
 570 -212 485 -290 280 -290 c 1
 280 -170 l 1
 369 -170 410 -141 410 -80 c 2
 410 450 l 2
 410 488 407 520 395 535 c 1
 340 455 l 1
 255 455 l 1
 255 499 239 540 195 540 c 0
 154 540 142 496 140 452 c 1
 152 457 166 460 180 460 c 0
 238 460 285 413 285 355 c 0
 285 297 238 250 180 250 c 0
 95 250 50 339 50 440 c 0
 50 522 89 620 190 620 c 0
 245 620 286 582 311 540 c 1
 364 620 l 1
 434 620 l 1
 509 600 570 532 570 450 c 2
 570 -80 l 2
180 395 m 0
 158 395 140 377 140 355 c 0
 140 333 158 315 180 315 c 0
 202 315 220 333 220 355 c 0
 220 377 202 395 180 395 c 0
EndSplineSet
Validated: 1
EndChar

StartChar: uni0E47
Encoding: 231 3655 51
Width: 0
VWidth: 0
Flags: W
HStem: 690 65<-257.796 -212> 850 50<-194.402 -135.598> 920 85<-410.866 -202.133>
VStem: -530 105<790.46 909.272> -245 50<790.442 849.402> -190 120<1017.77 1080> -135 50<790.828 849.402>
LayerCount: 2
Fore
SplineSet
-165 850 m 0xfa
 -182 850 -195 837 -195 820 c 0
 -195 803 -182 790 -165 790 c 0
 -148 790 -135 803 -135 820 c 0
 -135 837 -148 850 -165 850 c 0xfa
-165 900 m 0
 -121 900 -85 864 -85 820 c 0xfa
 -85 750 -138 690 -210 690 c 0
 -263 690 -303 717 -325 755 c 1
 -365 695 l 1
 -470 695 -530 761 -530 850 c 0
 -530 939 -470 1005 -365 1005 c 2
 -250 1005 l 2
 -207 1005 -190 1041 -190 1080 c 1
 -70 1080 l 1xfc
 -70 1008 -120 920 -210 920 c 2
 -365 920 l 2
 -395 920 -425 903 -425 850 c 0
 -425 806 -405 787 -381 782 c 1
 -345 830 l 1
 -275 830 l 1
 -275 803 -258 756 -212 755 c 1
 -232 770 -245 793 -245 820 c 0
 -245 864 -209 900 -165 900 c 0
EndSplineSet
Substitution2: "Thai Tone & Vowel Above-Narrow" uni0E47.narrow
Position2: "Vowel Above-Left" dx=-180 dy=0 dh=0 dv=0 [ddx={} ddy={} ddh={} ddv={}]
EndChar

StartChar: uni0E0B
Encoding: 171 3595 52
Width: 710
VWidth: 0
Flags: W
HStem: -20 120<359.229 460.771> 300 55<100.47 179.708> 445 55<122.352 179.708> 535 75<127.905 200.077>
VStem: 30 65<360.419 474.294> 185 55<360.292 439.708> 190 160<110.692 278.648> 470 160<110.692 398.302> 540 150<574.476 680>
LayerCount: 2
Fore
SplineSet
275 485 m 1xfb
 210 485 l 1
 203 509 189 535 165 535 c 0
 144 535 130 521 122 498 c 1
 128 499 134 500 140 500 c 0
 195 500 240 455 240 400 c 0
 240 345 195 300 140 300 c 0
 71 300 30 362 30 440 c 0
 30 508 72 610 160 610 c 0
 197 610 227 588 247 561 c 1
 271 610 l 1
 314 610 l 1
 353 598 397 568 421 522 c 1
 486 530 540 566 540 680 c 1
 690 680 l 1xfc80
 690 555 609 486 510 457 c 1
 566 431 630 393 630 360 c 2
 630 160 l 2
 630 92 598 -20 410 -20 c 0
 222 -20 190 92 190 160 c 2
 190 200 l 2
 190 313 330 364 330 445 c 0
 330 482 325 506 303 530 c 1
 275 485 l 1xfb
140 445 m 0
 115 445 95 425 95 400 c 0
 95 375 115 355 140 355 c 0
 165 355 185 375 185 400 c 0
 185 425 165 445 140 445 c 0
436 405 m 1
 419 320 350 297 350 200 c 2
 350 160 l 2
 350 120 371 100 410 100 c 0
 449 100 470 120 470 160 c 2
 470 360 l 2xfb
 470 375 454 391 436 405 c 1
EndSplineSet
Substitution2: "Ascent Substitute" uni0E0B.alt
EndChar

StartChar: uni0E02
Encoding: 162 3586 53
Width: 660
VWidth: 0
Flags: W
HStem: -20 120<329.229 430.771> 335 55<94.4233 174.708> 530 80<180.137 266.465> 580 20G<440 600>
VStem: 30 60<394.469 474.935> 160 160<110.692 277.824> 180 55<395.292 475.415> 285 110<372.652 511.243> 440 160<110.692 600>
LayerCount: 2
Fore
SplineSet
135 480 m 4xca80
 110 480 90 460 90 435 c 4
 90 410 110 390 135 390 c 4
 160 390 180 410 180 435 c 4
 180 460 160 480 135 480 c 4xca80
210 610 m 4xeb80
 327 610 395 526 395 450 c 4xeb80
 395 328 320 319 320 200 c 6
 320 160 l 6
 320 120 341 100 380 100 c 4
 419 100 440 120 440 160 c 6
 440 600 l 5
 600 600 l 5
 600 160 l 6
 600 92 568 -20 380 -20 c 4
 192 -20 160 92 160 160 c 6
 160 200 l 6xdc80
 160 311 285 340 285 450 c 4
 285 491 259 530 210 530 c 4
 200 530 189 528 178 525 c 5
 212 509 235 475 235 435 c 4
 235 380 190 335 135 335 c 4
 72 335 30 385 30 450 c 4
 30 538 107 610 210 610 c 4xeb80
EndSplineSet
EndChar

StartChar: uni0E0A
Encoding: 170 3594 54
Width: 680
VWidth: 0
Flags: W
HStem: -20 120<329.229 430.771> 335 55<94.4233 174.708> 530 80<180.137 266.606>
VStem: 30 60<394.469 474.935> 160 160<110.692 277.824> 180 55<395.292 475.415> 440 160<110.692 398.338> 510 150<574.476 680>
LayerCount: 2
Fore
SplineSet
135 480 m 0xf4
 110 480 90 460 90 435 c 0
 90 410 110 390 135 390 c 0
 160 390 180 410 180 435 c 0
 180 460 160 480 135 480 c 0xf4
393 415 m 1
 380 325 320 307 320 200 c 2
 320 160 l 2
 320 120 341 100 380 100 c 0
 419 100 440 120 440 160 c 2
 440 360 l 2xfa
 440 379 416 399 393 415 c 1
600 360 m 2
 600 160 l 2
 600 92 568 -20 380 -20 c 0
 192 -20 160 92 160 160 c 2
 160 200 l 2xfa
 160 311 285 340 285 450 c 0
 285 491 259 530 210 530 c 0
 200 530 189 528 178 525 c 1
 212 509 235 475 235 435 c 0
 235 380 190 335 135 335 c 0
 72 335 30 385 30 450 c 0
 30 538 107 610 210 610 c 0
 291 610 348 570 376 520 c 1
 447 524 510 556 510 680 c 1
 660 680 l 1xf5
 660 555 579 486 480 457 c 1
 536 431 600 393 600 360 c 2
EndSplineSet
Substitution2: "Ascent Substitute" uni0E0A.alt
EndChar

StartChar: uni0E19
Encoding: 185 3609 55
Width: 690
VWidth: 0
Flags: W
HStem: -20 85<464.698 555.51> 530 80<127.092 212.908> 580 20G<460 620>
VStem: 40 80<436.174 522.908> 140 160<128 362.235> 220 80<435.957 521.773> 460 160<252.551 600> 565 85<74.4899 165.709>
LayerCount: 2
Fore
SplineSet
170 530 m 0xd4
 142 530 120 508 120 480 c 0
 120 452 142 430 170 430 c 0
 198 430 220 452 220 480 c 0
 220 508 198 530 170 530 c 0xd4
510 175 m 0
 480 175 455 150 455 120 c 0
 455 90 480 65 510 65 c 0
 540 65 565 90 565 120 c 0x91
 565 150 540 175 510 175 c 0
460 600 m 1xba
 620 600 l 1
 620 250 l 1xba
 588 236 l 1
 626 211 650 168 650 120 c 0
 650 43 587 -20 510 -20 c 0
 439 -20 381 32 371 100 c 1
 330 48 310 -10 310 -10 c 1
 214 -10 140 15 140 60 c 2
 140 353 l 1xb9
 83 367 40 419 40 480 c 0
 40 552 98 610 170 610 c 0
 242 610 300 552 300 480 c 2xd4
 300 128 l 1
 337 185 392 241 460 262 c 1
 460 600 l 1xba
EndSplineSet
EndChar

StartChar: uni0E23
Encoding: 195 3619 56
Width: 580
VWidth: 0
Flags: W
HStem: -10 80<317.092 402.908> 370 74<177 281.697> 500 110<496.511 550> 520 100<214.156 404.46>
VStem: 230 80<77.0919 163.826> 330 160<237.765 333.287> 410 80<78.2267 164.043>
LayerCount: 2
Fore
SplineSet
360 170 m 0xca
 332 170 310 148 310 120 c 0
 310 92 332 70 360 70 c 0
 388 70 410 92 410 120 c 0
 410 148 388 170 360 170 c 0xca
30 370 m 1
 30 546 175 620 295 620 c 0xdc
 390 620 440 573 465 550 c 5
 485 577 519 610 550 610 c 1
 550 500 l 1xec
 519 500 484 472 465 445 c 5
 414 496 374 520 300 520 c 0
 238 520 189 488 177 444 c 1
 361 440 490 413 490 305 c 2xdc
 490 120 l 2xda
 490 48 432 -10 360 -10 c 0
 288 -10 230 48 230 120 c 0
 230 181 273 233 330 247 c 1
 330 305 l 2xdc
 330 362 137 370 30 370 c 1
EndSplineSet
EndChar

StartChar: uni0E07
Encoding: 167 3591 57
Width: 560
VWidth: 0
Flags: W
HStem: 260 130<40 118.127> 530 80<327.092 412.908>
VStem: 240 80<436.174 522.908> 340 160<159 362.235> 420 80<435.957 521.773>
LayerCount: 2
Fore
SplineSet
370 530 m 0xe8
 342 530 320 508 320 480 c 0
 320 452 342 430 370 430 c 0
 398 430 420 452 420 480 c 0
 420 508 398 530 370 530 c 0xe8
340 159 m 1xf0
 340 353 l 1xf0
 283 367 240 419 240 480 c 0
 240 552 298 610 370 610 c 0
 442 610 500 552 500 480 c 2
 500 60 l 2xe8
 500 15 406 -10 300 -10 c 1
 235 169 120 260 40 260 c 1
 40 390 l 1
 151 390 266 304 340 159 c 1xf0
EndSplineSet
EndChar

StartChar: uni0E0E
Encoding: 174 3598 58
Width: 700
VWidth: 0
Flags: W
HStem: -300 80<170.827 262.651> -160 80<170.827 276.18> -20 20G<470 630> -10 80<124.668 205.332> 0 21<470 630> 390 20<326.974 350> 500 120<262.711 436.996>
VStem: 40 80<74.6675 155.638> 70 100<-218.552 -161.448> 130 160<224.463 368.096> 210 80<74.9226 155.588> 470 160<-187 0 0 465.354>
LayerCount: 2
Fore
SplineSet
470 0 m 5xe6b0
 630 0 l 5
 630 -230 l 6
 630 -286 511 -290 440 -290 c 5
 418 -264 390 -240 361 -219 c 5
 330 -268 282 -300 210 -300 c 4
 149 -300 70 -273 70 -190 c 4
 70 -107 149 -80 210 -80 c 4
 242 -80 271 -84 299 -91 c 5
 300 -81 300 -71 300 -60 c 5
 400 -60 l 5
 400 -84 398 -108 394 -131 c 5
 421 -147 446 -166 470 -187 c 5
 470 0 l 5xe6b0
210 -220 m 4
 235 -220 260 -205 277 -173 c 5
 254 -165 231 -160 210 -160 c 4
 191 -160 170 -167 170 -190 c 4
 170 -213 191 -220 210 -220 c 4
EndSplineSet
Refer: 8 3616 N 1 0 0 1 0 0 2
Substitution2: "Descent Shorten" uni0E0E.shorten
EndChar

StartChar: uni0E2B
Encoding: 203 3627 59
Width: 700
VWidth: 0
Flags: W
HStem: 0 21G<140 310 470 630> 530 80<127.092 212.908 487.092 572.908>
VStem: 40 80<436.174 522.908> 140 170<0 165.378> 140 160<266 362.235> 220 80<435.957 521.773> 400 80<436.479 522.908> 470 160<0 323> 580 80<436.118 522.908>
LayerCount: 2
Fore
SplineSet
530 530 m 0xe280
 502 530 480 508 480 480 c 0
 480 452 502 430 530 430 c 0
 558 430 580 452 580 480 c 0
 580 508 558 530 530 530 c 0xe280
530 610 m 0
 602 610 660 552 660 480 c 0xea80
 660 431 633 388 593 366 c 1
 630 350 l 1
 630 0 l 1
 470 0 l 1
 470 323 l 1
 406 289 336 184 310 109 c 1
 310 0 l 1
 140 0 l 1xf1
 140 353 l 1xe8
 83 367 40 419 40 480 c 0
 40 552 98 610 170 610 c 0
 242 610 300 552 300 480 c 2xe4
 300 266 l 1xe8
 328 310 374 367 428 400 c 1
 410 422 400 450 400 480 c 0
 400 552 458 610 530 610 c 0
170 530 m 0
 142 530 120 508 120 480 c 0
 120 452 142 430 170 430 c 0
 198 430 220 452 220 480 c 0xe4
 220 508 198 530 170 530 c 0
EndSplineSet
EndChar

StartChar: uni0E3A
Encoding: 218 3642 60
Width: 0
VWidth: 0
Flags: W
HStem: -250 180<-214.125 -85.875>
VStem: -240 180<-224.125 -95.875>
LayerCount: 2
Fore
SplineSet
-60 -160 m 0
 -60 -211 -99 -250 -150 -250 c 0
 -201 -250 -240 -211 -240 -160 c 0
 -240 -109 -201 -70 -150 -70 c 0
 -99 -70 -60 -109 -60 -160 c 0
EndSplineSet
Validated: 1
Position2: "Vowel Below-Low" dx=0 dy=-200 dh=0 dv=0
EndChar

StartChar: uni0E53
Encoding: 243 3667 61
Width: 850
VWidth: 0
Flags: W
HStem: -20 85<272.698 367.683> 0 21G<630 790> 185 85<271.219 367.683> 500 120<254.447 345.723>
VStem: 50 160<225.118 436.631> 380 85<77.3168 172.683> 630 160<0 483.531>
LayerCount: 2
Fore
SplineSet
320 185 m 4xbe
 287 185 260 158 260 125 c 4
 260 92 287 65 320 65 c 4
 353 65 380 92 380 125 c 4
 380 158 353 185 320 185 c 4xbe
300 500 m 4
 252 500 210 428 210 300 c 4
 210 273 211 247 214 224 c 5
 240 252 278 270 320 270 c 4
 400 270 465 205 465 125 c 4
 465 45 400 -20 320 -20 c 4xbe
 151 -20 50 115 50 300 c 4
 50 485 180 620 300 620 c 4
 376 620 436 571 470 493 c 5
 530 620 l 5
 590 620 l 5
 725 590 790 505 790 360 c 6
 790 0 l 5
 630 0 l 5x7e
 630 360 l 6
 630 410 620 476 590 500 c 5
 500 330 l 5
 380 330 l 5
 380 457 339 500 300 500 c 4
EndSplineSet
EndChar

StartChar: uni0E24
Encoding: 196 3620 62
Width: 680
VWidth: 0
Flags: W
HStem: -270 270<450 610> -10 80<184.668 265.332> 0 21<450 610> 390 20<296.974 320> 500 120<242.711 416.996>
VStem: 100 80<74.9226 155.588> 100 160<224.463 367.476> 270 80<74.6675 155.638> 450 160<-270 0 0 465.354>
LayerCount: 2
Fore
SplineSet
450 0 m 5x9980
 610 0 l 5
 610 -270 l 5
 450 -270 l 5
 450 0 l 5x9980
EndSplineSet
Refer: 6 3606 N 1 0 0 1 0 0 2
EndChar

StartChar: uni0E26
Encoding: 198 3622 63
Width: 700
VWidth: 0
Flags: W
HStem: -270 270<470 630> -10 80<124.668 205.332> 0 21<470 630> 390 20<326.974 350> 500 120<262.711 436.996>
VStem: 40 80<74.6675 155.638> 130 160<224.463 368.096> 210 80<74.9226 155.588> 470 160<-270 0 0 465.354>
LayerCount: 2
Fore
SplineSet
470 0 m 5x9c80
 630 0 l 5
 630 -270 l 5
 470 -270 l 5
 470 0 l 5x9c80
EndSplineSet
Refer: 8 3616 S 1 0 0 1 0 0 2
EndChar

StartChar: uni0E45
Encoding: 229 3653 64
Width: 300
VWidth: 0
Flags: W
HStem: 500 120<-51.0869 61.0869>
VStem: -230 160<400 482.11> 80 160<-270 482.11>
LayerCount: 2
Fore
SplineSet
240 400 m 6
 240 -270 l 5
 80 -270 l 5
 80 400 l 6
 80 466 57 500 5 500 c 4
 -47 500 -70 466 -70 400 c 5
 -230 400 l 5
 -230 525 -152 620 5 620 c 4
 162 620 240 525 240 400 c 6
EndSplineSet
EndChar

StartChar: uni0E50
Encoding: 240 3664 65
Width: 800
VWidth: 0
Flags: W
HStem: -20 120<304.455 495.545> 500 120<304.455 495.545>
VStem: 50 160<196.879 403.121> 590 160<196.879 403.121>
LayerCount: 2
Fore
SplineSet
400 620 m 0
 594 620 750 477 750 300 c 0
 750 123 594 -20 400 -20 c 0
 206 -20 50 123 50 300 c 0
 50 477 206 620 400 620 c 0
400 500 m 0
 285 500 210 410 210 300 c 0
 210 190 285 100 400 100 c 0
 515 100 590 190 590 300 c 0
 590 410 515 500 400 500 c 0
EndSplineSet
EndChar

StartChar: uni0E27
Encoding: 199 3623 66
Width: 580
VWidth: 0
Flags: W
HStem: -10 80<347.092 432.908> 500 120<211.754 338.246>
VStem: 260 80<77.0919 163.826> 360 160<237.765 481> 440 80<78.2267 164.043>
LayerCount: 2
Fore
SplineSet
390 170 m 0xe8
 362 170 340 148 340 120 c 0
 340 92 362 70 390 70 c 0
 418 70 440 92 440 120 c 0
 440 148 418 170 390 170 c 0xe8
360 247 m 1xf0
 360 420 l 2
 360 476 319 500 275 500 c 0
 231 500 190 476 190 420 c 1
 30 420 l 1
 30 535 123 620 275 620 c 0
 427 620 520 535 520 420 c 2xf0
 520 120 l 2xe8
 520 48 462 -10 390 -10 c 0
 318 -10 260 48 260 120 c 0
 260 181 303 233 360 247 c 1xf0
EndSplineSet
EndChar

StartChar: uni0E17
Encoding: 183 3607 67
Width: 690
VWidth: 0
Flags: W
HStem: 0 21G<140 310 470 630> 460 150<411.375 524> 530 80<127.092 212.908>
VStem: 40 80<436.174 522.908> 140 170<0 307.312> 220 80<435.957 521.773> 470 160<0 456.216>
LayerCount: 2
Fore
SplineSet
170 530 m 0xb6
 142 530 120 508 120 480 c 0
 120 452 142 430 170 430 c 0
 198 430 220 452 220 480 c 0
 220 508 198 530 170 530 c 0xb6
140 353 m 1xda
 83 367 40 419 40 480 c 0
 40 552 98 610 170 610 c 0
 242 610 300 552 300 480 c 2
 300 408 l 1xb6
 334 500 393 610 485 610 c 0
 563 610 630 562 630 410 c 2
 630 0 l 1
 470 0 l 1
 470 410 l 2
 470 437 465 460 435 460 c 0
 376 460 335 315 310 219 c 1
 310 0 l 1
 140 0 l 1
 140 353 l 1xda
EndSplineSet
EndChar

StartChar: uni0E2C
Encoding: 204 3628 68
Width: 780
VWidth: 0
Flags: W
HStem: 530 80<127.092 212.908> 545 65<559.488 640.786>
VStem: 40 80<436.174 522.908> 140 160<158 362.235> 220 80<435.957 521.773> 490 65<459.883 540.512> 540 160<158 431.195> 655 105<597.987 670>
AnchorPoint: "thai_above" 620 630 basechar 0
LayerCount: 2
Fore
SplineSet
655 670 m 1x65
 760 670 l 1x65
 760 589 746 502 700 452 c 1
 700 80 l 2
 700 9 609 -10 500 -10 c 1
 420 338 l 1
 340 -10 l 1
 231 -10 140 9 140 80 c 2
 140 353 l 1x72
 83 367 40 419 40 480 c 0
 40 552 98 610 170 610 c 0
 242 610 300 552 300 480 c 2xa8
 300 158 l 1
 385 490 l 1
 455 490 l 1
 540 158 l 1
 540 408 l 1xb2
 510 427 490 461 490 500 c 0
 490 561 539 610 600 610 c 0
 619 610 637 605 652 597 c 1
 654 618 655 643 655 670 c 1x65
600 545 m 0
 575 545 555 525 555 500 c 0
 555 475 575 455 600 455 c 0
 625 455 645 475 645 500 c 0
 645 525 625 545 600 545 c 0
170 530 m 0xa8
 142 530 120 508 120 480 c 0
 120 452 142 430 170 430 c 0
 198 430 220 452 220 480 c 0
 220 508 198 530 170 530 c 0xa8
EndSplineSet
EndChar

StartChar: uni0E18
Encoding: 184 3608 69
Width: 610
VWidth: 0
Flags: W
HStem: -20 120<236.867 383.133> 370 74<187 313.44> 500 110<496.511 550> 520 100<223.527 406.671>
VStem: 70 160<112.07 300> 390 160<112.07 332.165>
LayerCount: 2
Fore
SplineSet
40 370 m 1xdc
 40 546 180 620 300 620 c 0xdc
 395 620 440 573 465 550 c 1
 485 577 519 610 550 610 c 5
 550 500 l 5xec
 519 500 484 472 465 445 c 1
 414 496 379 520 305 520 c 0
 243 520 198 488 187 444 c 1
 380 440 550 413 550 305 c 2
 550 150 l 2
 550 26 446 -20 310 -20 c 0
 174 -20 70 26 70 150 c 2
 70 300 l 1
 230 300 l 1
 230 150 l 2
 230 116 257 100 310 100 c 0
 363 100 390 116 390 150 c 2
 390 305 l 2
 390 362 147 370 40 370 c 1xdc
EndSplineSet
EndChar

StartChar: uni0E10
Encoding: 176 3600 70
Width: 610
VWidth: 0
Flags: W
HStem: -330 65<65.3981 149.682> -215 65<65.3988 153.284> -90 50<430.598 489.402> 100 65<124.488 205.608> 255 65<124.488 204.556> 370 74<187 291.697> 500 110<506.511 560> 520 100<224.156 414.46>
VStem: -10 75<-264.366 -215.691> 55 65<169.488 250.512> 170 80<-167.438 -130> 340 160<174 333.287> 380 50<-149.577 -90.5981> 440 100<-267.537 -185.901> 490 50<-149.545 -90.7413>
LayerCount: 2
Fore
SplineSet
460 -90 m 0xfc2a
 443 -90 430 -103 430 -120 c 0
 430 -137 443 -150 460 -150 c 0
 477 -150 490 -137 490 -120 c 0
 490 -103 477 -90 460 -90 c 0xfc2a
154 -233 m 1
 137 -222 119 -215 100 -215 c 0
 83 -215 65 -222 65 -240 c 0xfca0
 65 -258 81 -265 100 -265 c 0
 126 -265 143 -253 154 -233 c 1
202 -279 m 1
 177 -310 142 -330 100 -330 c 0
 42 -330 -10 -295 -10 -240 c 0
 -10 -185 42 -150 100 -150 c 0
 124 -150 147 -157 169 -168 c 1
 170 -156 170 -144 170 -130 c 1
 250 -130 l 1
 250 -161 245 -192 234 -220 c 1
 242 -229 250 -238 257 -247 c 1
 285 -160 l 1
 350 -160 l 1
 360 -160 l 1
 440 -269 l 1
 440 -197 l 1xfca4
 405 -189 380 -157 380 -120 c 0
 380 -76 416 -40 460 -40 c 0
 504 -40 540 -76 540 -120 c 2xfc2a
 540 -260 l 2xfc24
 540 -316 461 -320 390 -320 c 1
 329 -227 l 1
 300 -320 l 1
 225 -320 l 1
 220 -307 212 -293 202 -279 c 1
EndSplineSet
Refer: 18 63232 N 1 0 0 1 0 0 2
Substitution2: "Descent Substitute" uni0E10.descless
EndChar

StartChar: uni0E2F
Encoding: 207 3631 71
Width: 560
VWidth: 0
Flags: W
HStem: -20 120<210 312.253> 350 90<203.104 325.359> 535 65<87.0689 152.931>
VStem: 20 65<466.771 532.931> 155 65<466.452 532.931> 340 160<126.845 376> 370 130<484.578 580>
LayerCount: 2
Fore
SplineSet
120 535 m 0xf8
 101 535 85 519 85 500 c 0
 85 481 101 465 120 465 c 0
 139 465 155 481 155 500 c 0
 155 519 139 535 120 535 c 0xf8
120 600 m 0
 175 600 220 555 220 500 c 0
 220 478 213 458 201 441 c 1
 211 440 222 440 235 440 c 0
 320 440 370 486 370 570 c 2
 370 580 l 1
 500 580 l 1xfa
 500 190 l 2
 500 58 415 -20 210 -20 c 1
 210 100 l 1
 299 100 340 129 340 190 c 2
 340 376 l 1xfc
 310 359 274 350 235 350 c 0
 127 350 20 394 20 500 c 0
 20 555 65 600 120 600 c 0
EndSplineSet
Validated: 1
EndChar

StartChar: uni0E5A
Encoding: 250 3674 72
Width: 720
VWidth: 0
Flags: W
HStem: -20 100<180 295.219 440 513.513> 350 90<214.9 300.963> 535 65<97.0689 162.931>
VStem: 30 65<466.771 532.931> 165 65<466.452 532.931> 330 120<111.378 374> 340 110<479.964 580> 530 120<96.6925 580>
LayerCount: 2
Fore
SplineSet
650 190 m 2xf9
 650 58 619 -20 440 -20 c 1
 440 80 l 1
 516 80 530 103 530 190 c 2
 530 385 l 1
 530 482 l 1
 530 580 l 1
 650 580 l 1
 650 190 l 2xf9
130 535 m 0
 111 535 95 519 95 500 c 0
 95 481 111 465 130 465 c 0
 149 465 165 481 165 500 c 0
 165 519 149 535 130 535 c 0
130 600 m 0
 185 600 230 555 230 500 c 0
 230 478 223 458 211 441 c 1
 221 440 235 440 235 440 c 1
 291 440 340 486 340 570 c 2
 340 580 l 1
 450 580 l 1xfb
 450 190 l 2
 450 58 385 -20 180 -20 c 1
 180 80 l 1
 284 80 330 103 330 190 c 2
 330 374 l 1xfd
 304 358 273 350 235 350 c 0
 127 350 30 394 30 500 c 0
 30 555 75 600 130 600 c 0
EndSplineSet
Validated: 1
EndChar

StartChar: uni0E13
Encoding: 179 3603 73
Width: 950
VWidth: 0
Flags: W
HStem: -20 75<734.082 825.511> -10 80<184.668 265.332> 390 20<296.974 320> 500 120<242.711 416.996> 580 20G<720 880>
VStem: 100 160<224.463 367.476> 100 80<74.9226 155.588> 270 80<74.6675 155.638> 450 160<35.0956 62.2458 155 465.354> 720 160<230 600> 835 75<64.4892 156.132>
LayerCount: 2
Fore
SplineSet
100 115 m 2x7380
 100 280 l 2
 100 350 131 379 154 391 c 1
 50 420 l 1
 70 493 152 620 340 620 c 0x7580
 491 620 610 536 610 400 c 2
 610 155 l 1
 637 189 673 219 720 232 c 1
 720 600 l 1
 880 600 l 1
 880 230 l 1x2dc0
 852 218 l 1
 887 195 910 155 910 110 c 0
 910 38 852 -20 780 -20 c 0xa9a0
 716 -20 662 27 652 88 c 1
 618 43 610 -10 610 -10 c 1
 514 -10 450 15 450 60 c 2
 450 130 l 1
 450 400 l 2
 450 473 395 500 340 500 c 0
 277 500 227 476 203 436 c 1
 320 410 l 1
 320 390 l 1
 320 390 260 387 260 280 c 2
 260 235 l 1x75a0
 312 220 350 172 350 115 c 0
 350 46 294 -10 225 -10 c 0
 156 -10 100 46 100 115 c 2x7380
225 160 m 0
 200 160 180 140 180 115 c 0x6380
 180 90 200 70 225 70 c 0
 250 70 270 90 270 115 c 0
 270 140 250 160 225 160 c 0
780 165 m 0
 750 165 725 140 725 110 c 0
 725 80 750 55 780 55 c 0
 810 55 835 80 835 110 c 0xa1a0
 835 140 810 165 780 165 c 0
EndSplineSet
EndChar

StartChar: uni0E08
Encoding: 168 3592 74
Width: 600
VWidth: 0
Flags: W
HStem: 140 75<165.515 245.326> 305 75<165.515 244.705> 500 120<203.594 366.406>
VStem: 85 75<220.515 299.484> 390 160<202 476.359>
LayerCount: 2
Fore
SplineSet
205 305 m 4
 180 305 160 285 160 260 c 4
 160 235 180 215 205 215 c 4
 230 215 250 235 250 260 c 4
 250 285 230 305 205 305 c 4
390 202 m 5
 390 420 l 6
 390 471 349 500 285 500 c 4
 221 500 180 471 180 420 c 5
 20 420 l 5
 20 535 118 620 285 620 c 4
 452 620 550 535 550 420 c 6
 550 60 l 6
 550 15 454 -10 360 -10 c 5
 351 77 334 150 310 201 c 5
 289 165 250 140 205 140 c 4
 139 140 85 194 85 260 c 4
 85 326 139 380 205 380 c 4
 292 380 352 312 390 202 c 5
EndSplineSet
Validated: 1
EndChar

StartChar: uni0E0D
Encoding: 173 3597 75
Width: 930
VWidth: 0
Flags: W
HStem: -295 85<613.588 727.588> -110 50<503.211 577.075> -20 120<613.89 706.11> -10 80<184.668 265.332> 390 20<296.974 320> 500 120<242.711 416.996> 580 20<710 870>
VStem: 100 80<74.9226 155.588> 100 160<224.463 367.476> 270 80<74.6675 155.638> 450 50<-186.487 -114> 450 160<104.793 465.354> 580 50<-186.878 -112.811> 710 160<104.793 600> 760 120<-176.588 -85>
LayerCount: 2
Fore
SplineSet
540 -110 m 0xc868
 518 -110 500 -128 500 -150 c 0
 500 -172 518 -190 540 -190 c 0
 563 -190 580 -172 580 -150 c 0
 580 -128 563 -110 540 -110 c 0xc868
540 -60 m 0
 590 -60 630 -100 630 -150 c 0
 630 -171 624 -190 612 -205 c 1
 625 -209 638 -210 650 -210 c 0
 729 -210 760 -164 760 -85 c 1
 880 -85 l 1xc86a
 880 -213 787 -295 650 -295 c 0
 518 -295 450 -220 450 -150 c 0
 450 -100 491 -60 540 -60 c 0
EndSplineSet
Refer: 19 63247 N 1 0 0 1 0 0 2
Substitution2: "Descent Substitute" uni0E0D.descless
EndChar

StartChar: uni0E0F
Encoding: 175 3599 76
Width: 700
VWidth: 0
Flags: W
HStem: -300 70<105.512 175.68> -190 70<105.512 176.176> -20 20G<470 630> -10 80<124.668 205.332> 0 21<470 630> 390 20<326.974 350> 500 120<262.711 436.996>
VStem: 20 85<-229.826 -190.174> 40 80<74.6675 155.638> 130 160<224.463 368.096> 200 80<-137.262 -100> 210 80<74.9226 155.588> 470 160<-214 0 0 465.354>
LayerCount: 2
Fore
SplineSet
470 0 m 5xe628
 630 0 l 5
 630 -230 l 6
 630 -286 511 -290 440 -290 c 5
 370 -193 l 5
 325 -290 l 5
 255 -290 l 5
 250 -277 242 -263 231 -250 c 5
 206 -280 172 -300 130 -300 c 4
 72 -300 20 -265 20 -210 c 4
 20 -155 72 -120 130 -120 c 4xe748
 153 -120 176 -127 198 -138 c 5
 199 -127 200 -114 200 -100 c 5
 280 -100 l 5
 280 -132 274 -164 264 -192 c 5
 270 -200 277 -208 283 -217 c 5
 325 -130 l 5
 399 -130 l 5
 405 -130 l 5
 470 -214 l 5
 470 0 l 5xe628
177 -202 m 5
 162 -195 146 -190 130 -190 c 4
 117 -190 105 -198 105 -210 c 4
 105 -222 117 -230 130 -230 c 4
 149 -230 165 -220 177 -202 c 5
EndSplineSet
Refer: 8 3616 N 1 0 0 1 0 0 2
Substitution2: "Descent Shorten" uni0E0F.shorten
EndChar

StartChar: uni0E4B
Encoding: 235 3659 77
Width: 0
VWidth: 0
Flags: W
HStem: 1100 70<-300 -210 -110 -20>
VStem: -210 100<1052 1100 1170 1250>
LayerCount: 2
Fore
SplineSet
-210 1250 m 5
 -110 1250 l 5
 -110 1170 l 5
 -20 1170 l 5
 -20 1100 l 5
 -110 1100 l 5
 -110 1010 l 5
 -210 1052 l 5
 -210 1100 l 5
 -300 1100 l 5
 -300 1170 l 5
 -210 1170 l 5
 -210 1250 l 5
EndSplineSet
Position2: "Nikhahit & Tone High-Left" dx=-240 dy=0 dh=0 dv=0 [ddx={} ddy={} ddh={} ddv={}]
Position2: "Mai Han-Akat & Tone High-Left" dx=-300 dy=0 dh=0 dv=0 [ddx={} ddy={} ddh={} ddv={}]
Position2: "Tone High-Left" dx=-200 dy=0 dh=0 dv=0 [ddx={} ddy={} ddh={} ddv={}]
MultipleSubs2: "Tone High-Low" uni0E4B.low
EndChar

StartChar: uni0E0F.shorten
Encoding: 263 63290 78
Width: 700
VWidth: 0
Flags: W
HStem: -250 70<105.512 175.68> -140 70<105.512 176.176> -10 80<124.668 205.332> 0 21<470 630> 390 20<326.974 350> 500 120<262.711 436.996>
VStem: 20 85<-179.826 -140.174> 40 80<74.6675 155.638> 130 160<224.463 368.096> 200 80<-87.2616 -50> 210 80<74.9226 155.588> 470 160<-164 50 0 465.354>
LayerCount: 2
Fore
SplineSet
470 50 m 1xcc50
 630 50 l 1
 630 -180 l 2
 630 -236 511 -240 440 -240 c 1
 370 -143 l 1
 325 -240 l 1
 255 -240 l 1
 250 -227 242 -213 231 -200 c 1
 206 -230 172 -250 130 -250 c 0
 72 -250 20 -215 20 -160 c 0
 20 -105 72 -70 130 -70 c 0xce90
 153 -70 176 -77 198 -88 c 1
 199 -77 200 -64 200 -50 c 1
 280 -50 l 1
 280 -82 274 -114 264 -142 c 1
 270 -150 277 -158 283 -167 c 1
 325 -80 l 1
 399 -80 l 1
 405 -80 l 1
 470 -164 l 1
 470 50 l 1xcc50
177 -152 m 1
 162 -145 146 -140 130 -140 c 0
 117 -140 105 -148 105 -160 c 0
 105 -172 117 -180 130 -180 c 0
 149 -180 165 -170 177 -152 c 1
EndSplineSet
Refer: 8 3616 N 1 0 0 1 0 0 2
EndChar

StartChar: uni0E0E.shorten
Encoding: 264 63291 79
Width: 700
VWidth: 0
Flags: W
HStem: -250 80<170.827 262.651> -110 80<170.827 276.18> -10 80<124.668 205.332> 0 21<470 630> 390 20<326.974 350> 500 120<262.711 436.996>
VStem: 40 80<74.6675 155.638> 70 100<-168.552 -111.448> 130 160<224.463 368.096> 210 80<74.9226 155.588> 470 160<-137 50 0 465.354>
LayerCount: 2
Fore
SplineSet
470 50 m 5xed60
 630 50 l 5
 630 -180 l 6
 630 -236 511 -240 440 -240 c 5
 418 -214 390 -190 361 -169 c 5
 330 -218 282 -250 210 -250 c 4
 149 -250 70 -223 70 -140 c 4
 70 -57 149 -30 210 -30 c 4
 242 -30 271 -34 299 -41 c 5
 300 -31 300 -21 300 -10 c 5
 400 -10 l 5
 400 -34 398 -58 394 -81 c 5
 421 -97 446 -116 470 -137 c 5
 470 50 l 5xed60
210 -170 m 4
 235 -170 260 -155 277 -123 c 5
 254 -115 231 -110 210 -110 c 4
 191 -110 170 -117 170 -140 c 4
 170 -163 191 -170 210 -170 c 4
EndSplineSet
Refer: 8 3616 N 1 0 0 1 0 0 2
EndChar

StartChar: uni0E5B
Encoding: 251 3675 80
Width: 1340
VWidth: 0
Flags: W
HStem: -20 90<279.643 499.875> 150 80<378.254 454.506> 255 90<1037.95 1280> 365 65<293.144 366.835> 530 90<250.379 419.272>
VStem: 60 100<190.163 427.47> 220 70<287.434 362.324> 370 65<287.946 361.835> 490 100<264.435 447.136> 675 90<549.987 580> 925 90<482.856 520>
LayerCount: 2
Fore
SplineSet
330 365 m 0
 308 365 290 347 290 325 c 0
 290 303 308 285 330 285 c 0
 352 285 370 303 370 325 c 0
 370 347 352 365 330 365 c 0
330 430 m 0
 388 430 435 383 435 325 c 0
 435 284 411 248 376 231 c 1
 381 230 385 230 390 230 c 0
 435 230 490 264 490 340 c 0
 490 434 439 530 340 530 c 0
 243 530 160 454 160 300 c 0
 160 162 257 70 390 70 c 0
 585 70 675 256 675 580 c 1
 765 580 l 1
 861 237 l 1
 925 520 l 1
 1015 520 l 1
 1015 385 1035 345 1090 345 c 2
 1280 345 l 1
 1280 255 l 1
 1090 255 l 2
 1030 255 991 272 966 305 c 1
 910 60 l 1
 820 60 l 1
 746 326 l 1
 711 137 620 -20 390 -20 c 0
 180 -20 60 123 60 300 c 0
 60 486 183 620 340 620 c 0
 493 620 590 501 590 340 c 0
 590 233 500 150 390 150 c 0
 285 150 220 232 220 320 c 0
 220 385 267 430 330 430 c 0
EndSplineSet
Validated: 1
EndChar

StartChar: uni0E4E
Encoding: 238 3662 81
Width: 0
VWidth: 0
Flags: W
HStem: 700 90<-402.378 -304.193> 785 20G<-328.5 -304> 1060 90<-332.677 -247.036>
VStem: -500 90<797.622 882.734> -430 90<974.528 1052.67> -240 90<1010 1051.88>
LayerCount: 2
Fore
SplineSet
-290 1150 m 0xac
 -212 1150 -150 1088 -150 1010 c 1
 -240 1010 l 1
 -240 1038 -262 1060 -290 1060 c 0
 -317 1060 -340 1038 -340 1010 c 0xac
 -340 997 -334 985 -326 976 c 1
 -301 970 -278 957 -260 939 c 1
 -324 876 l 1
 -333 885 -346 890 -360 890 c 0
 -387 890 -410 868 -410 840 c 0
 -410 813 -387 790 -360 790 c 0xb4
 -346 790 -333 796 -324 805 c 1x74
 -260 741 l 1
 -286 716 -321 700 -360 700 c 4
 -437 700 -500 763 -500 840 c 0xb4
 -500 895 -468 943 -422 966 c 1
 -427 980 -430 995 -430 1010 c 0
 -430 1088 -367 1150 -290 1150 c 0xac
EndSplineSet
Validated: 1
EndChar

StartChar: uni0E4F
Encoding: 239 3663 82
Width: 780
VWidth: 0
Flags: W
HStem: -20 100<288.444 491.556> 140 90<335.504 444.496> 370 90<335.504 444.496> 520 100<288.444 491.556>
VStem: 70 100<198.444 401.556> 230 90<245.504 354.496> 460 90<245.504 354.496> 610 100<198.444 401.556>
LayerCount: 2
Fore
SplineSet
390 620 m 0
 567 620 710 477 710 300 c 0
 710 123 567 -20 390 -20 c 0
 213 -20 70 123 70 300 c 0
 70 477 213 620 390 620 c 0
390 520 m 0
 268 520 170 422 170 300 c 0
 170 178 268 80 390 80 c 0
 512 80 610 178 610 300 c 0
 610 422 512 520 390 520 c 0
390 460 m 0
 478 460 550 388 550 300 c 0
 550 212 478 140 390 140 c 0
 302 140 230 212 230 300 c 0
 230 388 302 460 390 460 c 0
390 370 m 0
 351 370 320 339 320 300 c 0
 320 261 351 230 390 230 c 0
 429 230 460 261 460 300 c 0
 460 339 429 370 390 370 c 0
EndSplineSet
Validated: 1
EndChar

StartChar: uni0E51
Encoding: 241 3665 83
Width: 800
VWidth: 0
Flags: W
HStem: -60 120<400 485.493> 80 105<240.055 346.675> 360 80<357.092 442.908> 500 120<294.799 495.509>
VStem: 50 150<224.867 404.231> 270 80<266.661 352.908> 450 80<266.385 352.908> 590 160<177.889 404.103>
LayerCount: 2
Fore
SplineSet
400 360 m 0
 372 360 350 338 350 310 c 0
 350 282 372 260 400 260 c 0
 428 260 450 282 450 310 c 0
 450 338 428 360 400 360 c 0
400 440 m 0
 472 440 530 382 530 310 c 0
 530 194 447 80 300 80 c 0
 153 80 50 184 50 300 c 0
 50 477 190 620 400 620 c 0
 610 620 750 477 750 300 c 0
 750 94 614 -60 400 -60 c 1
 400 60 l 1
 510 60 590 164 590 300 c 0
 590 396 531 500 400 500 c 0
 269 500 200 415 200 300 c 0
 200 243 238 185 310 185 c 0
 323 185 336 187 348 191 c 1
 302 211 270 257 270 310 c 0
 270 382 328 440 400 440 c 0
EndSplineSet
EndChar

StartChar: uni0E52
Encoding: 242 3666 84
Width: 930
VWidth: 0
Flags: W
HStem: 0 120<240 720> 170 75<399.402 479.484> 335 75<399.396 479.484> 515 105<408.742 492.541> 790 20G<40 203.81>
VStem: 80 160<120 765.347> 270 125<275.484 504.212> 485 75<250.515 329.484> 720 160<120 510.115>
LayerCount: 2
Fore
SplineSet
40 810 m 1
 200 810 l 1
 200 810 240 713 240 600 c 2
 240 120 l 1
 720 120 l 1
 720 390 l 2
 720 444 720 500 690 515 c 1
 620 400 l 1
 515 400 l 1
 515 468 488 515 450 515 c 0
 412 515 391 481 390 399 c 1
 405 406 422 410 440 410 c 0
 506 410 560 356 560 290 c 0
 560 224 506 170 440 170 c 0
 339 170 270 277 270 395 c 0
 270 513 339 620 450 620 c 0
 515 620 563 584 591 531 c 1
 635 620 l 1
 690 620 l 1
 799 603 880 538 880 390 c 2
 880 90 l 2
 880 40 835 0 780 0 c 2
 180 0 l 2
 125 0 80 40 80 90 c 2
 80 600 l 2
 80 706 40 810 40 810 c 1
440 335 m 0
 415 335 395 315 395 290 c 0
 395 265 415 245 440 245 c 0
 465 245 485 265 485 290 c 0
 485 315 465 335 440 335 c 0
EndSplineSet
EndChar

StartChar: uni0E54
Encoding: 244 3668 85
Width: 910
VWidth: 0
Flags: W
HStem: 0 120<293.274 486 586.792 790> 330 80<495.857 582.908> 480 120<293.274 640.251> 790 20G<729.5 890>
VStem: 50 160<200.287 399.713> 405 85<237.36 323.219> 590 80<236.611 322.908> 730 160<697.438 810>
LayerCount: 2
Fore
SplineSet
540 330 m 4
 512 330 490 308 490 280 c 4
 490 252 512 230 540 230 c 4
 568 230 590 252 590 280 c 4
 590 308 568 330 540 330 c 4
540 410 m 4
 612 410 670 352 670 280 c 4
 670 220 630 170 575 155 c 5
 594 139 615 127 634 120 c 5
 790 120 l 5
 790 0 l 5
 390 0 l 6
 167 0 50 127 50 300 c 4
 50 473 167 600 390 600 c 6
 550 600 l 6
 681 600 729 712 730 810 c 5
 890 810 l 5
 890 630 781 480 550 480 c 6
 390 480 l 6
 279 480 210 407 210 300 c 4
 210 193 279 120 390 120 c 6
 486 120 l 5
 459 141 405 193 405 275 c 4
 405 352 463 410 540 410 c 4
EndSplineSet
EndChar

StartChar: uni0E55
Encoding: 245 3669 86
Width: 910
VWidth: 0
Flags: W
HStem: 0 120<293.274 486 586.792 790> 330 80<495.857 582.908> 480 140<435.957 524.043> 480 120<291.517 371> 720 80<437.092 522.908> 790 20G<729.5 890>
VStem: 50 160<200.287 398.4> 350 80<626.089 712.908> 405 85<237.36 323.219> 530 80<626.147 712.908> 590 80<236.611 322.908> 730 160<697.438 810>
LayerCount: 2
Fore
SplineSet
480 720 m 0xeb50
 452 720 430 698 430 670 c 0
 430 642 452 620 480 620 c 0
 508 620 530 642 530 670 c 0
 530 698 508 720 480 720 c 0xeb50
480 800 m 0
 552 800 610 742 610 670 c 0xdb50
 610 646 604 624 592 604 c 1
 691 626 729 723 730 810 c 1
 890 810 l 1
 890 630 781 480 550 480 c 2
 390 480 l 2
 279 480 210 407 210 300 c 0
 210 193 279 120 390 120 c 2
 486 120 l 1
 459 141 405 193 405 275 c 0
 405 352 463 410 540 410 c 0
 612 410 670 352 670 280 c 0
 670 220 630 170 575 155 c 1
 594 139 615 127 634 120 c 1
 790 120 l 1
 790 0 l 1
 390 0 l 2
 167 0 50 127 50 300 c 0
 50 468 160 593 371 600 c 1xd6b0
 358 620 350 644 350 670 c 0
 350 742 408 800 480 800 c 0
540 330 m 0
 512 330 490 308 490 280 c 0
 490 252 512 230 540 230 c 0
 568 230 590 252 590 280 c 0xc2b0
 590 308 568 330 540 330 c 0
EndSplineSet
EndChar

StartChar: uni0E56
Encoding: 246 3670 87
Width: 800
VWidth: 0
Flags: W
HStem: -20 120<310.655 512.072> 330 80<196.631 282.908> 480 120<238.668 511.731> 790 20G<30 190.5>
VStem: 30 160<651.786 810> 105 85<236.138 323.295> 290 80<236.822 322.908> 590 160<180.632 399.368>
LayerCount: 2
Fore
SplineSet
240 330 m 0xf7
 212 330 190 308 190 280 c 0
 190 252 212 230 240 230 c 0
 268 230 290 252 290 280 c 0
 290 308 268 330 240 330 c 0xf7
240 410 m 0
 312 410 370 352 370 280 c 0
 370 221 330 170 276 155 c 1
 308 115 360 100 420 100 c 0
 548 100 590 203 590 290 c 0
 590 377 548 480 420 480 c 2
 320 480 l 2
 109 480 30 593 30 810 c 1
 190 810 l 1xfb
 191 684 205 600 320 600 c 2
 420 600 l 2
 630 600 750 486 750 290 c 0
 750 94 630 -20 420 -20 c 0
 207 -20 105 123 105 280 c 0
 105 354 167 410 240 410 c 0
EndSplineSet
EndChar

StartChar: uni0E57
Encoding: 247 3671 88
Width: 1050
VWidth: 0
Flags: W
HStem: -20 85<272.698 367.683> 185 85<271.219 367.683> 500 120<254.447 345.723> 580 20G<850 990>
VStem: 50 160<225.118 436.631> 380 85<77.3168 172.683> 630 140<122 483.531> 850 140<156.187 600>
LayerCount: 2
Fore
SplineSet
300 500 m 0xef
 252 500 210 428 210 300 c 0
 210 273 211 247 214 224 c 1
 240 252 278 270 320 270 c 0
 400 270 465 205 465 125 c 0
 465 45 400 -20 320 -20 c 0
 151 -20 50 115 50 300 c 0
 50 485 180 620 300 620 c 0
 376 620 436 571 470 493 c 1
 530 620 l 1
 590 620 l 1xef
 725 590 770 505 770 360 c 2
 770 122 l 1
 823 137 850 170 850 240 c 2
 850 600 l 1
 990 600 l 1xdf
 990 240 l 2
 990 38 861 -10 630 -10 c 1
 630 110 l 1
 630 360 l 2
 630 410 620 476 590 500 c 1
 500 330 l 1
 380 330 l 1
 380 457 339 500 300 500 c 0xef
320 185 m 0
 287 185 260 158 260 125 c 0
 260 92 287 65 320 65 c 0
 353 65 380 92 380 125 c 0
 380 158 353 185 320 185 c 0
EndSplineSet
EndChar

StartChar: uni0E58
Encoding: 248 3672 89
Width: 910
VWidth: 0
Flags: W
HStem: -20 105<596.541 716.306> 150 80<678.227 728.951> 330 80<677.092 763.335> 480 120<292.599 653.4> 790 20G<729.5 890>
VStem: 50 160<191.037 394.875> 590 80<237.092 322.908> 730 160<689.926 810> 770 90<235.957 322.059>
LayerCount: 2
Fore
SplineSet
720 330 m 0xfe80
 692 330 670 308 670 280 c 0
 670 252 692 230 720 230 c 0
 748 230 770 252 770 280 c 0
 770 308 748 330 720 330 c 0xfe80
720 410 m 0
 800 410 860 339 860 265 c 2
 860 200 l 2xfe80
 860 76 781 -20 655 -20 c 0
 563 -20 487 31 445 116 c 1
 370 -10 l 1
 171 -10 50 127 50 300 c 0
 50 473 190 600 390 600 c 2
 560 600 l 2
 691 600 729 712 730 810 c 1
 890 810 l 1
 890 630 775 480 560 480 c 2
 390 480 l 2
 272 480 210 393 210 300 c 0
 210 225 239 148 311 120 c 1
 410 280 l 1
 490 280 l 1
 530 280 l 5
 530 155 599 85 655 85 c 0
 704 85 727 111 730 150 c 1xff
 726 150 723 150 720 150 c 0
 648 150 590 208 590 280 c 0
 590 352 648 410 720 410 c 0
EndSplineSet
EndChar

StartChar: uni0E59
Encoding: 249 3673 90
Width: 960
VWidth: 0
Flags: W
HStem: -20 85<272.698 367.683> 0 21G<556.429 705> 185 85<271.219 367.683> 500 120<254.447 351.121> 790 20G<800 940>
VStem: 50 160<225.118 436.631> 380 85<77.3168 172.683> 800 140<425.384 810>
LayerCount: 2
Fore
SplineSet
800 540 m 2xbf
 800 810 l 1
 940 810 l 1
 940 540 l 2
 940 353 864 270 650 270 c 1
 650 300 l 1
 650 380 l 2
 650 449 625 488 590 500 c 1
 533 401 l 1
 705 0 l 1
 565 0 l 1x7f
 385 420 l 2
 367 461 341 500 300 500 c 0
 252 500 210 428 210 300 c 0
 210 273 211 247 214 224 c 1
 240 252 278 270 320 270 c 0
 400 270 465 205 465 125 c 0
 465 45 400 -20 320 -20 c 0
 151 -20 50 115 50 300 c 0
 50 485 180 620 300 620 c 0
 374 620 435 584 478 521 c 1
 535 620 l 1
 590 620 l 1
 685 598 758 531 776 423 c 1
 794 448 800 487 800 540 c 2xbf
320 185 m 0
 287 185 260 158 260 125 c 0
 260 92 287 65 320 65 c 0xbf
 353 65 380 92 380 125 c 0
 380 158 353 185 320 185 c 0
EndSplineSet
EndChar

StartChar: uni0E4A
Encoding: 234 3658 91
Width: 0
VWidth: 0
Flags: W
HStem: 1026 50<-349.203 -300.812> 1030 60<-200 -184.207> 1126 50<-336.814 -301.614> 1210 66<-333.874 -278.285>
VStem: -420 70<1076.52 1175.44> -300 50<1076.12 1125.18> -180 80<1129.88 1208.81> -86 116<1130.29 1256>
LayerCount: 2
Fore
SplineSet
-326 1126 m 4xbf
 -339 1126 -350 1114 -350 1100 c 4
 -350 1087 -339 1076 -326 1076 c 4
 -312 1076 -300 1087 -300 1100 c 4
 -300 1114 -312 1126 -326 1126 c 4xbf
-200 1210 m 5
 -226 1176 l 5
 -276 1176 l 5
 -278 1188 -286 1210 -306 1210 c 4
 -322 1210 -332 1193 -337 1175 c 5
 -333 1175 -329 1176 -326 1176 c 4
 -284 1176 -250 1142 -250 1100 c 4
 -250 1059 -284 1026 -326 1026 c 4xbf
 -390 1026 -420 1090 -420 1150 c 4
 -420 1211 -371 1276 -316 1276 c 4
 -277 1276 -254 1253 -241 1233 c 5
 -216 1276 l 5
 -200 1276 l 6
 -145 1276 -100 1216 -100 1156 c 4
 -100 1147 -101 1138 -103 1129 c 5
 -92 1145 -86 1181 -86 1256 c 5
 30 1256 l 5
 30 1112 -28 1030 -200 1030 c 5
 -200 1090 l 5x7f
 -187 1090 -180 1116 -180 1156 c 4
 -180 1181 -188 1205 -200 1210 c 5
EndSplineSet
Validated: 1
Substitution2: "Thai Tone & Vowel Above-Narrow" uni0E4A.narrow
Position2: "Nikhahit & Tone High-Left" dx=-190 dy=0 dh=0 dv=0 [ddx={} ddy={} ddh={} ddv={}]
Position2: "Mai Han-Akat & Tone High-Left" dx=-260 dy=0 dh=0 dv=0 [ddx={} ddy={} ddh={} ddv={}]
Position2: "Tone High-Left" dx=-180 dy=0 dh=0 dv=0 [ddx={} ddy={} ddh={} ddv={}]
MultipleSubs2: "Tone High-Low" uni0E4A.low
EndChar

StartChar: uni0E3F
Encoding: 223 3647 92
Width: 770
VWidth: 0
Flags: W
HStem: -150 190<320 440> 0 120<230 528.14> 355 120<230 494.811> 680 120<230 490.966> 760 190<320 440>
VStem: 70 160<120 355 475 680> 320 120<-150 40 760 950> 530 160<509.954 645.878> 570 160<157.986 310.459>
LayerCount: 2
Fore
SplineSet
320 40 m 1xa6
 440 40 l 1
 440 -150 l 1
 320 -150 l 1
 320 40 l 1xa6
320 950 m 1x2e
 440 950 l 1
 440 760 l 1
 320 760 l 1
 320 950 l 1x2e
EndSplineSet
Refer: 102 66 N 1 0 0 1 0 0 2
EndChar

StartChar: uni0E11
Encoding: 177 3601 93
Width: 770
VWidth: 0
Flags: W
HStem: 0 21G<220 390 550 710> 300 55<100.47 179.708> 445 55<122.352 179.708> 460 150<491.061 595.339> 535 75<127.905 200.077>
VStem: 30 65<360.419 474.294> 185 55<360.292 439.708> 220 170<0 290.581> 550 160<0 456.216>
LayerCount: 2
Fore
SplineSet
275 485 m 1xe580
 210 485 l 1
 203 509 189 535 165 535 c 0
 144 535 130 521 122 498 c 1
 128 499 134 500 140 500 c 0
 195 500 240 455 240 400 c 0
 240 345 195 300 140 300 c 0
 71 300 30 362 30 440 c 0
 30 508 72 610 160 610 c 0
 197 610 227 588 247 561 c 1
 271 610 l 1
 314 610 l 1xee80
 356 597 405 563 427 509 c 1
 461 565 506 610 565 610 c 4
 643 610 710 562 710 410 c 2
 710 0 l 1
 550 0 l 1
 550 410 l 2
 550 437 545 460 515 460 c 0xd680
 456 460 415 315 390 219 c 1
 390 0 l 1
 220 0 l 1
 220 160 l 1
 220 200 l 2
 220 313 330 364 330 445 c 0
 330 482 325 506 303 530 c 1
 275 485 l 1xe580
140 445 m 0
 115 445 95 425 95 400 c 0
 95 375 115 355 140 355 c 0
 165 355 185 375 185 400 c 0
 185 425 165 445 140 445 c 0
EndSplineSet
EndChar

StartChar: uni0E12
Encoding: 178 3602 94
Width: 930
VWidth: 0
Flags: W
HStem: -20 75<474.489 565.566> 355 45<292.158 367.842> 600 0G<205.5 264.231 395.769 454.5 710 870>
VStem: 50 150<200.228 483.366> 80 149<128.712 332.925> 240 45<271.641 347.842> 375 45<271.504 347.842> 390 75<64.4892 156.461> 460 150<208.095 482.853> 710 160<148 600>
LayerCount: 2
Fore
SplineSet
520 165 m 0xe540
 490 165 465 140 465 110 c 0
 465 80 490 55 520 55 c 0
 550 55 575 80 575 110 c 0
 575 140 550 165 520 165 c 0xe540
330 355 m 0
 305 355 285 335 285 310 c 0
 285 285 305 265 330 265 c 0
 355 265 375 285 375 310 c 0xe640
 375 335 355 355 330 355 c 0
235 620 m 1
 330 555 l 1
 425 620 l 1
 484 620 610 554 610 410 c 2
 610 217 l 1xf4c0
 651 201 684 176 710 148 c 1
 710 600 l 1
 870 600 l 1
 870 60 l 2
 870 15 807 -10 710 -10 c 1
 710 -10 701 46 648 86 c 1
 636 26 583 -20 520 -20 c 0
 448 -20 390 38 390 110 c 0xe540
 390 160 418 204 460 225 c 1
 460 410 l 2
 460 477 415 500 415 500 c 1
 330 445 l 1
 245 500 l 1
 245 500 200 477 200 410 c 0xf4c0
 200 290 225 220 229 127 c 1
 261 156 295 184 319 221 c 1
 274 226 240 264 240 310 c 0
 240 360 280 400 330 400 c 0
 380 400 420 360 420 310 c 0
 420 169 250 74 250 -10 c 1
 250 -10 61 -6 60 30 c 1
 60 30 80 79 80 140 c 0xee40
 80 242 50 275 50 410 c 0xf440
 50 554 176 620 235 620 c 1
EndSplineSet
EndChar

StartChar: uni0E0C
Encoding: 172 3596 95
Width: 930
VWidth: 0
Flags: W
HStem: -20 75<474.489 565.566> -10 80<184.668 265.332> 390 20<296.974 320> 500 120<242.711 416.996> 580 20G<710 870>
VStem: 100 160<224.463 367.476> 100 80<74.9226 155.588> 270 80<74.6675 155.638> 390 75<64.4892 155.573> 450 160<206.258 465.354> 710 160<148 600>
LayerCount: 2
Fore
SplineSet
340 620 m 0x7520
 491 620 610 536 610 400 c 2
 610 217 l 1
 651 201 684 176 710 148 c 1
 710 600 l 1
 870 600 l 1
 870 60 l 2
 870 15 807 -10 710 -10 c 1x6d60
 710 -10 701 46 648 86 c 1
 636 26 583 -20 520 -20 c 0
 448 -20 390 38 390 110 c 0xa1a0
 390 156 414 196 450 220 c 1
 450 400 l 2
 450 473 395 500 340 500 c 0
 277 500 227 476 203 436 c 1
 320 410 l 1
 320 390 l 1
 320 390 260 387 260 280 c 2
 260 235 l 1xb560
 312 220 350 172 350 115 c 0
 350 46 294 -10 225 -10 c 0
 156 -10 100 46 100 115 c 2x7320
 100 280 l 2
 100 350 131 379 154 391 c 1
 50 420 l 1
 70 493 152 620 340 620 c 0x7520
520 165 m 0
 490 165 465 140 465 110 c 0
 465 80 490 55 520 55 c 0xa1a0
 550 55 575 80 575 110 c 0
 575 140 550 165 520 165 c 0
225 160 m 0
 200 160 180 140 180 115 c 0
 180 90 200 70 225 70 c 0x6320
 250 70 270 90 270 115 c 0
 270 140 250 160 225 160 c 0
EndSplineSet
EndChar

StartChar: uni0E09
Encoding: 169 3593 96
Width: 660
VWidth: 0
Flags: W
HStem: -20 85<433.822 525.51> 305 75<120.515 199.485> 500 120<236.915 403.085>
VStem: 40 75<219.934 299.484> 205 75<219.412 298.381> 430 160<252.973 471.499> 535 85<74.4899 165.709>
LayerCount: 2
Fore
SplineSet
160 305 m 0xf8
 135 305 115 285 115 260 c 0
 115 235 135 215 160 215 c 0
 185 215 205 235 205 260 c 0
 205 285 185 305 160 305 c 0xf8
480 175 m 0
 450 175 425 150 425 120 c 0
 425 90 450 65 480 65 c 0
 510 65 535 90 535 120 c 0xfa
 535 150 510 175 480 175 c 0
120 147 m 1
 73 163 40 208 40 260 c 0
 40 326 94 380 160 380 c 0
 226 380 280 326 280 260 c 2
 280 134 l 1
 314 188 365 242 430 262 c 1
 430 420 l 2
 430 471 384 500 320 500 c 0
 256 500 210 471 210 420 c 1
 50 420 l 1
 50 535 153 620 320 620 c 0
 487 620 590 535 590 420 c 2
 590 250 l 1xfc
 558 236 l 1
 596 211 620 168 620 120 c 0
 620 43 557 -20 480 -20 c 0
 411 -20 354 30 342 95 c 1
 306 45 290 -10 290 -10 c 1
 194 -10 120 15 120 60 c 2
 120 147 l 1
EndSplineSet
EndChar

StartChar: uni0E0A.alt
Encoding: 265 3681 97
Width: 680
VWidth: 0
Flags: W
HStem: -20 120<329.229 430.771> 335 55<94.4233 174.708> 530 80<180.137 266.83> 540 120<530.47 660>
VStem: 30 60<394.469 474.935> 160 160<110.692 277.824> 180 55<395.292 475.415> 440 160<110.692 397.527>
LayerCount: 2
Fore
SplineSet
135 480 m 0xcb
 110 480 90 460 90 435 c 0
 90 410 110 390 135 390 c 0
 160 390 180 410 180 435 c 0
 180 460 160 480 135 480 c 0xcb
382 509 m 1
 429 589 526 660 660 660 c 1
 660 540 l 1
 532 540 475 499 453 469 c 1
 512 444 600 399 600 360 c 2
 600 160 l 2
 600 92 568 -20 380 -20 c 0
 192 -20 160 92 160 160 c 2
 160 200 l 2xdd
 160 311 285 340 285 450 c 0
 285 491 259 530 210 530 c 0
 200 530 189 528 178 525 c 1
 212 509 235 475 235 435 c 0
 235 380 190 335 135 335 c 0
 72 335 30 385 30 450 c 0
 30 538 107 610 210 610 c 0xeb
 297 610 357 564 382 509 c 1
393 415 m 1
 380 325 320 307 320 200 c 2
 320 160 l 2
 320 120 341 100 380 100 c 0
 419 100 440 120 440 160 c 2
 440 360 l 2
 440 379 416 399 393 415 c 1
EndSplineSet
EndChar

StartChar: uni0E0B.alt
Encoding: 266 3682 98
Width: 710
VWidth: 0
Flags: W
HStem: -20 120<359.229 460.771> 300 55<100.47 179.708> 445 55<122.352 179.708> 535 75<127.905 200.077> 540 120<557.767 690>
VStem: 30 65<360.419 474.294> 185 55<360.292 439.708> 190 160<110.692 278.648> 470 160<110.692 397.527>
LayerCount: 2
Fore
SplineSet
275 485 m 1xed80
 210 485 l 1
 203 509 189 535 165 535 c 0
 144 535 130 521 122 498 c 1
 128 499 134 500 140 500 c 0
 195 500 240 455 240 400 c 0
 240 345 195 300 140 300 c 0
 71 300 30 362 30 440 c 0
 30 508 72 610 160 610 c 0
 197 610 227 588 247 561 c 1
 271 610 l 1
 314 610 l 1xf680
 352 599 396 569 421 523 c 1
 470 598 564 660 690 660 c 1
 690 540 l 1
 562 540 505 499 483 469 c 1
 542 444 630 399 630 360 c 2
 630 160 l 2
 630 92 598 -20 410 -20 c 0
 222 -20 190 92 190 160 c 2
 190 200 l 2
 190 313 330 364 330 445 c 0
 330 482 325 506 303 530 c 1
 275 485 l 1xed80
140 445 m 0
 115 445 95 425 95 400 c 0
 95 375 115 355 140 355 c 0
 165 355 185 375 185 400 c 0
 185 425 165 445 140 445 c 0
436 405 m 1
 419 320 350 297 350 200 c 2
 350 160 l 2xe580
 350 120 371 100 410 100 c 0
 449 100 470 120 470 160 c 2
 470 360 l 2
 470 375 454 391 436 405 c 1
EndSplineSet
EndChar

StartChar: uni0E28.alt
Encoding: 267 3683 99
Width: 690
VWidth: 0
Flags: W
HStem: 0 21G<460 610> 220 45<291.555 367.842> 355 45<292.021 367.842> 500 120<242.353 418.588> 540 120<572.531 670>
VStem: 50 150<295.408 458.511> 60 180<17.9453 137.15> 80 160<3.90926 252.113> 375 45<272.158 347.842> 460 150<0 459.008>
LayerCount: 2
Fore
SplineSet
330 400 m 0xf4c0
 380 400 420 360 420 310 c 0
 420 260 380 220 330 220 c 0
 302 220 276 233 260 254 c 1
 244 214 240 157 240 100 c 2xf2c0
 240 -10 l 1xf1c0
 240 -10 61 -6 60 30 c 1xf2c0
 60 30 80 79 80 140 c 0xf1c0
 80 242 50 255 50 390 c 0
 50 516 147 620 330 620 c 0xf4c0
 399 620 455 605 499 580 c 1
 527 621 581 660 670 660 c 1
 670 540 l 1xecc0
 627 540 595 531 571 516 c 1
 597 480 610 436 610 390 c 2
 610 0 l 1
 460 0 l 1
 460 390 l 2
 460 463 399 500 330 500 c 0
 261 500 200 463 200 390 c 0
 200 352 203 321 208 293 c 1
 229 353 268 400 330 400 c 0xf4c0
330 355 m 0
 305 355 285 335 285 310 c 0
 285 285 305 265 330 265 c 0
 355 265 375 285 375 310 c 0
 375 335 355 355 330 355 c 0
EndSplineSet
EndChar

StartChar: uni0E2A.alt
Encoding: 268 3684 100
Width: 670
VWidth: 0
Flags: W
HStem: -20 75<159.774 239.485> 145 75<167.444 239.485> 275 100<195.553 367.362> 500 120<226.856 403.826> 540 120<560.199 650>
VStem: 40 115<62.2965 207.379> 245 75<60.5155 139.485> 420 170<17.9453 228.612> 430 160<295 473>
LayerCount: 2
Fore
SplineSet
200 220 m 0xef
 266 220 320 166 320 100 c 0
 320 34 266 -20 200 -20 c 0
 112 -20 40 49 40 180 c 0
 40 279 117 375 260 375 c 0
 339 375 395 342 430 295 c 1
 430 420 l 2
 430 471 379 500 315 500 c 0
 251 500 200 471 200 420 c 1
 40 420 l 1
 40 535 148 620 315 620 c 0xf680
 381 620 437 607 482 584 c 1
 510 623 563 660 650 660 c 1
 650 540 l 1
 611 540 581 532 558 520 c 1
 579 491 590 457 590 420 c 2xee80
 590 30 l 2
 590 -6 420 -10 420 -10 c 1
 420 170 l 2
 420 223 361 275 280 275 c 0
 219 275 182 249 167 215 c 1
 178 218 189 220 200 220 c 0xef
200 145 m 0
 175 145 155 125 155 100 c 0
 155 75 175 55 200 55 c 0
 225 55 245 75 245 100 c 0
 245 125 225 145 200 145 c 0
EndSplineSet
EndChar

StartChar: uni0E2E.alt
Encoding: 269 3686 101
Width: 670
VWidth: 0
Flags: W
HStem: -20 110<227.898 405.47> 305 75<140.515 219.485> 500 120<226.856 403.826> 540 120<560.199 650>
VStem: 60 75<219.412 298.381> 225 75<220.097 299.484> 430 160<117.412 473>
LayerCount: 2
Fore
SplineSet
180 380 m 0xde
 246 380 300 326 300 260 c 0
 300 205 263 159 213 144 c 1
 224 96 270 90 325 90 c 0
 388 90 430 119 430 170 c 2
 430 420 l 2
 430 471 379 500 315 500 c 0
 251 500 200 471 200 420 c 1
 40 420 l 1
 40 535 148 620 315 620 c 0xee
 381 620 437 607 482 584 c 1
 510 623 563 660 650 660 c 1
 650 540 l 1
 611 540 581 532 558 520 c 1
 579 491 590 457 590 420 c 2
 590 170 l 2
 590 34 470 -20 325 -20 c 0
 180 -20 60 34 60 170 c 2
 60 260 l 2
 60 326 114 380 180 380 c 0xde
180 305 m 0
 155 305 135 285 135 260 c 0
 135 235 155 215 180 215 c 0
 205 215 225 235 225 260 c 0
 225 285 205 305 180 305 c 0
EndSplineSet
EndChar

StartChar: B
Encoding: 66 66 102
Width: 770
VWidth: 0
Flags: W
HStem: 0 120<230 528.14> 355 120<230 494.811> 680 120<230 490.966>
VStem: 70 160<120 355 475 680> 530 160<509.954 645.878> 570 160<157.986 310.459>
AnchorPoint: "cedilla" 360 40 basechar 0
AnchorPoint: "ogonek" 360 40 basechar 0
AnchorPoint: "diac_bottom" 360 -50 basechar 0
AnchorPoint: "diac_top" 360 850 basechar 0
LayerCount: 2
Fore
SplineSet
420 120 m 6xf4
 495 120 570 136 570 230 c 4
 570 319 510 355 410 355 c 6
 230 355 l 5
 230 120 l 5
 420 120 l 6xf4
480 0 m 6
 70 0 l 5
 70 800 l 5
 430 800 l 6
 631 800 690 688 690 580 c 4xf8
 690 524 664 467 614 424 c 5
 685 381 730 313 730 230 c 4
 730 83 633 0 480 0 c 6
380 680 m 6
 230 680 l 5
 230 475 l 5
 410 475 l 6
 493 475 530 524 530 580 c 4
 530 642 490 680 380 680 c 6
EndSplineSet
EndChar

StartChar: period
Encoding: 46 46 103
Width: 320
VWidth: 0
Flags: W
HStem: 0 200<92.4561 227.544>
VStem: 60 200<32.4561 167.544>
LayerCount: 2
Fore
SplineSet
260 100 m 4
 260 44 216 0 160 0 c 4
 104 0 60 44 60 100 c 4
 60 156 104 200 160 200 c 4
 216 200 260 156 260 100 c 4
EndSplineSet
Validated: 1
EndChar

StartChar: x
Encoding: 120 120 104
Width: 650
VWidth: 0
Flags: W
HStem: 0 21G<0 194.5 455.5 650> 580 20G<30 222.778 427.222 620>
AnchorPoint: "ring_above" 325 680 basechar 0
AnchorPoint: "cedilla" 540 40 basechar 0
AnchorPoint: "diac_top" 330 650 basechar 0
AnchorPoint: "diac_bottom" 330 -50 basechar 0
LayerCount: 2
Fore
SplineSet
30 600 m 1
 210 600 l 1
 325 420 l 1
 440 600 l 1
 620 600 l 1
 420 310 l 5
 650 0 l 1
 470 0 l 1
 325 200 l 1
 180 0 l 1
 0 0 l 1
 230 310 l 1
 30 600 l 1
EndSplineSet
EndChar

StartChar: i
Encoding: 105 105 105
Width: 320
VWidth: 0
Flags: W
HStem: 0 21<80 240> 580 20<80 240> 680 200<92.4561 227.544>
VStem: 60 200<712.456 847.544> 80 160<0 600>
AnchorPoint: "hook_above" 160 920 basechar 0
AnchorPoint: "diac_bottom" 160 -50 basechar 0
AnchorPoint: "ogonek" 160 40 basechar 0
AnchorPoint: "cedilla" 160 40 basechar 0
LayerCount: 2
Fore
SplineSet
260 780 m 0xf0
 260 724 216 680 160 680 c 0
 104 680 60 724 60 780 c 0
 60 836 104 880 160 880 c 0
 216 880 260 836 260 780 c 0xf0
EndSplineSet
Refer: 235 305 N 1 0 0 1 0 0 2
EndChar

StartChar: o
Encoding: 111 111 106
Width: 680
VWidth: 0
Flags: W
HStem: -20 120<253.552 426.448> 500 120<255.502 424.498>
VStem: 50 160<144.041 452.567> 470 160<144.041 452.567>
AnchorPoint: "hook_above" 350 680 basechar 0
AnchorPoint: "ogonek" 340 40 basechar 0
AnchorPoint: "cedilla" 340 40 basechar 0
AnchorPoint: "diac_bottom" 340 -50 basechar 0
AnchorPoint: "diac_top" 340 650 basechar 0
LayerCount: 2
Fore
SplineSet
340 620 m 4
 514 620 630 508 630 350 c 6
 630 230 l 6
 630 77 514 -20 340 -20 c 4
 166 -20 50 77 50 230 c 6
 50 350 l 6
 50 508 166 620 340 620 c 4
340 500 m 4
 275 500 210 469 210 350 c 6
 210 230 l 6
 210 131 271 100 340 100 c 4
 409 100 470 131 470 230 c 6
 470 350 l 6
 470 469 405 500 340 500 c 4
EndSplineSet
EndChar

StartChar: O
Encoding: 79 79 107
Width: 820
VWidth: 0
Flags: W
HStem: -20 120<305.796 514.204> 700 120<307.729 512.271>
VStem: 60 160<184.731 611.28> 600 160<184.731 611.667>
AnchorPoint: "hook_above" 410 850 basechar 0
AnchorPoint: "ring_above" 410 760 basechar 0
AnchorPoint: "ogonek" 410 40 basechar 0
AnchorPoint: "cedilla" 410 40 basechar 0
AnchorPoint: "diac_bottom" 410 -50 basechar 0
AnchorPoint: "diac_top" 410 850 basechar 0
LayerCount: 2
Fore
SplineSet
760 510 m 2
 760 280 l 2
 760 98 617 -20 410 -20 c 0
 203 -20 60 98 60 280 c 2
 60 510 l 2
 60 686 203 820 410 820 c 0
 617 820 760 687 760 510 c 2
600 510 m 2
 600 629 527 700 410 700 c 0
 293 700 220 629 220 510 c 2
 220 280 l 2
 220 170 293 100 410 100 c 0
 527 100 600 170 600 280 c 2
 600 510 l 2
EndSplineSet
EndChar

StartChar: I
Encoding: 73 73 108
Width: 320
VWidth: 0
Flags: W
HStem: 0 21G<80 240> 780 20G<80 240>
VStem: 80 160<0 800>
AnchorPoint: "hook_above" 160 850 basechar 0
AnchorPoint: "ogonek" 160 40 basechar 0
AnchorPoint: "cedilla" 160 40 basechar 0
AnchorPoint: "diac_bottom" 160 -50 basechar 0
AnchorPoint: "diac_top" 160 850 basechar 0
LayerCount: 2
Fore
SplineSet
80 800 m 1
 240 800 l 1
 240 0 l 1
 80 0 l 1
 80 800 l 1
EndSplineSet
EndChar

StartChar: X
Encoding: 88 88 109
Width: 770
VWidth: 0
Flags: W
HStem: 0 21G<-10 193.667 576.333 780> 780 20G<30 232.692 537.308 740>
AnchorPoint: "ring_above" 385 760 basechar 0
AnchorPoint: "cedilla" 650 40 basechar 0
AnchorPoint: "diac_bottom" 385 -50 basechar 0
AnchorPoint: "diac_top" 385 850 basechar 0
LayerCount: 2
Fore
SplineSet
30 800 m 1
 220 800 l 1
 385 540 l 1
 550 800 l 1
 740 800 l 1
 480 420 l 5
 780 0 l 1
 590 0 l 1
 385 300 l 1
 180 0 l 1
 -10 0 l 1
 290 420 l 1
 30 800 l 1
EndSplineSet
EndChar

StartChar: H
Encoding: 72 72 110
Width: 800
VWidth: 0
Flags: W
HStem: 0 21G<70 230 570 730> 340 120<230 570> 780 20G<70 230 570 730>
VStem: 70 160<0 340 460 800> 570 160<0 340 460 800>
AnchorPoint: "cedilla" 640 40 basechar 0
AnchorPoint: "diac_bottom" 400 -50 basechar 0
AnchorPoint: "diac_top" 400 850 basechar 0
LayerCount: 2
Fore
SplineSet
730 0 m 1
 570 0 l 1
 570 340 l 1
 230 340 l 1
 230 0 l 1
 70 0 l 1
 70 340 l 1
 70 460 l 1
 70 800 l 1
 230 800 l 1
 230 460 l 1
 570 460 l 1
 570 800 l 1
 730 800 l 1
 730 460 l 1
 730 340 l 1
 730 0 l 1
EndSplineSet
EndChar

StartChar: P
Encoding: 80 80 111
Width: 740
VWidth: 0
Flags: W
HStem: 0 21G<70 230> 300 120<230 493.103> 680 120<230 493.103>
VStem: 70 160<0 300 420 680> 550 160<469.182 630.818>
AnchorPoint: "diac_top" 330 850 basechar 0
LayerCount: 2
Fore
SplineSet
440 300 m 2
 230 300 l 1
 230 0 l 1
 70 0 l 1
 70 800 l 1
 440 800 l 2
 641 800 710 658 710 550 c 0
 710 442 641 300 440 300 c 2
390 420 m 2
 513 420 550 479 550 550 c 0
 550 621 513 680 390 680 c 2
 230 680 l 1
 230 420 l 1
 390 420 l 2
EndSplineSet
EndChar

StartChar: p
Encoding: 112 112 112
Width: 690
VWidth: 0
Flags: W
HStem: -20 120<268.287 437.756> 500 120<282.838 444.432> 580 20G<70 230>
VStem: 70 160<-270 30 123.51 472.586 557 600> 490 160<157.287 452.764>
LayerCount: 2
Fore
SplineSet
230 447 m 1xd8
 230 142 l 1
 258 116 298 100 350 100 c 0
 452 100 490 165 490 260 c 2
 490 360 l 2
 490 443 452 500 350 500 c 0
 290 500 252 477 230 447 c 1xd8
230 557 m 1
 271 595 326 620 400 620 c 0xd8
 539 620 650 512 650 360 c 2
 650 260 l 2
 650 72 536 -20 380 -20 c 0
 320 -20 270 0 230 30 c 1
 230 -270 l 5
 70 -270 l 5
 70 600 l 1
 230 600 l 1xb8
 230 557 l 1
EndSplineSet
Validated: 1
EndChar

StartChar: K
Encoding: 75 75 113
Width: 730
VWidth: 0
Flags: W
HStem: 0 21G<70 230 536.111 730> 360 120<230 283> 780 20G<70 230 495.812 680>
VStem: 70 160<0 360 480 800>
AnchorPoint: "diac_bottom" 370 -50 basechar 0
AnchorPoint: "diac_top" 370 850 basechar 0
LayerCount: 2
Fore
SplineSet
510 800 m 1
 680 800 l 1
 420 440 l 1
 730 0 l 1
 550 0 l 1
 300 360 l 1
 230 360 l 1
 230 0 l 1
 70 0 l 1
 70 800 l 1
 230 800 l 1
 230 480 l 1
 283 480 l 1
 510 800 l 1
EndSplineSet
EndChar

StartChar: j
Encoding: 106 106 114
Width: 340
VWidth: 0
Flags: W
HStem: -290 120<-30 72.2527> 580 20<100 260> 680 200<112.456 247.544>
VStem: 80 200<712.456 847.544> 100 160<-143.155 600>
AnchorPoint: "diac_bottom" 380 -50 basechar 0
LayerCount: 2
Fore
SplineSet
280 780 m 0xf0
 280 724 236 680 180 680 c 0
 124 680 80 724 80 780 c 0
 80 836 124 880 180 880 c 0
 236 880 280 836 280 780 c 0xf0
EndSplineSet
Refer: 236 567 N 1 0 0 1 0 0 2
EndChar

StartChar: D
Encoding: 68 68 115
Width: 780
VWidth: 0
Flags: W
HStem: 0 120<230 465.823> 680 120<230 460.883>
VStem: 70 160<120 680> 580 160<223.129 573.8>
AnchorPoint: "ogonek" 360 40 basechar 0
AnchorPoint: "cedilla" 360 40 basechar 0
AnchorPoint: "diac_bottom" 360 -50 basechar 0
AnchorPoint: "diac_top" 360 850 basechar 0
LayerCount: 2
Fore
SplineSet
310 800 m 2
 581 800 740 684 740 450 c 2
 740 330 l 2
 740 101 591 0 350 0 c 2
 70 0 l 1
 70 800 l 1
 310 800 l 2
310 680 m 2
 230 680 l 1
 230 120 l 1
 340 120 l 2
 459 120 580 173 580 330 c 2
 580 450 l 2
 580 609 501 680 310 680 c 2
EndSplineSet
EndChar

StartChar: E
Encoding: 69 69 116
Width: 670
VWidth: 0
Flags: W
HStem: 0 120<230 630> 340 120<230 590> 680 120<230 620>
VStem: 70 160<120 340 460 680>
CounterMasks: 1 e0
AnchorPoint: "hook_above" 350 850 basechar 0
AnchorPoint: "ring_above" 335 760 basechar 0
AnchorPoint: "cedilla" 340 40 basechar 0
AnchorPoint: "ogonek" 500 40 basechar 0
AnchorPoint: "diac_bottom" 350 -50 basechar 0
AnchorPoint: "diac_top" 350 850 basechar 0
LayerCount: 2
Fore
SplineSet
230 120 m 1
 630 120 l 1
 630 0 l 1
 230 0 l 1
 70 0 l 1
 70 120 l 1
 70 340 l 1
 70 460 l 1
 70 680 l 1
 70 800 l 1
 230 800 l 1
 620 800 l 1
 620 680 l 1
 230 680 l 1
 230 460 l 1
 590 460 l 1
 590 340 l 1
 230 340 l 1
 230 120 l 1
EndSplineSet
EndChar

StartChar: L
Encoding: 76 76 117
Width: 590
VWidth: 0
Flags: W
HStem: 0 120<230 580> 780 20G<70 230>
VStem: 70 160<120 800>
AnchorPoint: "diac_bottom" 350 -50 basechar 0
AnchorPoint: "diac_top" 150 850 basechar 0
LayerCount: 2
Fore
SplineSet
230 120 m 1
 580 120 l 1
 580 0 l 1
 200 0 l 1
 70 0 l 1
 70 120 l 1
 70 800 l 1
 230 800 l 1
 230 120 l 1
EndSplineSet
Validated: 1
EndChar

StartChar: F
Encoding: 70 70 118
Width: 650
VWidth: 0
Flags: W
HStem: 0 21G<70 230> 340 120<230 590> 680 120<230 620>
VStem: 70 160<0 340 460 680>
AnchorPoint: "diac_top" 350 850 basechar 0
LayerCount: 2
Fore
SplineSet
230 0 m 1
 70 0 l 1
 70 340 l 1
 70 460 l 1
 70 680 l 1
 70 800 l 1
 230 800 l 1
 620 800 l 1
 620 680 l 1
 230 680 l 1
 230 460 l 1
 590 460 l 1
 590 340 l 1
 230 340 l 1
 230 0 l 1
EndSplineSet
Validated: 1
EndChar

StartChar: J
Encoding: 74 74 119
Width: 540
VWidth: 0
Flags: W
HStem: -20 120<184.098 295.902> 780 20G<310 470>
VStem: 310 160<112.132 800>
AnchorPoint: "diac_bottom" 260 -50 basechar 0
AnchorPoint: "diac_top" 390 850 basechar 0
LayerCount: 2
Fore
SplineSet
240 -20 m 0
 90 -20 10 73 10 170 c 1
 170 170 l 1
 170 124 195 100 240 100 c 0
 285 100 310 124 310 170 c 2
 310 800 l 1
 470 800 l 1
 470 170 l 2
 470 73 390 -20 240 -20 c 0
EndSplineSet
Validated: 1
EndChar

StartChar: T
Encoding: 84 84 120
Width: 580
VWidth: 0
Flags: W
HStem: 0 21G<210 370> 680 120<30 210 370 550>
VStem: 210 160<0 680>
AnchorPoint: "cedilla" 280 40 basechar 0
AnchorPoint: "diac_bottom" 290 -50 basechar 0
AnchorPoint: "diac_top" 290 850 basechar 0
LayerCount: 2
Fore
SplineSet
30 680 m 1
 30 800 l 1
 240 800 l 1
 340 800 l 1
 550 800 l 1
 550 680 l 1
 370 680 l 1
 370 0 l 1
 210 0 l 1
 210 680 l 1
 30 680 l 1
EndSplineSet
EndChar

StartChar: N
Encoding: 78 78 121
Width: 800
VWidth: 0
Flags: W
HStem: 0 21G<70 230 557.857 730> 780 20G<70 242.143 570 730>
VStem: 70 160<0 560> 570 160<240 800>
AnchorPoint: "cedilla" 640 40 basechar 0
AnchorPoint: "diac_bottom" 400 -50 basechar 0
AnchorPoint: "diac_top" 410 850 basechar 0
LayerCount: 2
Fore
SplineSet
230 0 m 1
 70 0 l 1
 70 800 l 1
 230 800 l 1
 570 240 l 1
 570 800 l 1
 730 800 l 1
 730 0 l 1
 570 0 l 1
 230 560 l 1
 230 0 l 1
EndSplineSet
Validated: 1
EndChar

StartChar: M
Encoding: 77 77 122
Width: 960
VWidth: 0
Flags: W
HStem: 0 21G<70 230 403.651 556.349 730 890> 780 20G<70 286.349 673.651 890>
VStem: 70 160<0 567> 730 160<0 567>
AnchorPoint: "cedilla" 780 40 basechar 0
AnchorPoint: "diac_top" 480 850 basechar 0
LayerCount: 2
Fore
SplineSet
890 0 m 1
 730 0 l 1
 730 567 l 1
 550 0 l 1
 480 0 l 1
 410 0 l 1
 230 567 l 1
 230 0 l 1
 70 0 l 1
 70 800 l 1
 210 800 l 1
 230 800 l 1
 280 800 l 1
 480 170 l 1
 680 800 l 1
 730 800 l 1
 750 800 l 1
 890 800 l 1
 890 0 l 1
EndSplineSet
Validated: 1
EndChar

StartChar: U
Encoding: 85 85 123
Width: 800
VWidth: 0
Flags: W
HStem: -20 120<296.384 503.616> 780 20G<60 220 580 740>
VStem: 60 160<179.904 800> 580 160<179.904 800>
AnchorPoint: "hook_above" 400 850 basechar 0
AnchorPoint: "ring_above" 400 760 basechar 0
AnchorPoint: "ogonek" 400 40 basechar 0
AnchorPoint: "cedilla" 400 40 basechar 0
AnchorPoint: "diac_bottom" 400 -50 basechar 0
AnchorPoint: "diac_top" 400 850 basechar 0
LayerCount: 2
Fore
SplineSet
60 800 m 1
 220 800 l 1
 220 280 l 2
 220 141 317 100 400 100 c 0
 483 100 580 141 580 280 c 2
 580 800 l 1
 740 800 l 1
 740 280 l 2
 740 85 593 -20 400 -20 c 0
 207 -20 60 85 60 280 c 2
 60 800 l 1
EndSplineSet
EndChar

StartChar: b
Encoding: 98 98 124
Width: 690
VWidth: 0
Flags: W
HStem: -20 120<282.838 444.432> 0 21G<70 230> 500 120<268.287 437.756> 880 20G<70 230>
VStem: 70 160<0 43 127.414 476.49 570 900> 490 160<147.236 442.713>
AnchorPoint: "diac_bottom" 380 -50 basechar 0
AnchorPoint: "diac_top" 450 650 basechar 0
LayerCount: 2
Fore
SplineSet
230 153 m 1xbc
 252 123 290 100 350 100 c 0
 452 100 490 157 490 240 c 2
 490 340 l 2
 490 435 452 500 350 500 c 0
 298 500 258 484 230 458 c 1
 230 153 l 1xbc
230 43 m 1
 230 0 l 1
 70 0 l 1x7c
 70 900 l 1
 230 900 l 1
 230 570 l 1
 270 600 320 620 380 620 c 0
 536 620 650 528 650 340 c 2
 650 240 l 2
 650 88 539 -20 400 -20 c 0
 326 -20 271 5 230 43 c 1
EndSplineSet
EndChar

StartChar: R
Encoding: 82 82 125
Width: 770
VWidth: 0
Flags: W
HStem: 0 21G<70 230 578.667 770> 300 120<230 420> 680 120<230 493.103>
VStem: 70 160<0 300 420 680> 550 160<468.705 630.818>
AnchorPoint: "diac_top" 380 850 basechar 0
LayerCount: 2
Fore
SplineSet
390 680 m 2
 230 680 l 1
 230 420 l 1
 390 420 l 2
 513 420 550 479 550 550 c 0
 550 621 513 680 390 680 c 2
440 800 m 2
 641 800 710 658 710 550 c 0
 710 472 674 376 579 329 c 1
 770 0 l 1
 590 0 l 1
 420 300 l 1
 230 300 l 1
 230 0 l 1
 70 0 l 1
 70 800 l 1
 440 800 l 2
EndSplineSet
EndChar

StartChar: V
Encoding: 86 86 126
Width: 800
VWidth: 0
Flags: W
HStem: 0 21G<312 488> 780 20G<0 182.5 617.5 800>
AnchorPoint: "diac_top" 400 850 basechar 0
AnchorPoint: "diac_bottom" 400 -50 basechar 0
LayerCount: 2
Fore
SplineSet
800 800 m 1
 480 0 l 1
 475 0 l 1
 325 0 l 1
 320 0 l 1
 0 800 l 1
 175 800 l 1
 400 200 l 1
 625 800 l 1
 800 800 l 1
EndSplineSet
EndChar

StartChar: Y
Encoding: 89 89 127
Width: 700
VWidth: 0
Flags: W
HStem: 0 21G<270 430> 780 20G<0 189.444 510.556 700>
VStem: 270 160<0 290>
AnchorPoint: "hook_above" 350 850 basechar 0
LayerCount: 2
Fore
SplineSet
0 800 m 5
 180 800 l 5
 350 440 l 5
 520 800 l 5
 700 800 l 5
 430 290 l 5
 430 0 l 5
 270 0 l 5
 270 290 l 5
 0 800 l 5
EndSplineSet
EndChar

StartChar: A
Encoding: 65 65 128
Width: 800
VWidth: 0
Flags: W
HStem: 0 21G<0 182.467 617.533 800> 150 120<276 524> 780 20G<312 488>
AnchorPoint: "hook_above" 400 850 basechar 0
AnchorPoint: "ring_above" 400 760 basechar 0
AnchorPoint: "diac_bottom" 400 -50 basechar 0
AnchorPoint: "diac_top" 400 850 basechar 0
AnchorPoint: "ogonek" 690 40 basechar 0
AnchorPoint: "cedilla" 690 40 basechar 0
LayerCount: 2
Fore
SplineSet
800 0 m 1
 625 0 l 1
 569 150 l 1
 231 150 l 1
 175 0 l 1
 0 0 l 1
 320 800 l 1
 325 800 l 1
 475 800 l 1
 480 800 l 1
 800 0 l 1
524 270 m 1
 400 600 l 1
 276 270 l 1
 524 270 l 1
EndSplineSet
EndChar

StartChar: Q
Encoding: 81 81 129
Width: 820
VWidth: 0
Flags: W
HStem: -20 120<305.796 493.596> 700 120<307.729 512.271>
VStem: 60 160<184.731 611.28> 600 160<221.896 611.667>
AnchorPoint: "ring_above" 410 760 basechar 0
LayerCount: 2
Fore
SplineSet
370 240 m 1
 471 340 l 1
 592 219 l 1
 597 238 600 258 600 280 c 2
 600 510 l 2
 600 629 527 700 410 700 c 0
 293 700 220 629 220 510 c 2
 220 280 l 2
 220 170 293 100 410 100 c 0
 442 100 470 105 495 115 c 1
 370 240 l 1
760 510 m 2
 760 280 l 2
 760 212 740 153 704 106 c 1
 810 0 l 1
 710 -100 l 1
 593 17 l 1
 541 -7 479 -20 410 -20 c 0
 203 -20 60 98 60 280 c 2
 60 510 l 2
 60 686 203 820 410 820 c 0
 617 820 760 687 760 510 c 2
EndSplineSet
EndChar

StartChar: Z
Encoding: 90 90 130
Width: 700
VWidth: 0
Flags: W
HStem: 0 130<210 690> 680 120<40 480>
AnchorPoint: "cedilla" 350 40 basechar 0
AnchorPoint: "diac_bottom" 350 -50 basechar 0
AnchorPoint: "diac_top" 360 850 basechar 0
LayerCount: 2
Fore
SplineSet
40 800 m 1
 670 800 l 1
 670 680 l 1
 210 130 l 1
 690 130 l 1
 690 0 l 1
 10 0 l 1
 10 130 l 1
 480 680 l 1
 40 680 l 1
 40 800 l 1
EndSplineSet
EndChar

StartChar: W
Encoding: 87 87 131
Width: 1100
VWidth: 0
Flags: W
HStem: 0 21G<234 395.745 704.255 866> 780 20G<0 180.261 474.27 625.73 919.739 1100>
AnchorPoint: "diac_bottom" 550 -50 basechar 0
AnchorPoint: "diac_top" 550 850 basechar 0
AnchorPoint: "ring_above" 550 760 basechar 0
LayerCount: 2
Fore
SplineSet
1100 800 m 1
 860 0 l 1
 850 0 l 1
 715 0 l 1
 710 0 l 1
 550 557 l 1
 390 0 l 1
 385 0 l 1
 250 0 l 1
 240 0 l 1
 0 800 l 1
 175 800 l 1
 321 245 l 1
 480 800 l 1
 620 800 l 1
 779 245 l 1
 925 800 l 1
 1100 800 l 1
EndSplineSet
EndChar

StartChar: S
Encoding: 83 83 132
Width: 790
VWidth: 0
Flags: W
HStem: -20 120<289.129 514.383> 700 120<288.39 491.61>
VStem: 50 165<164.926 250> 70 160<529.74 650.124> 585 155<161.593 294.298>
AnchorPoint: "diac_top" 380 850 basechar 0
AnchorPoint: "cedilla" 400 40 basechar 0
LayerCount: 2
Fore
SplineSet
740 230 m 0xd8
 740 78 601 -20 395 -20 c 0
 178 -20 50 88 50 250 c 1
 215 250 l 1xe8
 215 157 287 100 395 100 c 0
 503 100 585 147 585 230 c 0
 585 310 510 344 390 360 c 0
 287 374 70 401 70 585 c 0
 70 689 182 820 390 820 c 0
 598 820 710 689 710 585 c 1
 550 585 l 1
 550 655 478 700 390 700 c 0
 302 700 230 655 230 585 c 0
 230 528 290 496 390 485 c 0
 547 467 740 435 740 230 c 0xd8
EndSplineSet
EndChar

StartChar: u
Encoding: 117 117 133
Width: 660
VWidth: 0
Flags: W
HStem: -20 120<256.279 403.721> 580 20G<60 220 440 600>
VStem: 60 160<134.394 600> 440 160<134.394 600>
AnchorPoint: "hook_above" 340 680 basechar 0
AnchorPoint: "ring_above" 330 680 basechar 0
AnchorPoint: "ogonek" 330 40 basechar 0
AnchorPoint: "cedilla" 330 40 basechar 0
AnchorPoint: "diac_bottom" 330 -50 basechar 0
AnchorPoint: "diac_top" 330 650 basechar 0
LayerCount: 2
Fore
SplineSet
220 200 m 2
 220 133 274 100 330 100 c 0
 386 100 440 133 440 200 c 2
 440 600 l 1
 600 600 l 1
 600 200 l 2
 600 78 491 -20 330 -20 c 0
 169 -20 60 78 60 200 c 2
 60 600 l 1
 220 600 l 1
 220 200 l 2
EndSplineSet
EndChar

StartChar: C
Encoding: 67 67 134
Width: 810
VWidth: 0
Flags: W
HStem: -20 120<298.443 521.557> 700 120<299.207 520.793>
VStem: 60 160<171.932 627.592> 600 160<171.932 260 530 627.592>
AnchorPoint: "ogonek" 410 40 basechar 0
AnchorPoint: "diac_bottom" 410 -50 basechar 0
AnchorPoint: "diac_top" 410 850 basechar 0
AnchorPoint: "cedilla" 410 40 basechar 0
LayerCount: 2
Fore
SplineSet
410 820 m 0
 617 820 760 702 760 530 c 1
 600 530 l 1
 600 655 512 700 410 700 c 0
 308 700 220 655 220 530 c 2
 220 260 l 2
 220 145 313 100 410 100 c 0
 507 100 600 145 600 260 c 1
 760 260 l 1
 760 88 617 -20 410 -20 c 0
 203 -20 60 88 60 260 c 2
 60 530 l 2
 60 702 203 820 410 820 c 0
EndSplineSet
EndChar

StartChar: d
Encoding: 100 100 135
Width: 690
VWidth: 0
Flags: W
HStem: -20 120<245.568 407.162> 0 21G<460 620> 500 120<252.244 421.713> 880 20G<460 620>
VStem: 40 160<147.236 442.713> 460 160<0 43 127.414 476.49 570 900>
AnchorPoint: "diac_top" 290 650 basechar 0
AnchorPoint: "cedilla" 543 40 basechar 0
LayerCount: 2
Fore
SplineSet
460 153 m 5xbc
 460 458 l 5
 432 484 392 500 340 500 c 4
 238 500 200 435 200 340 c 6
 200 240 l 6
 200 157 238 100 340 100 c 4
 400 100 438 123 460 153 c 5xbc
460 43 m 5
 419 5 364 -20 290 -20 c 4xbc
 151 -20 40 88 40 240 c 6
 40 340 l 6
 40 528 154 620 310 620 c 4
 370 620 420 600 460 570 c 5
 460 900 l 5
 620 900 l 5
 620 0 l 5
 460 0 l 5x7c
 460 43 l 5
EndSplineSet
EndChar

StartChar: G
Encoding: 71 71 136
Width: 820
VWidth: 0
Flags: W
HStem: -20 120<298.443 553.899> 300 120<420 600> 700 120<299.207 520.793>
VStem: 60 160<171.932 627.592> 600 160<135.992 300 530 627.592>
AnchorPoint: "diac_top" 410 850 basechar 0
LayerCount: 2
Fore
SplineSet
420 420 m 1
 760 420 l 1
 760 130 l 1
 673 18 561 -20 410 -20 c 0
 203 -20 60 88 60 260 c 2
 60 530 l 2
 60 702 203 820 410 820 c 0
 617 820 760 702 760 530 c 1
 600 530 l 1
 600 655 512 700 410 700 c 0
 308 700 220 655 220 530 c 2
 220 260 l 2
 220 145 313 100 410 100 c 0
 508 100 565 122 600 157 c 1
 600 300 l 1
 420 300 l 1
 420 420 l 1
EndSplineSet
EndChar

StartChar: g
Encoding: 103 103 137
Width: 690
VWidth: 0
Flags: W
HStem: -290 120<242.364 427.635> -20 120<252.244 421.713> 500 120<245.568 407.162> 580 20G<460 620>
VStem: 40 160<157.287 452.764> 460 160<-136.16 30 123.51 472.586 557 600>
AnchorPoint: "diac_top" 380 650 basechar 0
LayerCount: 2
Fore
SplineSet
50 -80 m 1xdc
 210 -80 l 1
 210 -127 244 -170 335 -170 c 0
 426 -170 460 -127 460 -80 c 2
 460 30 l 1
 420 -0 370 -20 310 -20 c 0
 154 -20 40 72 40 260 c 2
 40 360 l 2
 40 512 151 620 290 620 c 0xec
 364 620 419 595 460 557 c 1
 460 600 l 1
 620 600 l 1
 620 -80 l 2
 620 -207 508 -290 335 -290 c 0
 162 -290 50 -207 50 -80 c 1xdc
460 447 m 1
 438 477 400 500 340 500 c 0
 238 500 200 443 200 360 c 2
 200 260 l 2
 200 165 238 100 340 100 c 0
 392 100 432 116 460 142 c 1
 460 447 l 1
EndSplineSet
EndChar

StartChar: l
Encoding: 108 108 138
Width: 330
VWidth: 0
Flags: W
HStem: 880 20G<70 230>
VStem: 70 160<115.82 900>
AnchorPoint: "diac_top" 150 930 basechar 0
AnchorPoint: "diac_bottom" 170 -50 basechar 0
LayerCount: 2
Fore
SplineSet
280 -10 m 1
 134 -10 70 26 70 130 c 2
 70 900 l 1
 230 900 l 1
 230 180 l 2
 230 126 243 110 280 110 c 1
 280 -10 l 1
EndSplineSet
EndChar

StartChar: n
Encoding: 110 110 139
Width: 670
VWidth: 0
Flags: W
HStem: 0 21G<60 220 460 620> 500 120<299.773 433.195> 580 20G<60 220>
VStem: 60 160<0 463.445 539 600> 460 160<0 472.354>
AnchorPoint: "diac_top" 350 650 basechar 0
AnchorPoint: "cedilla" 530 40 basechar 0
LayerCount: 2
Fore
SplineSet
60 600 m 5xb8
 220 600 l 5xb8
 220 539 l 5
 262 578 328 620 410 620 c 4
 534 620 620 541 620 410 c 6
 620 0 l 5
 460 0 l 5
 460 410 l 6
 460 472 412 500 350 500 c 4xd8
 291 500 249 473 220 437 c 5
 220 0 l 5
 60 0 l 5
 60 600 l 5xb8
EndSplineSet
EndChar

StartChar: m
Encoding: 109 109 140
Width: 970
VWidth: 0
Flags: W
HStem: 0 21G<60 220 410 570 760 920> 500 120<278.396 391.034 613.331 738.013> 580 20G<60 220>
VStem: 60 160<0 476.432 551 600> 410 160<0 461.249> 760 160<0 479.22>
CounterMasks: 1 1c
AnchorPoint: "diac_bottom" 480 -50 basechar 0
AnchorPoint: "diac_top" 480 650 basechar 0
AnchorPoint: "cedilla" 820 40 basechar 0
LayerCount: 2
Fore
SplineSet
60 600 m 1xbc
 220 600 l 1xbc
 220 551 l 1
 259 588 312 620 375 620 c 0
 441 620 497 589 532 538 c 1
 573 576 640 620 720 620 c 0
 842 620 920 532 920 410 c 2
 920 0 l 1
 760 0 l 1
 760 410 l 1
 760 459 738 500 670 500 c 0
 626 500 591 485 564 462 c 1
 568 446 570 428 570 410 c 2
 570 0 l 1
 410 0 l 1
 410 410 l 2
 410 465 388 500 320 500 c 0xdc
 280 500 247 482 220 455 c 1
 220 0 l 1
 60 0 l 1
 60 600 l 1xbc
EndSplineSet
EndChar

StartChar: a
Encoding: 97 97 142
Width: 700
VWidth: 0
Flags: W
HStem: -20 120<236.839 411.583> 270 90<234.413 450> 500 120<260.752 419.248>
VStem: 50 160<128.758 246.027> 70 160<400 471.176> 450 160<135.628 270 360 471.176>
AnchorPoint: "hook_above" 350 680 basechar 0
AnchorPoint: "ring_above" 350 680 basechar 0
AnchorPoint: "diac_bottom" 350 -50 basechar 0
AnchorPoint: "diac_top" 340 650 basechar 0
AnchorPoint: "ogonek" 570 40 basechar 0
AnchorPoint: "cedilla" 570 40 basechar 0
LayerCount: 2
Fore
SplineSet
230 400 m 1xec
 70 400 l 1xec
 70 537 181 620 340 620 c 0
 499 620 610 537 610 400 c 2
 610 180 l 2
 610 126 623 110 660 110 c 1
 660 -10 l 1
 564 -10 503 6 473 46 c 1
 429 6 368 -20 290 -20 c 0
 140 -20 50 75 50 185 c 0xf4
 50 316 170 360 300 360 c 2
 450 360 l 1
 450 400 l 2
 450 482 389 500 340 500 c 0
 291 500 230 482 230 400 c 1xec
450 270 m 1
 310 270 l 2
 244 270 210 237 210 185 c 0xf4
 210 145 241 100 320 100 c 0
 376 100 424 123 450 165 c 1
 450 270 l 1
EndSplineSet
EndChar

StartChar: h
Encoding: 104 104 143
Width: 680
VWidth: 0
Flags: W
HStem: 0 21G<70 230 470 630> 500 120<309.773 443.195> 880 20G<70 230>
VStem: 70 160<0 463.445 539 900> 470 160<0 472.354>
AnchorPoint: "diac_top" 450 650 basechar 0
AnchorPoint: "cedilla" 540 40 basechar 0
LayerCount: 2
Fore
SplineSet
70 900 m 1
 230 900 l 1
 230 539 l 1
 272 578 338 620 420 620 c 0
 544 620 630 541 630 410 c 2
 630 0 l 1
 470 0 l 1
 470 410 l 2
 470 472 422 500 360 500 c 0
 301 500 259 473 230 437 c 1
 230 0 l 1
 70 0 l 1
 70 900 l 1
EndSplineSet
EndChar

StartChar: e
Encoding: 101 101 144
Width: 680
VWidth: 0
Flags: W
HStem: -20 120<253.175 426.825> 270 90<210 470> 500 120<256.198 423.802>
VStem: 50 160<143.486 270 360 452.094> 470 160<143.486 200 360 452.094>
AnchorPoint: "ring_above" 340 680 basechar 0
AnchorPoint: "diac_top" 340 650 basechar 0
AnchorPoint: "cedilla" 340 40 basechar 0
AnchorPoint: "ogonek" 340 40 basechar 0
LayerCount: 2
Fore
SplineSet
470 360 m 1
 470 443 429 500 340 500 c 0
 251 500 210 443 210 360 c 1
 470 360 l 1
630 360 m 2
 630 270 l 1
 210 270 l 1
 210 200 l 2
 210 149 262 100 340 100 c 0
 418 100 470 149 470 200 c 1
 630 200 l 1
 630 89 519 -20 340 -20 c 0
 161 -20 50 89 50 200 c 2
 50 360 l 2
 50 482 150 620 340 620 c 0
 530 620 630 482 630 360 c 2
EndSplineSet
EndChar

StartChar: c
Encoding: 99 99 145
Width: 640
VWidth: 0
Flags: W
HStem: -20 120<244.222 418.356> 500 120<254.815 414.496>
VStem: 50 160<136.176 457.106> 450 160<133.939 200 400 467.252>
AnchorPoint: "diac_bottom" 335 -50 basechar 0
AnchorPoint: "diac_top" 335 650 basechar 0
AnchorPoint: "cedilla" 335 40 basechar 0
LayerCount: 2
Fore
SplineSet
335 620 m 0
 491 620 610 528 610 400 c 1
 450 400 l 1
 450 464 401 500 335 500 c 0
 269 500 210 462 210 380 c 2
 210 200 l 2
 210 127 269 100 335 100 c 0
 401 100 450 131 450 200 c 1
 610 200 l 1
 610 62 489 -20 335 -20 c 0
 181 -20 50 52 50 200 c 2
 50 380 l 2
 50 528 179 620 335 620 c 0
EndSplineSet
EndChar

StartChar: w
Encoding: 119 119 146
Width: 850
VWidth: 0
Flags: W
HStem: 0 21G<174.333 345 505 675.667> 580 20G<10 184.809 354.973 495.027 665.191 840>
AnchorPoint: "diac_bottom" 425 -50 basechar 0
AnchorPoint: "diac_top" 425 650 basechar 0
AnchorPoint: "ring_above" 425 680 basechar 0
LayerCount: 2
Fore
SplineSet
670 600 m 1
 840 600 l 1
 670 0 l 1
 640 0 l 1
 525 0 l 1
 510 0 l 1
 425 340 l 1
 340 0 l 1
 325 0 l 1
 210 0 l 1
 180 0 l 1
 10 600 l 1
 180 600 l 1
 268 234 l 1
 360 600 l 1
 490 600 l 1
 582 234 l 1
 670 600 l 1
EndSplineSet
EndChar

StartChar: v
Encoding: 118 118 147
Width: 660
VWidth: 0
Flags: W
HStem: 0 21G<242 418> 580 20G<10 187.335 472.665 650>
LayerCount: 2
Fore
SplineSet
480 600 m 5
 650 600 l 5
 410 0 l 5
 400 0 l 5
 260 0 l 5
 250 0 l 5
 10 600 l 5
 180 600 l 5
 330 191 l 5
 480 600 l 5
EndSplineSet
EndChar

StartChar: z
Encoding: 122 122 148
Width: 620
VWidth: 0
Flags: W
HStem: 0 130<220 590> 480 120<50 400>
AnchorPoint: "cedilla" 300 40 basechar 0
LayerCount: 2
Fore
SplineSet
50 600 m 1
 580 600 l 1
 580 480 l 1
 220 130 l 1
 590 130 l 1
 590 0 l 1
 30 0 l 1
 30 130 l 1
 400 480 l 1
 50 480 l 1
 50 600 l 1
EndSplineSet
EndChar

StartChar: y
Encoding: 121 121 149
Width: 660
VWidth: 0
Flags: W
HStem: -290 120<70 180.04> 580 20G<10 187.335 472.665 650>
AnchorPoint: "hook_above" 330 650 basechar 0
AnchorPoint: "diac_bottom" 520 -50 basechar 0
AnchorPoint: "diac_top" 330 650 basechar 0
AnchorPoint: "ogonek" 320 -50 basechar 0
AnchorPoint: "ring_above" 330 680 basechar 0
LayerCount: 2
Fore
SplineSet
480 600 m 1
 650 600 l 1
 410 0 l 1
 340 -180 l 1
 307 -262 256 -290 70 -290 c 1
 70 -170 l 1
 162 -170 177 -164 200 -120 c 1
 250 0 l 1
 10 600 l 1
 180 600 l 1
 330 191 l 1
 480 600 l 1
EndSplineSet
EndChar

StartChar: r
Encoding: 114 114 150
Width: 410
VWidth: 0
Flags: W
HStem: 0 21G<60 220> 480 130<284.762 390> 580 20G<60 220>
VStem: 60 160<0 432.851 536 600>
LayerCount: 2
Fore
SplineSet
60 600 m 1xb0
 220 600 l 1xb0
 220 536 l 1
 257 573 313 610 390 610 c 1
 390 480 l 1xd0
 318 480 259 451 220 409 c 1
 220 0 l 1
 60 0 l 1
 60 600 l 1xb0
EndSplineSet
Validated: 1
EndChar

StartChar: numbersign
Encoding: 35 35 151
Width: 910
VWidth: 0
Flags: W
HStem: 0 21G<165 298.721 465 598.721> 215 100<50 205 354 505 654 840> 485 100<70 256 405 556 705 860> 780 20G<311.279 445 611.279 745>
LayerCount: 2
Fore
SplineSet
654 315 m 1
 840 315 l 1
 840 215 l 1
 635 215 l 1
 595 0 l 1
 465 0 l 1
 505 215 l 1
 335 215 l 1
 295 0 l 1
 165 0 l 1
 205 215 l 1
 50 215 l 1
 50 315 l 1
 224 315 l 1
 256 485 l 1
 70 485 l 1
 70 585 l 1
 275 585 l 1
 315 800 l 1
 445 800 l 1
 405 585 l 1
 575 585 l 1
 615 800 l 1
 745 800 l 1
 705 585 l 1
 860 585 l 1
 860 485 l 1
 686 485 l 1
 654 315 l 1
524 315 m 1
 556 485 l 1
 386 485 l 1
 354 315 l 1
 524 315 l 1
EndSplineSet
Validated: 1
EndChar

StartChar: asterisk
Encoding: 42 42 152
Width: 540
VWidth: 0
Flags: W
HStem: 880 20G<220 320>
VStem: 220 100<720 900>
LayerCount: 2
Fore
SplineSet
457 479 m 5
 376 420 l 5
 270 566 l 5
 164 420 l 5
 83 479 l 5
 189 625 l 5
 18 681 l 5
 49 776 l 5
 220 720 l 5
 220 900 l 5
 320 900 l 5
 320 720 l 5
 491 776 l 5
 522 681 l 5
 351 625 l 5
 457 479 l 5
EndSplineSet
Validated: 1
EndChar

StartChar: s
Encoding: 115 115 153
Width: 680
VWidth: 0
Flags: W
HStem: -20 120<240.573 439.427> 500 120<254.816 425.184>
VStem: 70 160<391.687 474.042> 470 160<130.45 222.679>
AnchorPoint: "diac_top" 340 650 basechar 0
AnchorPoint: "cedilla" 340 40 basechar 0
LayerCount: 2
Fore
SplineSet
50 185 m 1
 210 185 l 1
 210 130 263 100 340 100 c 0
 417 100 470 130 470 185 c 0
 470 227 418 241 340 250 c 0
 232 262 70 282 70 425 c 0
 70 517 161 620 340 620 c 0
 519 620 610 517 610 425 c 1
 450 425 l 1
 450 459 418 500 340 500 c 0
 262 500 230 459 230 425 c 0
 230 393 266 379 340 370 c 0
 463 355 630 348 630 185 c 0
 630 80 534 -20 340 -20 c 0
 146 -20 50 80 50 185 c 1
EndSplineSet
EndChar

StartChar: f
Encoding: 102 102 154
Width: 420
VWidth: 0
Flags: W
HStem: 0 21G<110 270> 480 120<10 110 270 400> 780 120<297.747 400>
VStem: 110 160<0 480 600 753.155>
LayerCount: 2
Fore
SplineSet
10 480 m 5
 10 600 l 5
 110 600 l 5
 110 690 l 6
 110 822 195 900 400 900 c 5
 400 780 l 5
 311 780 270 751 270 690 c 6
 270 600 l 5
 400 600 l 5
 400 480 l 5
 270 480 l 5
 270 0 l 5
 110 0 l 5
 110 480 l 5
 10 480 l 5
EndSplineSet
EndChar

StartChar: t
Encoding: 116 116 155
Width: 420
VWidth: 0
Flags: W
HStem: 0 21G<130 290> 480 120<10 130 290 410>
VStem: 130 160<0 480 600 780>
AnchorPoint: "cedilla" 200 40 basechar 0
AnchorPoint: "diac_top" 210 870 basechar 0
AnchorPoint: "diac_bottom" 212 -50 basechar 0
LayerCount: 2
Fore
SplineSet
250 840 m 1
 290 840 l 1
 290 600 l 1
 410 600 l 1
 410 480 l 1
 290 480 l 1
 290 0 l 1
 130 0 l 1
 130 480 l 1
 10 480 l 1
 10 600 l 1
 130 600 l 1
 130 780 l 1
 250 840 l 1
EndSplineSet
EndChar

StartChar: k
Encoding: 107 107 156
Width: 620
VWidth: 0
Flags: W
HStem: 0 21G<70 230 426.264 620> 580 20G<395.674 580> 880 20G<70 230>
VStem: 70 160<0 265 385 900>
AnchorPoint: "diac_bottom" 320 -50 basechar 0
AnchorPoint: "diac_top" 420 650 basechar 0
LayerCount: 2
Fore
SplineSet
410 600 m 1
 580 600 l 1
 385 335 l 1
 620 0 l 1
 440 0 l 1
 258 265 l 1
 230 265 l 1
 230 0 l 1
 70 0 l 1
 70 900 l 1
 230 900 l 1
 230 385 l 1
 256 385 l 1
 410 600 l 1
EndSplineSet
EndChar

StartChar: hyphen
Encoding: 45 45 157
Width: 560
VWidth: 0
Flags: W
HStem: 270 100<50 510>
LayerCount: 2
Fore
SplineSet
50 370 m 5
 510 370 l 5
 510 270 l 5
 50 270 l 5
 50 370 l 5
EndSplineSet
Validated: 1
EndChar

StartChar: bar
Encoding: 124 124 158
Width: 320
VWidth: 0
Flags: W
HStem: 880 20G<100 220>
VStem: 100 120<-180 900>
LayerCount: 2
Fore
SplineSet
100 900 m 5
 220 900 l 5
 220 -180 l 5
 100 -180 l 5
 100 900 l 5
EndSplineSet
Validated: 1
EndChar

StartChar: slash
Encoding: 47 47 159
Width: 480
VWidth: 0
Flags: W
HStem: 880 20G<314.815 440>
LayerCount: 2
Fore
SplineSet
320 900 m 5
 440 900 l 5
 160 -180 l 5
 40 -180 l 5
 320 900 l 5
EndSplineSet
Validated: 1
EndChar

StartChar: seven
Encoding: 55 55 162
Width: 660
Flags: W
HStem: 0 21G<210 370> 680 120<60 430>
VStem: 210 160<0 355.085>
LayerCount: 2
Fore
SplineSet
210 0 m 1
 210 210 l 2
 210 510 430 680 430 680 c 1
 60 680 l 1
 60 800 l 1
 600 800 l 1
 600 680 l 1
 600 680 385 516 370 210 c 1
 370 0 l 1
 210 0 l 1
EndSplineSet
Validated: 1
EndChar

StartChar: exclam
Encoding: 33 33 163
Width: 320
VWidth: 0
Flags: W
HStem: 0 200<92.0592 227.941> 880 20G<80 240>
VStem: 60 200<32.0592 167.941> 80 160<360 900>
LayerCount: 2
Fore
SplineSet
260 100 m 0xe0
 260 43 217 0 160 0 c 0
 103 0 60 43 60 100 c 0
 60 157 103 200 160 200 c 0
 217 200 260 157 260 100 c 0xe0
80 900 m 1xd0
 240 900 l 5
 240 360 l 1
 200 260 l 1
 120 260 l 1
 80 360 l 1
 80 900 l 1xd0
EndSplineSet
Validated: 1
EndChar

StartChar: dollar
Encoding: 36 36 165
Width: 790
VWidth: 0
Flags: W
HStem: -150 190<335 455> -20 120<289.129 514.383> 700 120<288.39 491.61> 760 190<335 455>
VStem: 50 165<164.926 250> 70 160<529.74 650.124> 335 120<-150 40 760 950> 585 155<161.593 294.298>
LayerCount: 2
Fore
SplineSet
335 40 m 5x83
 455 40 l 5
 455 -150 l 5
 335 -150 l 5
 335 40 l 5x83
335 950 m 5x13
 455 950 l 5
 455 760 l 5
 335 760 l 5
 335 950 l 5x13
EndSplineSet
Refer: 132 83 N 1 0 0 1 0 0 2
EndChar

StartChar: percent
Encoding: 37 37 166
Width: 840
VWidth: 0
Flags: W
HStem: -10 100<594.631 667.882> 0 21G<70 224> 250 100<594.631 667.882> 450 100<174.631 247.882> 710 100<174.631 247.882> 780 20G<616 770>
VStem: 50 110<560.005 699.995> 260 110<559.069 700.931> 470 110<100.005 239.995> 680 110<99.0687 240.931>
LayerCount: 2
Fore
SplineSet
630 800 m 1x77c0
 770 800 l 1
 210 0 l 1
 70 0 l 1
 630 800 l 1x77c0
210 810 m 0x3bc0
 304 810 370 729 370 630 c 0
 370 531 304 450 210 450 c 0
 116 450 50 531 50 630 c 0
 50 729 116 810 210 810 c 0x3bc0
211 710 m 0
 178 710 160 668 160 630 c 0
 160 592 178 550 211 550 c 0
 244 550 260 592 260 630 c 0
 260 668 244 710 211 710 c 0
630 350 m 4
 724 350 790 269 790 170 c 4
 790 71 724 -10 630 -10 c 4xb3c0
 536 -10 470 71 470 170 c 4
 470 269 536 350 630 350 c 4
631 250 m 4
 598 250 580 208 580 170 c 4
 580 132 598 90 631 90 c 4
 664 90 680 132 680 170 c 4
 680 208 664 250 631 250 c 4
EndSplineSet
EndChar

StartChar: quotesingle
Encoding: 39 39 167
Width: 240
VWidth: 0
Flags: W
HStem: 560 240<70 170>
VStem: 70 100<560 660.8>
LayerCount: 2
Fore
SplineSet
50 800 m 1
 190 800 l 1
 170 560 l 5
 70 560 l 5
 50 800 l 1
EndSplineSet
Validated: 1
EndChar

StartChar: parenleft
Encoding: 40 40 168
Width: 400
VWidth: 0
Flags: W
VStem: 60 130<102.352 617.648>
LayerCount: 2
Fore
SplineSet
60 360 m 1
 60 390 l 2
 60 706 160 848 360 920 c 1
 360 855 l 1
 223 769 190 667 190 390 c 2
 190 360 l 1
 190 330 l 2
 190 53 223 -49 360 -135 c 1
 360 -200 l 1
 160 -128 60 14 60 330 c 2
 60 360 l 1
EndSplineSet
Validated: 1
EndChar

StartChar: plus
Encoding: 43 43 170
Width: 560
VWidth: 0
Flags: W
HStem: 270 100<50 220 340 510>
VStem: 220 120<90 270 370 550>
LayerCount: 2
Fore
SplineSet
340 270 m 1
 340 90 l 5
 220 90 l 5
 220 270 l 1
 50 270 l 1
 50 370 l 1
 220 370 l 1
 220 550 l 1
 340 550 l 1
 340 370 l 1
 510 370 l 1
 510 270 l 1
 340 270 l 1
EndSplineSet
Validated: 1
EndChar

StartChar: comma
Encoding: 44 44 171
Width: 320
VWidth: 0
Flags: W
HStem: -150 350
LayerCount: 2
Fore
SplineSet
160 200 m 0
 223 200 265 151 265 90 c 0
 265 -21 194 -107 135 -150 c 1
 55 -150 l 1
 105 -94 134 -44 135 3 c 5
 91 14 60 52 60 100 c 0
 60 156 104 200 160 200 c 0
EndSplineSet
Validated: 1
EndChar

StartChar: zero
Encoding: 48 48 172
Width: 660
Flags: W
HStem: -20 120<255.708 404.292> 700 120<255.708 404.292>
VStem: 50 160<150.422 649.578> 450 160<150.422 649.578>
LayerCount: 2
Fore
SplineSet
210 245 m 6
 210 146 262 100 330 100 c 4
 398 100 450 146 450 245 c 6
 450 555 l 6
 450 654 398 700 330 700 c 4
 262 700 210 654 210 555 c 6
 210 245 l 6
50 245 m 6
 50 555 l 6
 50 710 164 820 330 820 c 4
 496 820 610 710 610 555 c 6
 610 245 l 6
 610 90 496 -20 330 -20 c 4
 164 -20 50 90 50 245 c 6
EndSplineSet
Validated: 1
EndChar

StartChar: one
Encoding: 49 49 173
Width: 660
Flags: W
HStem: 0 21G<340 500> 495 125<80 197.155> 780 20G<340 500>
VStem: 340 160<0 600 732.219 800>
LayerCount: 2
Fore
SplineSet
340 600 m 1
 299 537 179 495 80 495 c 1
 80 620 l 1
 196 620 340 706 340 800 c 1
 500 800 l 1
 500 0 l 1
 340 0 l 1
 340 600 l 1
EndSplineSet
Validated: 1
EndChar

StartChar: two
Encoding: 50 50 174
Width: 660
Flags: W
HStem: 0 120<210 610> 700 120<256.238 403.762>
VStem: 60 160<580 664.148> 440 160<501.889 664.314>
LayerCount: 2
Fore
SplineSet
440 580 m 4
 440 655 400 700 330 700 c 4
 260 700 220 655 220 580 c 5
 60 580 l 5
 60 704 168 820 330 820 c 4
 492 820 600 704 600 580 c 4
 600 468 523 395 430 330 c 4
 334 263 210 170 210 120 c 5
 610 120 l 5
 610 0 l 5
 50 0 l 5
 50 120 l 6
 50 237 206 327 300 400 c 4
 381 463 440 498 440 580 c 4
EndSplineSet
Validated: 1
EndChar

StartChar: three
Encoding: 51 51 175
Width: 660
Flags: W
HStem: -20 120<235.595 404.405> 350 120<210 395.99> 700 120<246.238 393.762>
VStem: 30 160<145.38 225> 50 160<580 664.148> 430 160<504.12 664.314> 450 160<144.795 305.904>
LayerCount: 2
Fore
SplineSet
30 225 m 1xf2
 190 225 l 1
 190 142 245 100 320 100 c 0
 395 100 450 142 450 225 c 0xf2
 450 308 394 350 320 350 c 2
 210 350 l 1
 210 470 l 1
 320 470 l 2
 381 470 430 505 430 580 c 0
 430 655 390 700 320 700 c 0
 250 700 210 655 210 580 c 1
 50 580 l 1
 50 704 158 820 320 820 c 0
 482 820 590 704 590 580 c 0xec
 590 515 561 455 510 413 c 1
 572 368 610 301 610 225 c 0
 610 87 510 -20 320 -20 c 0
 130 -20 30 87 30 225 c 1xf2
EndSplineSet
Validated: 1
EndChar

StartChar: four
Encoding: 52 52 176
Width: 660
Flags: W
HStem: 0 21G<380 540> 135 120<190 380 540 620> 780 20G<367.523 540>
VStem: 380 160<0 135 255 580>
LayerCount: 2
Fore
SplineSet
190 255 m 1
 380 255 l 1
 380 580 l 1
 190 255 l 1
40 255 m 1
 380 800 l 1
 540 800 l 1
 540 255 l 1
 620 255 l 1
 620 135 l 1
 540 135 l 1
 540 0 l 1
 380 0 l 1
 380 135 l 1
 40 135 l 1
 40 255 l 1
EndSplineSet
Validated: 1
EndChar

StartChar: five
Encoding: 53 53 177
Width: 660
Flags: W
HStem: -20 120<255.708 404.292> 390 120<239.448 404.292> 690 110<247 570>
VStem: 50 160<150.422 245> 450 160<148.949 341.051>
LayerCount: 2
Fore
SplineSet
330 -20 m 4
 164 -20 50 90 50 245 c 5
 210 245 l 5
 210 146 262 100 330 100 c 4
 398 100 450 146 450 245 c 4
 450 344 398 390 330 390 c 4
 276 390 234 369 205 330 c 5
 70 340 l 5
 130 800 l 5
 260 800 l 5
 570 800 l 5
 570 690 l 5
 247 690 l 5
 223 481 l 5
 254 498 290 510 330 510 c 4
 496 510 610 400 610 245 c 4
 610 90 496 -20 330 -20 c 4
EndSplineSet
Validated: 1
EndChar

StartChar: eight
Encoding: 56 56 179
Width: 660
Flags: W
HStem: -20 120<245.595 414.405> 350 120<254.01 405.99> 700 120<256.238 403.762>
VStem: 40 160<144.795 305.904> 60 160<504.12 664.314> 440 160<504.12 664.314> 460 160<144.795 305.904>
LayerCount: 2
Fore
SplineSet
600 580 m 0xec
 600 515 571 455 520 413 c 1
 582 368 620 301 620 225 c 0
 620 87 520 -20 330 -20 c 0
 140 -20 40 87 40 225 c 0xf2
 40 301 78 368 140 413 c 1
 89 455 60 515 60 580 c 0
 60 704 168 820 330 820 c 0
 492 820 600 704 600 580 c 0xec
440 580 m 0xec
 440 655 400 700 330 700 c 0
 260 700 220 655 220 580 c 0
 220 505 269 470 330 470 c 0
 391 470 440 505 440 580 c 0xec
200 225 m 0xf2
 200 142 255 100 330 100 c 0
 405 100 460 142 460 225 c 0
 460 308 404 350 330 350 c 0
 256 350 200 308 200 225 c 0xf2
EndSplineSet
Validated: 1
EndChar

StartChar: nine
Encoding: 57 57 180
Width: 660
Flags: W
HStem: -20 120<258.287 411.713> 290 120<255.708 405.543> 700 120<255.708 404.292>
VStem: 50 160<458.949 651.051> 60 160<139.231 220> 450 160<139.231 322 457.476 649.578>
LayerCount: 2
Fore
SplineSet
60 220 m 1xec
 220 220 l 1xec
 220 153 253 100 335 100 c 0
 417 100 450 153 450 220 c 2
 450 322 l 1
 419 302 380 290 330 290 c 0
 164 290 50 400 50 555 c 0xf4
 50 710 164 820 330 820 c 0
 496 820 610 710 610 555 c 2
 610 220 l 2
 610 105 527 -20 335 -20 c 0
 143 -20 60 105 60 220 c 1xec
210 555 m 0xf4
 210 456 262 410 330 410 c 0
 398 410 450 456 450 555 c 0
 450 654 398 700 330 700 c 0
 262 700 210 654 210 555 c 0xf4
EndSplineSet
Validated: 1
EndChar

StartChar: less
Encoding: 60 60 182
Width: 600
VWidth: 0
Flags: W
HStem: 0 21G<504.444 540>
LayerCount: 2
Fore
SplineSet
60 270 m 5
 60 370 l 5
 540 640 l 5
 540 500 l 5
 210 320 l 5
 540 140 l 5
 540 0 l 5
 60 270 l 5
EndSplineSet
Validated: 1
EndChar

StartChar: question
Encoding: 63 63 185
Width: 640
VWidth: 0
Flags: W
HStem: 0 200<252.059 387.941> 700 120<242.732 397.268>
VStem: 50 160<527.608 667> 220 200<32.0592 167.941> 240 160<260 352.094> 430 160<519.904 667>
LayerCount: 2
Fore
SplineSet
222 533 m 5xec
 70 486 l 5
 57 515 50 557 50 590 c 4
 50 723 164 820 320 820 c 4
 476 820 590 723 590 590 c 4
 590 479 514 419 445 370 c 4
 402.595 339.887 400 312 400 260 c 5
 240 260 l 5
 240 353 247.299 395.154 320 445 c 4
 371.934 480.607 430 530 430 590 c 4
 430 656 396 700 320 700 c 4
 244 700 210 656 210 590 c 4
 210 569 214 553 222 533 c 5xec
420 100 m 4xf4
 420 43 377 0 320 0 c 4
 263 0 220 43 220 100 c 4
 220 157 263 200 320 200 c 4
 377 200 420 157 420 100 c 4xf4
EndSplineSet
Validated: 1
EndChar

StartChar: at
Encoding: 64 64 186
Width: 1140
VWidth: 0
Flags: W
HStem: -180 90<413.255 728.185> 70 115<496.121 625.312> 70 90<827.614 948.407> 474 116<493.703 612.886> 750 90<417.101 722.899>
VStem: 50 100<172.667 482.437> 300 160<220.049 437.829> 650 160<222.422 460.923 540 570> 990 100<205.848 482.437>
LayerCount: 2
Fore
SplineSet
650 570 m 1xdf80
 810 570 l 1
 810 250 l 2
 810 185 843 160 880 160 c 0
 925 160 990 176 990 330 c 0
 990 579 819 750 570 750 c 0
 321 750 150 579 150 330 c 0
 150 81 310 -90 570 -90 c 0
 681 -90 754 -62 827 -13 c 1
 866 -96 l 1
 780 -154 671 -180 570 -180 c 0
 239 -180 50 43 50 330 c 0
 50 617 283 840 570 840 c 0
 857 840 1090 617 1090 330 c 0
 1090 133 983 70 880 70 c 0xbf80
 780 70 717 94 683 138 c 1
 642 99 589 70 525 70 c 0
 407 70 300 141 300 290 c 2
 300 370 l 2
 300 513 407 590 515 590 c 0
 567 590 613 569 650 540 c 1
 650 570 l 1xdf80
651 222 m 1
 650 231 650 240 650 250 c 2
 650 447 l 1
 626 463 594 474 560 474 c 0
 500 474 460 426 460 370 c 2
 460 290 l 2
 460 232 505 185 560 185 c 0xdf80
 597 185 628 201 651 222 c 1
EndSplineSet
EndChar

StartChar: bracketleft
Encoding: 91 91 187
Width: 400
VWidth: 0
Flags: W
HStem: -180 90<180 360> 810 90<180 360>
VStem: 60 300<-180 -90 810 900> 60 120<-90 810>
LayerCount: 2
Fore
SplineSet
60 360 m 5xd0
 60 900 l 5
 360 900 l 5
 360 810 l 5xe0
 180 810 l 5
 180 360 l 5
 180 -90 l 5xd0
 360 -90 l 5
 360 -180 l 5
 60 -180 l 5xe0
 60 360 l 5xd0
EndSplineSet
Validated: 1
EndChar

StartChar: asciicircum
Encoding: 94 94 189
Width: 540
VWidth: 0
Flags: W
HStem: 560 240
LayerCount: 2
Fore
SplineSet
270 690 m 5
 190 560 l 5
 40 560 l 5
 220 800 l 5
 320 800 l 5
 500 560 l 5
 350 560 l 5
 270 690 l 5
EndSplineSet
EndChar

StartChar: underscore
Encoding: 95 95 190
Width: 720
VWidth: 0
Flags: W
HStem: -100 100<60 660>
LayerCount: 2
Fore
SplineSet
60 0 m 5
 660 0 l 5
 660 -100 l 5
 60 -100 l 5
 60 0 l 5
EndSplineSet
Validated: 1
EndChar

StartChar: grave
Encoding: 96 96 191
Width: 420
VWidth: 0
Flags: W
HStem: 620 180
VStem: 30 360
LayerCount: 2
Fore
SplineSet
30 800 m 5
 220 800 l 5
 390 620 l 5
 280 620 l 5
 30 800 l 5
EndSplineSet
EndChar

StartChar: braceleft
Encoding: 123 123 192
Width: 400
VWidth: 0
Flags: W
HStem: -180 90<251.292 380> 810 90<251.292 380>
VStem: 130 120<-88.7937 282.449 437.551 808.794>
LayerCount: 2
Fore
SplineSet
20 360 m 5
 20 365 l 5
 59 385 130 432 130 520 c 6
 130 810 l 6
 130 866 173 900 230 900 c 6
 380 900 l 5
 380 810 l 5
 290 810 l 6
 262 810 250 799 250 770 c 6
 250 520 l 6
 250 393 170 360 170 360 c 5
 170 360 250 327 250 200 c 6
 250 -50 l 6
 250 -79 262 -90 290 -90 c 6
 380 -90 l 5
 380 -180 l 5
 230 -180 l 6
 173 -180 130 -146 130 -90 c 6
 130 200 l 6
 130 288 59 335 20 355 c 5
 20 360 l 5
EndSplineSet
Validated: 1
EndChar

StartChar: asciitilde
Encoding: 126 126 194
Width: 640
VWidth: 0
Flags: W
HStem: 220 120<349.119 491.649> 300 120<148.351 290.138>
LayerCount: 2
Fore
SplineSet
215 420 m 4x40
 261 420 290.141 408.071 330 380 c 4
 361.133 358.074 379 340 425 340 c 4
 469 340 511 374 525 410 c 5
 590 385 l 5
 580 308 510 220 425 220 c 4x80
 379 220 348 233 310 260 c 4
 277.21 283.298 261 300 215 300 c 4
 171 300 129 266 115 230 c 5
 50 255 l 5
 60 332 130 420 215 420 c 4x40
EndSplineSet
Validated: 1
EndChar

StartChar: quotedblleft
Encoding: 270 8220 195
Width: 520
VWidth: 0
Flags: W
HStem: 550 350
VStem: 40 195<585.94 700.418> 280 195<585.94 700.418>
LayerCount: 2
Fore
SplineSet
145 550 m 4
 82 550 40 599 40 660 c 4
 40 771 111 857 170 900 c 5
 250 900 l 5
 201 846 163 776 160 729 c 5
 203 722 235 685 235 640 c 4
 235 589 196 550 145 550 c 4
385 550 m 4
 322 550 280 599 280 660 c 4
 280 771 351 857 410 900 c 5
 490 900 l 5
 441 846 403 776 400 729 c 5
 443 722 475 685 475 640 c 4
 475 589 436 550 385 550 c 4
EndSplineSet
EndChar

StartChar: quotedblright
Encoding: 271 8221 196
Width: 520
VWidth: 0
Flags: W
HStem: 550 350
VStem: 45 195<749.582 864.06> 285 195<749.582 864.06>
LayerCount: 2
Fore
SplineSet
375 900 m 0
 438 900 480 851 480 790 c 0
 480 679 409 593 350 550 c 1
 270 550 l 1
 319 604 357 674 360 721 c 1
 317 728 285 765 285 810 c 0
 285 861 324 900 375 900 c 0
135 900 m 0
 198 900 240 851 240 790 c 0
 240 679 169 593 110 550 c 1
 30 550 l 1
 79 604 117 674 120 721 c 1
 77 728 45 765 45 810 c 0
 45 861 84 900 135 900 c 0
EndSplineSet
EndChar

StartChar: quoteleft
Encoding: 272 8216 197
Width: 320
VWidth: 0
Flags: W
HStem: 550 350
LayerCount: 2
Fore
SplineSet
160 550 m 0
 97 550 55 599 55 660 c 0
 55 771 126 857 185 900 c 1
 265 900 l 1
 215 844 186 794 185 747 c 1
 229 736 260 698 260 650 c 0
 260 594 216 550 160 550 c 0
EndSplineSet
Validated: 1
EndChar

StartChar: quoteright
Encoding: 273 8217 198
Width: 320
VWidth: 0
Flags: W
HStem: 550 350
LayerCount: 2
Fore
SplineSet
160 900 m 4
 223 900 265 851 265 790 c 4
 265 679 194 593 135 550 c 5
 55 550 l 5
 105 606 134 656 135 703 c 5
 91 714 60 752 60 800 c 4
 60 856 104 900 160 900 c 4
EndSplineSet
Validated: 1
EndChar

StartChar: afii57929
Encoding: 274 700 199
Width: 280
VWidth: 0
Flags: W
HStem: 460 350
VStem: 45 195<659.582 774.06>
LayerCount: 2
Fore
SplineSet
135 810 m 0
 198 810 240 761 240 700 c 0
 240 589 169 503 110 460 c 1
 30 460 l 1
 79 514 117 584 120 631 c 1
 77 638 45 675 45 720 c 4
 45 771 84 810 135 810 c 0
EndSplineSet
EndChar

StartChar: Euro
Encoding: 275 8364 200
Width: 750
Flags: W
HStem: -20 120<385.12 617.192> 250 100<40 140 302 580> 450 100<40 140 303 580> 700 120<385.662 617.192>
VStem: 140 160<184.075 250 350 450 550 613.121>
LayerCount: 2
Fore
SplineSet
710 740 m 1
 649 650 l 1
 616 683 569 700 490 700 c 0
 387 700 318 645 303 550 c 1
 580 550 l 1
 580 450 l 1
 300 450 l 1
 300 350 l 1
 580 350 l 1
 580 250 l 1
 302 250 l 1
 314 157 384 100 490 100 c 0
 569 100 616 117 649 150 c 1
 710 60 l 1
 673 21 609 -20 490 -20 c 0
 295 -20 156 85 141 250 c 1
 40 250 l 1
 40 350 l 1
 140 350 l 1
 140 450 l 1
 40 450 l 1
 40 550 l 1
 143 550 l 1
 162 706 299 820 490 820 c 0
 609 820 673 779 710 740 c 1
EndSplineSet
EndChar

StartChar: yen
Encoding: 276 165 201
Width: 740
VWidth: 0
Flags: W
HStem: 0 21G<290 450> 140 100<50 290 450 690> 360 100<50 200 540 690> 780 20G<20 209.471 530.529 720>
VStem: 290 160<0 140 240 290>
LayerCount: 2
Fore
SplineSet
20 800 m 1
 200 800 l 1
 361 460 l 1
 379 460 l 1
 540 800 l 1
 720 800 l 1
 540 460 l 1
 690 460 l 1
 690 360 l 1
 487 360 l 1
 450 290 l 1
 450 240 l 1
 690 240 l 1
 690 140 l 1
 450 140 l 1
 450 0 l 1
 290 0 l 1
 290 140 l 1
 50 140 l 1
 50 240 l 1
 290 240 l 1
 290 290 l 1
 253 360 l 1
 50 360 l 1
 50 460 l 1
 200 460 l 1
 20 800 l 1
EndSplineSet
EndChar

StartChar: sterling
Encoding: 277 163 202
Width: 730
Flags: W
HStem: 0 120<220 690> 350 100<50 141 306 550> 700 120<329.103 430.897>
VStem: 141 157<224.745 350> 148 158<450 677.21> 450 160<590 682.469>
LayerCount: 2
Fore
SplineSet
380 820 m 0xec
 518 820 610 724 610 590 c 1
 450 590 l 1
 450 662 429 700 380 700 c 0
 331 700 310 662 310 590 c 0
 310 541 309 494 306 450 c 1xec
 550 450 l 1
 550 350 l 1
 298 350 l 1
 285 227 258 142 220 120 c 1
 690 120 l 1
 690 0 l 1
 50 0 l 1
 50 120 l 1
 105 171 130 245 141 350 c 1xf4
 50 350 l 1
 50 450 l 1
 148 450 l 1
 150 493 150 539 150 590 c 0
 150 724 242 820 380 820 c 0xec
EndSplineSet
EndChar

StartChar: cent
Encoding: 278 162 203
Width: 650
Flags: W
HStem: 84 116<245.798 275 395 417.849> 600 350<276.763 393.347>
VStem: 50 160<233.992 558.243> 275 120<-150 87.821 710.509 950> 450 160<232.71 300 500 563.988>
LayerCount: 2
Fore
SplineSet
275 950 m 1
 395 950 l 1
 395 715 l 1
 521 695 610 611 610 500 c 1
 450 500 l 1
 450 564 401 600 335 600 c 0
 269 600 210 562 210 480 c 2
 210 300 l 2
 210 227 269 200 335 200 c 0
 401 200 450 231 450 300 c 1
 610 300 l 1
 610 181 519 103 395 84 c 1
 395 -150 l 1
 275 -150 l 1
 275 84 l 1
 148 101 50 172 50 300 c 2
 50 480 l 2
 50 609 147 695 275 715 c 1
 275 950 l 1
EndSplineSet
EndChar

StartChar: copyright
Encoding: 279 169 204
Width: 940
Flags: W
HStem: -20 70<343.439 596.561> 190 60<400.072 549.928> 550 60<400.484 549.516> 750 70<343.439 596.561>
VStem: 50 70<273.439 526.561> 300 80<271.844 527.216> 570 80<271.844 330 465 527.216> 820 70<273.439 526.561>
LayerCount: 2
Fore
SplineSet
475 610 m 0
 578 610 650 551 650 465 c 1
 570 465 l 1
 570 528 526 550 475 550 c 0
 424 550 380 528 380 465 c 2
 380 330 l 2
 380 272 426 250 475 250 c 0
 524 250 570 272 570 330 c 1
 650 330 l 1
 650 244 578 190 475 190 c 0
 372 190 300 244 300 330 c 2
 300 465 l 2
 300 551 372 610 475 610 c 0
470 820 m 0
 702 820 890 632 890 400 c 0
 890 168 702 -20 470 -20 c 0
 238 -20 50 168 50 400 c 0
 50 632 238 820 470 820 c 0
470 750 m 0
 277 750 120 593 120 400 c 0
 120 207 277 50 470 50 c 0
 663 50 820 207 820 400 c 0
 820 593 663 750 470 750 c 0
EndSplineSet
EndChar

StartChar: registered
Encoding: 280 174 205
Width: 940
Flags: W
HStem: -20 70<343.439 596.561> 350 60<400 495> 540 60<400 547.562> 750 70<343.439 596.561>
VStem: 50 70<273.439 526.561> 320 80<200 350 410 540> 560 80<422.778 527.839> 820 70<273.439 526.561>
LayerCount: 2
Fore
SplineSet
480 540 m 6
 400 540 l 5
 400 410 l 5
 480 410 l 6
 542 410 560 440 560 475 c 4
 560 510 542 540 480 540 c 6
505 600 m 6
 606 600 640 529 640 475 c 4
 640 436 622 388 574 364 c 5
 670 200 l 5
 580 200 l 5
 495 350 l 5
 400 350 l 5
 400 200 l 5
 320 200 l 5
 320 600 l 5
 505 600 l 6
470 820 m 0
 702 820 890 632 890 400 c 0
 890 168 702 -20 470 -20 c 0
 238 -20 50 168 50 400 c 0
 50 632 238 820 470 820 c 0
470 750 m 0
 277 750 120 593 120 400 c 0
 120 207 277 50 470 50 c 0
 663 50 820 207 820 400 c 0
 820 593 663 750 470 750 c 0
EndSplineSet
EndChar

StartChar: brokenbar
Encoding: 285 166 210
Width: 320
Flags: W
HStem: 880 20G<100 220>
VStem: 100 120<-180 270 450 900>
LayerCount: 2
Fore
SplineSet
100 900 m 1
 220 900 l 1
 220 450 l 1
 100 450 l 1
 100 900 l 1
100 270 m 1
 220 270 l 1
 220 -180 l 5
 100 -180 l 5
 100 270 l 1
EndSplineSet
Validated: 1
EndChar

StartChar: section
Encoding: 286 167 211
Width: 680
Flags: W
HStem: -20 120<240.573 439.427> 700 120<254.816 425.184>
VStem: 70 160<590.24 674.042> 70 140<380.499 477.249> 470 160<130.45 224.846> 490 140<337.872 435.498>
LayerCount: 2
Fore
SplineSet
586 294 m 1xe4
 613 271 630 237 630 185 c 0
 630 80 534 -20 340 -20 c 0
 146 -20 50 80 50 185 c 1
 210 185 l 1
 210 130 263 100 340 100 c 0
 417 100 470 130 470 185 c 0
 470 227 418 241 340 250 c 0
 232 262 70 282 70 425 c 0xd8
 70 462 95 493 126 517 c 1
 92 538 70 572 70 625 c 0
 70 717 161 820 340 820 c 0
 519 820 610 717 610 625 c 1
 450 625 l 1
 450 659 418 700 340 700 c 0
 262 700 230 659 230 625 c 0
 230 593 266 579 340 570 c 0
 463 555 630 548 630 385 c 0
 630 347 612 317 586 294 c 1xe4
241 481 m 1
 223 468 210 449 210 425 c 0
 210 374 266 359 340 350 c 0
 380 345 425 343 467 337 c 1
 481 349 490 365 490 385 c 0xd4
 490 453 418 461 340 470 c 0
 310 473 275 476 241 481 c 1
EndSplineSet
EndChar

StartChar: endash
Encoding: 287 8211 213
Width: 670
VWidth: 0
Flags: W
HStem: 270 100<60 620>
LayerCount: 2
Fore
SplineSet
60 370 m 5
 620 370 l 1
 620 270 l 1
 60 270 l 5
 60 370 l 5
EndSplineSet
EndChar

StartChar: guilsinglleft
Encoding: 288 8249 214
Width: 390
Flags: W
VStem: 60 290
LayerCount: 2
Fore
SplineSet
200 320 m 5
 350 90 l 5
 230 90 l 1
 60 320 l 1
 230 550 l 1
 350 550 l 5
 200 320 l 5
EndSplineSet
Validated: 1
EndChar

StartChar: ellipsis
Encoding: 290 8230 216
Width: 860
VWidth: 0
Flags: W
HStem: 0 200<82.4561 217.544 362.456 497.544 642.456 777.544>
VStem: 50 200<32.4561 167.544> 330 200<32.4561 167.544> 610 200<32.4561 167.544>
CounterMasks: 1 70
LayerCount: 2
Fore
SplineSet
250 100 m 0
 250 44 206 0 150 0 c 0
 94 0 50 44 50 100 c 0
 50 156 94 200 150 200 c 0
 206 200 250 156 250 100 c 0
530 100 m 0
 530 44 486 0 430 0 c 0
 374 0 330 44 330 100 c 0
 330 156 374 200 430 200 c 0
 486 200 530 156 530 100 c 0
810 100 m 0
 810 44 766 0 710 0 c 0
 654 0 610 44 610 100 c 0
 610 156 654 200 710 200 c 0
 766 200 810 156 810 100 c 0
EndSplineSet
LCarets2: 2 0 0 
Ligature2: "'liga' Latin Standard Ligatures-1" period period period
EndChar

StartChar: emdash
Encoding: 292 8212 218
Width: 970
VWidth: 0
Flags: W
HStem: 270 100<60 920>
LayerCount: 2
Fore
SplineSet
60 370 m 5
 920 370 l 1
 920 270 l 1
 60 270 l 5
 60 370 l 5
EndSplineSet
EndChar

StartChar: degree
Encoding: 296 176 222
Width: 360
VWidth: 0
Flags: W
HStem: 670 80<121.165 238.835> 910 80<121.165 238.835>
VStem: 20 80<771.165 888.835> 260 80<771.165 888.835>
LayerCount: 2
Fore
SplineSet
180 990 m 4
 268 990 340 918 340 830 c 4
 340 742 268 670 180 670 c 4
 92 670 20 742 20 830 c 4
 20 918 92 990 180 990 c 4
180 910 m 4
 136 910 100 874 100 830 c 4
 100 786 136 750 180 750 c 4
 224 750 260 786 260 830 c 4
 260 874 224 910 180 910 c 4
EndSplineSet
EndChar

StartChar: plusminus
Encoding: 297 177 223
Width: 560
VWidth: 0
Flags: W
HStem: 40 100<50 510> 350 100<50 220 340 510> 580 20G<220 340>
VStem: 220 120<200 350 450 600>
LayerCount: 2
Fore
SplineSet
50 140 m 5
 510 140 l 5
 510 40 l 5
 50 40 l 5
 50 140 l 5
340 200 m 5
 220 200 l 5
 220 350 l 5
 50 350 l 5
 50 450 l 5
 220 450 l 5
 220 600 l 5
 340 600 l 5
 340 450 l 5
 510 450 l 5
 510 350 l 5
 340 350 l 5
 340 200 l 5
EndSplineSet
Validated: 1
EndChar

StartChar: dagger
Encoding: 304 8224 230
Width: 580
VWidth: 0
Flags: W
HStem: 530 70<40 240 340 540> 880 20G<240 340>
VStem: 240 100<-270 530 600 900>
LayerCount: 2
Fore
SplineSet
340 900 m 1
 340 600 l 1
 540 600 l 1
 540 530 l 1
 340 530 l 1
 340 -270 l 1
 240 -270 l 5
 240 530 l 5
 40 530 l 1
 40 600 l 1
 240 600 l 5
 240 900 l 5
 340 900 l 1
EndSplineSet
EndChar

StartChar: bullet
Encoding: 305 8226 231
Width: 440
VWidth: 0
Flags: W
HStem: 150 320<133.923 306.077>
VStem: 60 320<223.923 396.077>
LayerCount: 2
Fore
SplineSet
380 310 m 0
 380 222 308 150 220 150 c 0
 132 150 60 222 60 310 c 0
 60 398 132 470 220 470 c 0
 308 470 380 398 380 310 c 0
EndSplineSet
Validated: 1
EndChar

StartChar: perthousand
Encoding: 308 8240 234
Width: 1170
VWidth: 0
Flags: W
HStem: -10 100<564.631 637.882 924.631 997.882> 0 21G<70 224> 250 100<564.631 637.882 924.631 997.882> 450 100<174.631 247.882> 710 100<174.631 247.882> 780 20G<616 770>
VStem: 50 110<560.005 699.995> 260 110<559.069 700.931> 440 110<100.005 239.995> 650 110<99.0687 240.931> 800 110<100.005 239.995> 1010 110<99.0687 240.931>
LayerCount: 2
Fore
SplineSet
630 800 m 1x77f0
 770 800 l 1
 210 0 l 1
 70 0 l 1
 630 800 l 1x77f0
210 810 m 0x3bf0
 304 810 370 729 370 630 c 0
 370 531 304 450 210 450 c 0
 116 450 50 531 50 630 c 0
 50 729 116 810 210 810 c 0x3bf0
211 710 m 0
 178 710 160 668 160 630 c 0
 160 592 178 550 211 550 c 0
 244 550 260 592 260 630 c 0
 260 668 244 710 211 710 c 0
600 350 m 0
 694 350 760 269 760 170 c 0
 760 71 694 -10 600 -10 c 0xb3f0
 506 -10 440 71 440 170 c 0
 440 269 506 350 600 350 c 0
601 250 m 0
 568 250 550 208 550 170 c 0
 550 132 568 90 601 90 c 0
 634 90 650 132 650 170 c 0
 650 208 634 250 601 250 c 0
960 350 m 0
 1054 350 1120 269 1120 170 c 0
 1120 71 1054 -10 960 -10 c 0
 866 -10 800 71 800 170 c 0
 800 269 866 350 960 350 c 0
961 250 m 0
 928 250 910 208 910 170 c 0
 910 132 928 90 961 90 c 0
 994 90 1010 132 1010 170 c 0
 1010 208 994 250 961 250 c 0
EndSplineSet
EndChar

StartChar: dotlessi
Encoding: 309 305 235
Width: 320
VWidth: 0
Flags: W
HStem: 0 21G<80 240> 580 20G<80 240>
VStem: 80 160<0 600>
AnchorPoint: "hook_above" 160 680 basechar 0
AnchorPoint: "ogonek" 160 40 basechar 0
AnchorPoint: "diac_top" 160 650 basechar 0
AnchorPoint: "diac_bottom" 160 -50 basechar 0
LayerCount: 2
Fore
SplineSet
80 600 m 1
 240 600 l 1
 240 0 l 1
 80 0 l 1
 80 600 l 1
EndSplineSet
EndChar

StartChar: uni0237
Encoding: 310 567 236
Width: 340
VWidth: 0
Flags: W
HStem: -290 120<-30 72.2527> 580 20G<100 260>
VStem: 100 160<-143.155 600>
AnchorPoint: "diac_bottom" 380 -50 basechar 0
AnchorPoint: "diac_top" 180 650 basechar 0
LayerCount: 2
Fore
SplineSet
260 -80 m 2
 260 -212 175 -290 -30 -290 c 1
 -30 -170 l 1
 59 -170 100 -141 100 -80 c 2
 100 600 l 1
 260 600 l 1
 260 -80 l 2
EndSplineSet
EndChar

StartChar: ae
Encoding: 311 230 237
Width: 1040
VWidth: 0
Flags: W
HStem: -20 120<232.564 399.205 627.879 790.702> 270 90<230.871 430 590 830> 500 120<257.364 405.264 629.558 791.669>
VStem: 50 160<124.151 251.009> 70 160<400 471.176> 430 160<136.277 270 360 458.786> 830 160<138.479 200 360 457.719>
AnchorPoint: "diac_bottom" 520 -50 basechar 0
AnchorPoint: "diac_top" 520 650 basechar 0
LayerCount: 2
Fore
SplineSet
430 270 m 1xf6
 300 270 l 2
 234 270 210 237 210 185 c 0
 210 145 231 100 310 100 c 0
 364 100 407 121 430 160 c 1
 430 200 l 1
 430 270 l 1xf6
830 360 m 1
 830 443 799 500 710 500 c 0
 621 500 590 443 590 360 c 1
 830 360 l 1
230 400 m 1xee
 70 400 l 1xee
 70 537 171 620 330 620 c 0
 412 620 478 598 523 559 c 1
 568 596 630 620 710 620 c 0
 900 620 990 482 990 360 c 2
 990 270 l 1
 590 270 l 1
 590 200 l 2
 590 149 632 100 710 100 c 0
 788 100 830 149 830 200 c 1
 990 200 l 1
 990 89 889 -20 710 -20 c 0
 617 -20 545 10 497 54 c 1
 451 10 381 -20 280 -20 c 0
 130 -20 50 75 50 185 c 0xf6
 50 316 160 360 290 360 c 2
 430 360 l 1
 430 400 l 2
 430 482 379 500 330 500 c 0
 281 500 230 482 230 400 c 1xee
EndSplineSet
EndChar

StartChar: AE
Encoding: 312 198 238
Width: 1000
VWidth: 0
Flags: W
HStem: 0 120<610 960> 150 120<302 450> 340 120<610 920> 680 120<610 950>
VStem: 450 160<120 150 270 340 460 574>
AnchorPoint: "diac_bottom" 610 -50 basechar 0
AnchorPoint: "diac_top" 610 850 basechar 0
LayerCount: 2
Fore
SplineSet
610 120 m 1
 960 120 l 1
 960 0 l 1
 450 0 l 1
 450 150 l 1
 243 150 l 1
 170 0 l 1
 0 0 l 1
 400 800 l 1
 450 800 l 1
 560 800 l 1
 950 800 l 1
 950 680 l 1
 610 680 l 1
 610 460 l 1
 920 460 l 1
 920 340 l 1
 610 340 l 1
 610 120 l 1
450 270 m 1
 450 574 l 1
 302 270 l 1
 450 270 l 1
EndSplineSet
EndChar

StartChar: multiply
Encoding: 314 215 240
Width: 560
VWidth: 0
Flags: W
LayerCount: 2
Fore
SplineSet
46 475 m 1
 124 553 l 1
 279 397 l 1
 435 553 l 1
 513 475 l 1
 357 320 l 1
 513 164 l 1
 435 86 l 1
 279 242 l 1
 124 86 l 1
 46 164 l 1
 202 320 l 1
 46 475 l 1
EndSplineSet
EndChar

StartChar: divide
Encoding: 315 247 241
Width: 560
VWidth: 0
Flags: W
HStem: 60 160<220.847 339.153> 270 100<50 510> 420 160<220.847 339.153>
VStem: 200 160<80.8466 199.153 440.847 559.153>
CounterMasks: 1 e0
LayerCount: 2
Fore
SplineSet
50 370 m 1
 510 370 l 1
 510 270 l 1
 50 270 l 1
 50 370 l 1
360 140 m 0
 360 96 324 60 280 60 c 0
 236 60 200 96 200 140 c 0
 200 184 236 220 280 220 c 0
 324 220 360 184 360 140 c 0
360 500 m 0
 360 456 324 420 280 420 c 0
 236 420 200 456 200 500 c 0
 200 544 236 580 280 580 c 0
 324 580 360 544 360 500 c 0
EndSplineSet
EndChar

StartChar: thorn
Encoding: 316 254 242
Width: 690
VWidth: 0
Flags: W
HStem: -20 120<268.287 437.756> 500 120<282.838 444.432> 880 20G<70 230>
VStem: 70 160<-270 30 123.51 472.586 557 900> 490 160<157.287 452.764>
LayerCount: 2
Fore
SplineSet
230 447 m 5
 230 142 l 5
 258 116 298 100 350 100 c 4
 452 100 490 165 490 260 c 6
 490 360 l 6
 490 443 452 500 350 500 c 4
 290 500 252 477 230 447 c 5
230 557 m 5
 271 595 326 620 400 620 c 4
 539 620 650 512 650 360 c 6
 650 260 l 6
 650 72 536 -20 380 -20 c 4
 320 -20 270 0 230 30 c 5
 230 -270 l 5
 70 -270 l 5
 70 900 l 5
 230 900 l 5
 230 557 l 5
EndSplineSet
EndChar

StartChar: germandbls
Encoding: 317 223 243
Width: 810
VWidth: 0
Flags: W
HStem: -270 120<230 527.048> 0 21G<70 230> 480 120<230 570> 780 120<257.747 360>
VStem: 70 160<0 480 600 753.155> 610 160<-61.5347 143.84>
LayerCount: 2
Fore
SplineSet
70 690 m 2
 70 822 155 900 360 900 c 1
 360 780 l 1
 271 780 230 751 230 690 c 2
 230 600 l 1
 710 600 l 1
 710 480 l 1
 547 334 l 1
 682 296 770 188 770 40 c 0
 770 -148 629 -270 430 -270 c 2
 230 -270 l 1
 230 -150 l 1
 430 -150 l 2
 540 -150 610 -70 610 40 c 0
 610 150 540 230 430 230 c 2
 330 230 l 1
 330 280 l 1
 570 480 l 1
 230 480 l 1
 230 0 l 1
 70 0 l 1
 70 690 l 2
EndSplineSet
EndChar

StartChar: Thorn
Encoding: 319 222 245
Width: 750
VWidth: 0
Flags: W
HStem: 0 21G<70 230> 200 120<230 493.103> 580 120<230 493.103> 780 20G<70 230>
VStem: 70 160<0 200 320 580 700 800> 550 160<369.344 530.818>
LayerCount: 2
Fore
SplineSet
70 800 m 5
 230 800 l 5
 230 700 l 5
 440 700 l 6
 641 700 710 558 710 450 c 4
 710 342 641 200 440 200 c 6
 230 200 l 5
 230 0 l 5
 70 0 l 5
 70 800 l 5
230 580 m 5
 230 320 l 5
 390 320 l 6
 513 321 550 379 550 450 c 4
 550 521 513 580 390 580 c 6
 230 580 l 5
EndSplineSet
EndChar

StartChar: ampersand
Encoding: 38 38 248
Width: 800
VWidth: 0
Flags: W
HStem: -20 120<256.408 456.891> 0 21G<603.929 790> 700 120<315.581 432.964>
VStem: 50 160<143.616 287.72> 150 150<561.312 683.387> 450 150<559.137 684.116> 600 150<265.551 380>
LayerCount: 2
Fore
SplineSet
380 820 m 0xa8
 523 820 600 735 600 630 c 0xac
 600 532 532 470 452 424 c 1
 580 264 l 1
 593 297 600 336 600 380 c 1
 750 380 l 1
 750 294 720 215 671 150 c 1
 790 0 l 1
 620 0 l 1x62
 575 56 l 1
 508 8 429 -20 350 -20 c 0
 170 -20 50 72 50 210 c 0xb2
 50 332 145 403 251 457 c 1
 212 491 150 551 150 630 c 0
 150 735 237 820 380 820 c 0xa8
380 700 m 0
 333 700 300 677 300 630 c 0
 300 585 335 544 367 514 c 1
 416 542 450 577 450 630 c 0
 450 669 423 700 380 700 c 0
333 363 m 1
 239 311 210 265 210 210 c 0xb0
 210 149 264 100 350 100 c 0
 401 100 455 118 499 153 c 1
 333 363 l 1
EndSplineSet
Validated: 1
EndChar

StartChar: currency
Encoding: 322 164 249
Width: 1040
VWidth: 0
Flags: W
HStem: -20 160<406.638 631.267> 660 160<406.638 633.144>
VStem: 100 160<286.856 513.362> 780 160<288.733 513.362>
LayerCount: 2
Fore
SplineSet
152 881 m 1
 285 748 l 1
 352 794 433 820 520 820 c 0
 607 820 688 794 755 748 c 1
 888 881 l 1
 1001 768 l 1
 868 635 l 1
 913 568 940 487 940 400 c 0
 940 313 913 232 868 165 c 1
 1001 32 l 1
 888 -81 l 1
 755 52 l 1
 688 7 607 -20 520 -20 c 0
 433 -20 352 7 285 52 c 1
 152 -81 l 1
 39 32 l 1
 172 165 l 1
 126 232 100 313 100 400 c 0
 100 487 126 568 172 635 c 1
 39 768 l 1
 152 881 l 1
520 660 m 0
 376 660 260 544 260 400 c 0
 260 257 376 140 520 140 c 0
 663 140 780 257 780 400 c 0
 780 544 663 660 520 660 c 0
EndSplineSet
EndChar

StartChar: uni00B5
Encoding: 323 181 250
Width: 680
VWidth: 0
Flags: W
HStem: -20 120<309.773 443.195> 580 20G<70 230 470 630>
VStem: 70 160<-270 61 136.555 600> 470 160<127.646 600>
LayerCount: 2
Fore
SplineSet
70 -270 m 5
 70 600 l 5
 230 600 l 5
 230 163 l 5
 259 127 301 100 360 100 c 4
 422 100 470 128 470 190 c 6
 470 600 l 5
 630 600 l 5
 630 190 l 6
 630 59 544 -20 420 -20 c 4
 338 -20 272 22 230 61 c 5
 230 -270 l 5
 70 -270 l 5
EndSplineSet
EndChar

StartChar: paragraph
Encoding: 324 182 251
Width: 740
VWidth: 0
Flags: W
HStem: 0 21G<270 430 510 670> 680 120<430 510>
VStem: 30 160<468.654 630.788> 270 160<0 303.731 431 669> 510 160<0 680>
CounterMasks: 1 38
LayerCount: 2
Fore
SplineSet
430 680 m 1
 430 0 l 1
 270 0 l 1
 270 301 l 1
 92 315 30 447 30 550 c 0
 30 658 99 800 300 800 c 2
 670 800 l 1
 670 0 l 1
 510 0 l 1
 510 680 l 1
 430 680 l 1
270 431 m 1
 270 669 l 1
 210 648 190 602 190 550 c 0
 190 498 210 452 270 431 c 1
EndSplineSet
EndChar

StartChar: macron
Encoding: 325 175 252
Width: 560
VWidth: 0
Flags: W
HStem: 700 100<50 510>
LayerCount: 2
Fore
SplineSet
50 800 m 5
 510 800 l 5
 510 700 l 5
 50 700 l 5
 50 800 l 5
EndSplineSet
EndChar

StartChar: logicalnot
Encoding: 326 172 253
Width: 600
VWidth: 0
Flags: W
HStem: 410 190<430 550> 510 90<40 430>
VStem: 430 120<410 510>
LayerCount: 2
Fore
SplineSet
40 600 m 1x60
 550 600 l 1
 550 410 l 1
 430 410 l 1xa0
 430 510 l 1
 40 510 l 1
 40 600 l 1x60
EndSplineSet
EndChar

StartChar: uni20A9
Encoding: 330 8361 257
Width: 1300
VWidth: 0
Flags: W
HStem: 0 21G<334 495.744 804.256 966> 390 100<50 193 383 463 631 669 837 917 1107 1250> 590 100<50 133 330 520 780 970 1167 1250> 780 20G<100 280.273 574.182 725.818 1019.73 1200>
LayerCount: 2
Fore
SplineSet
996 690 m 1
 1025 800 l 1
 1200 800 l 1
 1167 690 l 1
 1250 690 l 1
 1250 590 l 1
 1137 590 l 1
 1107 490 l 1
 1250 490 l 1
 1250 390 l 1
 1077 390 l 1
 960 0 l 1
 950 0 l 1
 815 0 l 1
 810 0 l 1
 698 390 l 1
 602 390 l 1
 490 0 l 1
 485 0 l 1
 350 0 l 1
 340 0 l 1
 223 390 l 1
 50 390 l 1
 50 490 l 1
 193 490 l 1
 163 590 l 1
 50 590 l 1
 50 690 l 1
 133 690 l 1
 100 800 l 1
 275 800 l 1
 304 690 l 1
 548 690 l 1
 580 800 l 1
 720 800 l 1
 752 690 l 1
 996 690 l 1
970 590 m 1
 780 590 l 1
 809 490 l 1
 943 490 l 1
 970 590 l 1
917 390 m 1
 837 390 l 1
 879 245 l 1
 917 390 l 1
520 590 m 1
 330 590 l 1
 357 490 l 1
 491 490 l 1
 520 590 l 1
463 390 m 1
 383 390 l 1
 421 245 l 1
 463 390 l 1
631 490 m 1
 669 490 l 1
 650 557 l 1
 631 490 l 1
EndSplineSet
EndChar

StartChar: uni20B9
Encoding: 331 8377 258
Width: 720
VWidth: 0
Flags: W
HStem: 0 21G<391.538 590> 515 90<50 362 523.229 670> 710 90<50 304.862 475 670>
VStem: 367 161<450.739 515 605 648.968>
LayerCount: 2
Fore
SplineSet
50 515 m 1
 50 605 l 1
 362 605 l 1
 346 660 302 710 210 710 c 2
 50 710 l 1
 50 800 l 1
 260 800 l 1
 670 800 l 1
 670 710 l 1
 475 710 l 1
 501 678 516 641 524 605 c 1
 670 605 l 1
 670 515 l 1
 528 515 l 1
 515 423 453 321 307 303 c 1
 590 0 l 1
 410 0 l 1
 50 390 l 1
 210 390 l 2
 313 390 356 453 367 515 c 1
 50 515 l 1
EndSplineSet
EndChar

StartChar: uni0337
Encoding: 333 823 260
Width: 0
VWidth: 0
Flags: W
HStem: 0 21G<-630 -518.833> 580 20G<-161.167 -50>
LayerCount: 2
Fore
SplineSet
-145 600 m 5
 -50 600 l 5
 -535 0 l 5
 -630 0 l 5
 -145 600 l 5
EndSplineSet
EndChar

StartChar: uni0338
Encoding: 334 824 261
Width: 0
VWidth: 0
Flags: W
HStem: 0 21G<-760 -645> 780 20G<-175 -60>
LayerCount: 2
Fore
SplineSet
-160 800 m 5
 -60 800 l 5
 -660 0 l 5
 -760 0 l 5
 -160 800 l 5
EndSplineSet
EndChar

StartChar: dieresis
Encoding: 335 168 262
Width: 680
VWidth: 0
Flags: W
HStem: 630 180<126.25 253.75 426.25 553.75>
VStem: 100 180<656.25 783.75> 400 180<656.25 783.75>
LayerCount: 2
Fore
SplineSet
280 720 m 0
 280 670 240 630 190 630 c 0
 140 630 100 670 100 720 c 0
 100 770 140 810 190 810 c 0
 240 810 280 770 280 720 c 0
580 720 m 0
 580 670 540 630 490 630 c 0
 440 630 400 670 400 720 c 0
 400 770 440 810 490 810 c 0
 540 810 580 770 580 720 c 0
EndSplineSet
EndChar

StartChar: gravecomb
Encoding: 385 768 312
Width: 0
VWidth: 0
Flags: W
HStem: 880 180
VStem: -620 360
AnchorPoint: "diac_top" -390 850 mark 0
LayerCount: 2
Fore
SplineSet
-620 1060 m 5
 -430 1060 l 5
 -260 880 l 5
 -370 880 l 5
 -620 1060 l 5
EndSplineSet
EndChar

StartChar: uni0302
Encoding: 386 770 313
Width: 0
VWidth: 0
Flags: W
HStem: 880 180
AnchorPoint: "diac_top" -400 850 mark 0
LayerCount: 2
Fore
SplineSet
-490 880 m 1
 -640 880 l 1
 -460 1060 l 1
 -440 1060 l 1
 -360 1060 l 1
 -340 1060 l 1
 -160 880 l 1
 -310 880 l 1
 -400 1005 l 1
 -490 880 l 1
EndSplineSet
EndChar

StartChar: tildecomb
Encoding: 387 771 314
Width: 0
VWidth: 0
Flags: W
HStem: 870 90<-356.043 -253.672> 960 90<-546.328 -443.957>
VStem: -630 65<898.708 942.436> -235 65<977.564 1021.29>
AnchorPoint: "diac_top" -400 850 mark 0
LayerCount: 2
Fore
SplineSet
-485 1050 m 4x70
 -444 1050 -408 1039 -375 1005 c 4
 -345 974 -334 960 -300 960 c 4
 -260 960 -239 1003 -235 1030 c 5
 -170 1020 l 5
 -180 943 -229 870 -315 870 c 4xb0
 -356 870 -392 881 -425 915 c 4
 -455 946 -466 960 -500 960 c 4
 -540 960 -561 917 -565 890 c 5
 -630 900 l 5
 -620 977 -571 1050 -485 1050 c 4x70
EndSplineSet
EndChar

StartChar: uni0304
Encoding: 388 772 315
Width: 0
VWidth: 0
Flags: W
HStem: 880 90<-640 -180>
AnchorPoint: "diac_top" -410 850 mark 0
LayerCount: 2
Fore
SplineSet
-640 970 m 5
 -180 970 l 5
 -180 880 l 1
 -640 880 l 1
 -640 970 l 5
EndSplineSet
EndChar

StartChar: uni0305
Encoding: 389 773 316
Width: 0
VWidth: 0
Flags: W
HStem: 880 90<-720 -100>
AnchorPoint: "diac_top" -410 850 mark 0
LayerCount: 2
Fore
SplineSet
-720 970 m 5
 -100 970 l 5
 -100 880 l 1
 -720 880 l 1
 -720 970 l 5
EndSplineSet
EndChar

StartChar: uni0306
Encoding: 390 774 317
Width: 0
VWidth: 0
Flags: W
HStem: 860 80<-482.672 -317.328>
VStem: -630 110<976.243 1040> -280 110<976.243 1040>
AnchorPoint: "diac_top" -400 850 mark 0
LayerCount: 2
Fore
SplineSet
-630 1040 m 5
 -520 1040 l 5
 -520 980 -467 940 -400 940 c 4
 -333 940 -280 980 -280 1040 c 5
 -170 1040 l 5
 -170 955 -251 860 -400 860 c 4
 -549 860 -630 955 -630 1040 c 5
EndSplineSet
EndChar

StartChar: uni0307
Encoding: 391 775 318
Width: 0
VWidth: 0
Flags: W
HStem: 880 180<-473.75 -346.25>
VStem: -500 180<906.25 1033.75>
AnchorPoint: "diac_top" -410 850 mark 0
LayerCount: 2
Fore
SplineSet
-320 970 m 0
 -320 920 -360 880 -410 880 c 4
 -460 880 -500 920 -500 970 c 0
 -500 1020 -460 1060 -410 1060 c 0
 -360 1060 -320 1020 -320 970 c 0
EndSplineSet
EndChar

StartChar: uni0308
Encoding: 392 776 319
Width: 0
VWidth: 0
Flags: W
HStem: 880 180<-613.75 -486.25 -313.75 -186.25>
VStem: -640 180<906.25 1033.75> -340 180<906.25 1033.75>
AnchorPoint: "diac_top" -400 850 mark 0
LayerCount: 2
Fore
SplineSet
-460 970 m 0
 -460 920 -500 880 -550 880 c 0
 -600 880 -640 920 -640 970 c 0
 -640 1020 -600 1060 -550 1060 c 0
 -500 1060 -460 1020 -460 970 c 0
-160 970 m 0
 -160 920 -200 880 -250 880 c 0
 -300 880 -340 920 -340 970 c 0
 -340 1020 -300 1060 -250 1060 c 0
 -200 1060 -160 1020 -160 970 c 0
EndSplineSet
EndChar

StartChar: hookabovecomb
Encoding: 393 777 320
Width: 0
VWidth: 0
Flags: W
HStem: 1040 80<-456.168 -323.832>
VStem: -570 100<980 1025.07> -310 100<940.417 1025.28>
AnchorPoint: "hook_above" -380 850 mark 0
LayerCount: 2
Fore
SplineSet
-310 980 m 4
 -310 1015 -343 1040 -390 1040 c 4
 -437 1040 -470 1015 -470 980 c 5
 -570 980 l 5
 -570 1036 -521 1120 -390 1120 c 4
 -259 1120 -210 1036 -210 980 c 4
 -210 869 -345 891 -345 840 c 5
 -455 840 l 5
 -455 927 -310 913 -310 980 c 4
EndSplineSet
EndChar

StartChar: uni030A
Encoding: 394 778 321
Width: 0
VWidth: 0
Flags: W
HStem: 760 80<-448.111 -351.21> 960 80<-448.111 -351.21>
VStem: -540 80<851.55 948.45> -340 80<851.137 948.863>
AnchorPoint: "ring_above" -400 760 mark 0
LayerCount: 2
Fore
SplineSet
-400 1040 m 0
 -322 1040 -260 977 -260 900 c 0
 -260 823 -322 760 -400 760 c 4
 -476 760 -540 823 -540 900 c 0
 -540 977 -476 1040 -400 1040 c 0
-400 960 m 0
 -432 960 -460 933 -460 900 c 0
 -460 867 -432 840 -400 840 c 0
 -366 840 -340 867 -340 900 c 0
 -340 933 -366 960 -400 960 c 0
EndSplineSet
EndChar

StartChar: uni030B
Encoding: 395 779 322
Width: 0
VWidth: 0
Flags: W
HStem: 880 180
AnchorPoint: "diac_top" -400 850 mark 0
LayerCount: 2
Fore
SplineSet
-80 1060 m 1
 -250 1060 l 1
 -360 880 l 1
 -270 880 l 1
 -80 1060 l 1
-320 1060 m 1
 -490 1060 l 1
 -600 880 l 1
 -510 880 l 1
 -320 1060 l 1
EndSplineSet
EndChar

StartChar: uni030F
Encoding: 397 783 324
Width: 0
VWidth: 0
Flags: W
HStem: 880 180
AnchorPoint: "diac_top" -400 850 mark 0
LayerCount: 2
Fore
SplineSet
-720 1060 m 1
 -550 1060 l 1
 -440 880 l 1
 -530 880 l 1
 -720 1060 l 1
-480 1060 m 1
 -310 1060 l 1
 -200 880 l 1
 -290 880 l 1
 -480 1060 l 1
EndSplineSet
EndChar

StartChar: uni0312
Encoding: 399 786 326
Width: 0
VWidth: 0
Flags: W
HStem: 880 350
AnchorPoint: "diac_top" -385 850 mark 0
LayerCount: 2
Fore
SplineSet
-385 880 m 0
 -447 880 -490 929 -490 990 c 0
 -490 1101 -420 1187 -360 1230 c 5
 -280 1230 l 5
 -330 1174 -360 1124 -360 1077 c 1
 -316 1066 -286 1028 -286 980 c 0
 -286 924 -329 880 -385 880 c 0
EndSplineSet
EndChar

StartChar: uni0313
Encoding: 400 787 327
Width: 0
VWidth: 0
Flags: W
HStem: 860 350
LayerCount: 2
Fore
SplineSet
-384 1210 m 0
 -322 1210 -280 1161 -280 1100 c 0
 -280 989 -350 903 -410 860 c 1
 -490 860 l 1
 -440 916 -410 966 -410 1013 c 1
 -454 1024 -484 1062 -484 1110 c 4
 -484 1166 -440 1210 -384 1210 c 0
EndSplineSet
EndChar

StartChar: uni0316
Encoding: 402 790 329
Width: 0
VWidth: 0
Flags: W
HStem: -260 180
VStem: -620 360
LayerCount: 2
Fore
SplineSet
-620 -80 m 1
 -430 -80 l 1
 -260 -260 l 1
 -370 -260 l 1
 -620 -80 l 1
EndSplineSet
EndChar

StartChar: dotbelowcomb
Encoding: 404 803 331
Width: 0
VWidth: 0
Flags: W
HStem: -260 180<-473.75 -346.25>
VStem: -500 180<-233.75 -106.25>
AnchorPoint: "diac_bottom" -410 -50 mark 0
LayerCount: 2
Fore
SplineSet
-320 -170 m 0
 -320 -220 -360 -260 -410 -260 c 0
 -460 -260 -500 -220 -500 -170 c 0
 -500 -120 -460 -80 -410 -80 c 0
 -360 -80 -320 -120 -320 -170 c 0
EndSplineSet
EndChar

StartChar: uni0324
Encoding: 405 804 332
Width: 0
VWidth: 0
Flags: W
HStem: -260 180<-613.75 -486.25 -313.75 -186.25>
VStem: -640 180<-233.75 -106.25> -340 180<-233.75 -106.25>
AnchorPoint: "diac_bottom" -400 -50 mark 0
LayerCount: 2
Fore
SplineSet
-460 -170 m 0
 -460 -220 -500 -260 -550 -260 c 0
 -600 -260 -640 -220 -640 -170 c 0
 -640 -120 -600 -80 -550 -80 c 4
 -500 -80 -460 -120 -460 -170 c 0
-160 -170 m 0
 -160 -220 -200 -260 -250 -260 c 0
 -300 -260 -340 -220 -340 -170 c 0
 -340 -120 -300 -80 -250 -80 c 0
 -200 -80 -160 -120 -160 -170 c 0
EndSplineSet
EndChar

StartChar: uni0325
Encoding: 406 805 333
Width: 0
VWidth: 0
Flags: W
HStem: -360 80<-448.45 -351.55> -160 80<-448.45 -351.55>
VStem: -540 80<-268.45 -171.55> -340 80<-268.45 -171.55>
AnchorPoint: "diac_bottom" -400 -50 mark 0
LayerCount: 2
Fore
SplineSet
-400 -80 m 4
 -323 -80 -260 -143 -260 -220 c 0
 -260 -297 -323 -360 -400 -360 c 0
 -477 -360 -540 -297 -540 -220 c 0
 -540 -143 -477 -80 -400 -80 c 4
-400 -160 m 0
 -433 -160 -460 -187 -460 -220 c 0
 -460 -253 -433 -280 -400 -280 c 0
 -367 -280 -340 -253 -340 -220 c 0
 -340 -187 -367 -160 -400 -160 c 0
EndSplineSet
EndChar

StartChar: uni0326
Encoding: 407 806 334
Width: 0
VWidth: 0
Flags: W
HStem: -430 350
AnchorPoint: "diac_bottom" -385 -50 mark 0
LayerCount: 2
Fore
SplineSet
-385 -80 m 4
 -323 -80 -280 -129 -280 -190 c 0
 -280 -301 -350 -387 -410 -430 c 1
 -490 -430 l 1
 -440 -374 -410 -324 -410 -277 c 1
 -454 -266 -484 -228 -484 -180 c 0
 -484 -124 -441 -80 -385 -80 c 4
EndSplineSet
EndChar

StartChar: uni0327
Encoding: 408 807 335
Width: 0
VWidth: 0
Flags: W
HStem: -390 90<-393.146 -206.854> -180 90<-364 -206.909>
VStem: -190 120<-280.184 -199.816>
AnchorPoint: "cedilla" -330 40 mark 0
LayerCount: 2
Fore
SplineSet
-350 20 m 5
 -260 20 l 5
 -364 -90 l 1
 -300 -90 l 2
 -138 -90 -70 -162 -70 -240 c 0
 -70 -318 -138 -390 -300 -390 c 0
 -462 -390 -530 -318 -530 -240 c 1
 -410 -240 l 1
 -410 -280 -357 -300 -300 -300 c 0
 -243 -300 -190 -280 -190 -240 c 0
 -190 -200 -243 -180 -300 -180 c 0
 -355 -180 -450 -180 -450 -180 c 1
 -480 -120 l 1
 -350 20 l 5
EndSplineSet
EndChar

StartChar: uni0328
Encoding: 409 808 336
Width: 0
VWidth: 0
Flags: W
HStem: -360 90<-399.074 -280.926>
VStem: -530 120<-258.077 -152.355> -400 90<-51.0188 20> -270 120<-257.232 -210>
AnchorPoint: "ogonek" -360 40 mark 0
LayerCount: 2
Fore
SplineSet
-410 -210 m 0
 -410 -246 -384 -270 -340 -270 c 0
 -296 -270 -270 -246 -270 -210 c 1
 -150 -210 l 1
 -150 -282 -204 -360 -340 -360 c 0
 -476 -360 -530 -282 -530 -210 c 0
 -530 -99 -401 -85 -400 20 c 5
 -310 20 l 5
 -310 -117 -410 -143 -410 -210 c 0
EndSplineSet
EndChar

StartChar: uni0330
Encoding: 414 816 341
Width: 0
VWidth: 0
Flags: W
HStem: -260 90<-356.043 -253.672> -170 90<-546.328 -443.957>
VStem: -630 65<-231.292 -187.564> -235 65<-152.436 -108.708>
AnchorPoint: "diac_bottom" -400 -50 mark 0
LayerCount: 2
Fore
SplineSet
-485 -80 m 4x70
 -444 -80 -408 -91 -375 -125 c 0
 -345 -156 -334 -170 -300 -170 c 0
 -260 -170 -239 -127 -235 -100 c 1
 -170 -110 l 1
 -180 -187 -229 -260 -315 -260 c 0xb0
 -356 -260 -392 -249 -425 -215 c 0
 -455 -184 -466 -170 -500 -170 c 0
 -540 -170 -561 -213 -565 -240 c 1
 -630 -230 l 1
 -620 -153 -571 -80 -485 -80 c 4x70
EndSplineSet
EndChar

StartChar: uni0331
Encoding: 415 817 342
Width: 0
VWidth: 0
Flags: W
HStem: -170 90<-640 -180>
AnchorPoint: "diac_bottom" -400 -50 mark 0
LayerCount: 2
Fore
SplineSet
-640 -80 m 5
 -180 -80 l 1
 -180 -170 l 1
 -640 -170 l 1
 -640 -80 l 5
EndSplineSet
EndChar

StartChar: uni0335
Encoding: 419 821 346
Width: 0
VWidth: 0
Flags: W
HStem: 270 80<-520 -40>
LayerCount: 2
Fore
SplineSet
-520 350 m 5
 -40 350 l 5
 -40 270 l 5
 -520 270 l 5
 -520 350 l 5
EndSplineSet
EndChar

StartChar: uni0336
Encoding: 420 822 347
Width: 0
VWidth: 0
Flags: W
HStem: 270 80<-800 0>
LayerCount: 2
Fore
SplineSet
-800 350 m 5
 0 350 l 5
 0 270 l 5
 -800 270 l 5
 -800 350 l 5
EndSplineSet
EndChar

StartChar: longs
Encoding: 421 383 348
Width: 360
VWidth: 0
Flags: W
HStem: 0 21G<70 230> 780 120<257.747 360>
VStem: 70 160<0 753.155>
LayerCount: 2
Fore
SplineSet
70 690 m 2
 70 822 155 900 360 900 c 1
 360 780 l 1
 271 780 230 751 230 690 c 2
 230 0 l 1
 70 0 l 1
 70 690 l 2
EndSplineSet
EndChar

StartChar: florin
Encoding: 422 402 349
Width: 440
VWidth: 0
Flags: W
HStem: -290 120<0 102.253> 480 120<30 130 290 420> 780 120<317.747 420>
VStem: 130 160<-143.155 480 600 753.155>
LayerCount: 2
Fore
SplineSet
290 -80 m 2
 290 -212 205 -290 0 -290 c 1
 0 -170 l 1
 89 -170 130 -141 130 -80 c 2
 130 0 l 1
 130 480 l 1
 30 480 l 1
 30 600 l 1
 130 600 l 1
 130 690 l 2
 130 822 215 900 420 900 c 1
 420 780 l 1
 331 780 290 751 290 690 c 2
 290 600 l 1
 420 600 l 1
 420 480 l 1
 290 480 l 1
 290 0 l 1
 290 -80 l 2
EndSplineSet
EndChar

StartChar: Eth
Encoding: 423 208 350
Width: 810
VWidth: 0
Flags: W
HStem: 0 120<260 495.823> 355 90<30 490> 680 120<260 490.883>
VStem: 100 160<120 680> 610 160<223.129 573.8>
CounterMasks: 1 e0
AnchorPoint: "diac_top" 360 850 basechar 0
AnchorPoint: "diac_bottom" 360 -50 basechar 0
AnchorPoint: "cedilla" 360 40 basechar 0
AnchorPoint: "ogonek" 360 40 basechar 0
LayerCount: 2
Fore
SplineSet
30 445 m 1
 490 445 l 1
 490 355 l 1
 30 355 l 1
 30 445 l 1
EndSplineSet
Refer: 115 68 N 1 0 0 1 30 0 2
EndChar

StartChar: uni1E9E
Encoding: 425 7838 352
Width: 840
VWidth: 0
Flags: W
HStem: -20 120<486.755 613.245> 0 21G<70 230> 700 120<302.574 506.973>
VStem: 70 160<0 627.562> 300 160<125.309 200> 640 160<124.549 270.301>
LayerCount: 2
Fore
SplineSet
300 200 m 1xbc
 460 200 l 1
 460 143 487 100 550 100 c 0xbc
 613 100 640 143 640 200 c 0
 640 290 531 360 360 360 c 5
 360 450 l 1
 570 610 l 1
 542 662 491 696 410 700 c 1
 328 700 230 669 230 520 c 2
 230 0 l 1
 70 0 l 1x7c
 70 520 l 2
 70 715 226 820 410 820 c 1
 535 819 685 755 740 590 c 1
 531 438 l 1
 698 411 800 337 800 200 c 0
 800 93 724 -20 550 -20 c 0
 376 -20 300 93 300 200 c 1xbc
EndSplineSet
EndChar

StartChar: uni0E34.narrow
Encoding: 426 -1 353
Width: 0
VWidth: 0
Flags: W
HStem: 850 100<-589.055 -452.225>
LayerCount: 2
Fore
SplineSet
-750 760 m 1
 -750 807 -697 950 -540 950 c 0
 -351 950 -280 753 -280 670 c 1
 -470 748 -629 760 -750 760 c 1
-604 798 m 1
 -541 792 -471 780 -396 756 c 1
 -419 802 -460 850 -530 850 c 0
 -569 850 -594 829 -604 798 c 1
EndSplineSet
EndChar

StartChar: uni0E35.narrow
Encoding: 427 -1 354
Width: 0
VWidth: 0
Flags: W
HStem: 850 100<-587.502 -465.39>
VStem: -400 120<826.641 940>
LayerCount: 2
Fore
SplineSet
-400 980 m 1
 -280 940 l 1
 -280 670 l 5
 -470 748 -629 760 -750 760 c 1
 -750 807 -707 950 -550 950 c 0
 -467 950 -414 888 -381 825 c 1
 -391 860 -400 895 -400 920 c 2
 -400 980 l 1
-604 798 m 1
 -543 793 -475 781 -404 759 c 1
 -432 804 -470 850 -530 850 c 0
 -569 850 -594 829 -604 798 c 1
EndSplineSet
EndChar

StartChar: uni0E36.narrow
Encoding: 428 -1 355
Width: 0
VWidth: 0
Flags: W
HStem: 850 100<-599.055 -463.429> 915 65<-413.36 -347.069>
VStem: -345 65<846.265 912.931>
LayerCount: 2
Fore
SplineSet
-380 915 m 0x60
 -399 915 -415 899 -415 880 c 0
 -415 861 -399 845 -380 845 c 0
 -361 845 -345 861 -345 880 c 0
 -345 899 -361 915 -380 915 c 0x60
-380 980 m 0
 -325 980 -280 935 -280 880 c 0
 -280 846 -297 815 -324 797 c 1
 -300 750 -290 702 -290 670 c 1
 -480 748 -639 760 -760 760 c 1
 -760 807 -707 950 -550 950 c 0xa0
 -518 950 -489 944 -464 935 c 1
 -446 962 -415 980 -380 980 c 0
-614 798 m 1
 -551 792 -481 780 -406 756 c 1
 -429 802 -470 850 -540 850 c 0
 -579 850 -604 829 -614 798 c 1
EndSplineSet
EndChar

StartChar: uni0E37.narrow
Encoding: 429 -1 356
Width: 0
VWidth: 0
Flags: W
HStem: 840 100<-584.743 -550>
VStem: -390 110<812.172 930>
LayerCount: 2
Fore
SplineSet
-390 970 m 1
 -280 930 l 1
 -280 660 l 1
 -470 738 -629 750 -750 750 c 1
 -750 797 -707 940 -550 940 c 1
 -550 1010 l 1
 -440 970 l 1
 -440 895 l 1
 -414 871 -394 841 -378 811 c 1
 -385 836 -390 861 -390 880 c 2
 -390 970 l 1
-404 749 m 1
 -432 794 -470 840 -530 840 c 0
 -569 840 -594 819 -604 788 c 1
 -543 783 -475 771 -404 749 c 1
EndSplineSet
EndChar

StartChar: uni0E31.narrow
Encoding: 430 -1 357
Width: 0
VWidth: 0
Flags: W
HStem: 700 90<-506.403 -418.278> 895 65<-614.783 -547.536>
VStem: -680 64<826.72 892.816> -546 66<826.225 893.036> -380 120<830.147 930>
LayerCount: 2
Fore
SplineSet
-580 960 m 4
 -525 960 -480 915 -480 860 c 4
 -480 833 -491 809 -508 791 c 5
 -500 790 -491 790 -480 790 c 4
 -413 790 -380 849 -380 930 c 5
 -260 930 l 5
 -260 814 -324 700 -480 700 c 4
 -589 700 -680 754 -680 860 c 4
 -680 915 -636 960 -580 960 c 4
-580 895 m 4
 -600 895 -616 879 -616 860 c 4
 -616 841 -600 825 -580 825 c 4
 -561 825 -546 841 -546 860 c 4
 -546 879 -561 895 -580 895 c 4
EndSplineSet
EndChar

StartChar: uni0E47.narrow
Encoding: 431 -1 358
Width: 0
VWidth: 0
Flags: W
HStem: 690 65<-449.15 -402> 850 50<-384.402 -325.598> 920 85<-570.866 -392.133>
VStem: -690 105<790.313 909.272> -435 50<790.442 849.402> -380 120<1017.77 1080> -325 50<790.828 849.402>
LayerCount: 2
Fore
SplineSet
-355 850 m 0xfa
 -372 850 -385 837 -385 820 c 0
 -385 803 -372 790 -355 790 c 0
 -338 790 -325 803 -325 820 c 0
 -325 837 -338 850 -355 850 c 0xfa
-355 900 m 0
 -311 900 -275 864 -275 820 c 0xfa
 -275 750 -328 690 -400 690 c 0
 -446 690 -482 710 -505 740 c 1
 -525 695 l 1
 -630 695 -690 761 -690 850 c 0
 -690 939 -630 1005 -525 1005 c 2
 -440 1005 l 2
 -397 1005 -380 1041 -380 1080 c 1
 -260 1080 l 1xfc
 -260 1008 -310 920 -400 920 c 2
 -525 920 l 2
 -555 920 -585 903 -585 850 c 0
 -585 813 -571 794 -552 785 c 1
 -535 830 l 1
 -465 830 l 1
 -465 803 -448 756 -402 755 c 1
 -422 770 -435 793 -435 820 c 0
 -435 864 -399 900 -355 900 c 0
EndSplineSet
EndChar

StartChar: uni0E49.narrow
Encoding: 432 -1 359
Width: 0
VWidth: 0
Flags: W
HStem: 700 125<-563.847 -506.217> 700 75<-634.995 -564> 885 55<-565.237 -506.223>
VStem: -620 54<825.364 884.507> -506 56<825.652 884.507> -380 130<812.845 910>
LayerCount: 2
Fore
SplineSet
-536 885 m 4xbc
 -552 885 -566 872 -566 855 c 4
 -566 838 -552 825 -536 825 c 4
 -518 825 -506 838 -506 855 c 4
 -506 872 -518 885 -536 885 c 4xbc
-536 940 m 4
 -488 940 -450 902 -450 855 c 4
 -450 815 -472 789 -488 776 c 5
 -412 783 -380 818 -380 910 c 5
 -250 910 l 5
 -250 780 -318 700 -520 700 c 6xbc
 -610 700 l 6
 -658 700 -670 775 -670 775 c 5
 -564 775 l 5x7c
 -596 787 -620 818 -620 855 c 4
 -620 902 -582 940 -536 940 c 4
EndSplineSet
EndChar

StartChar: uni0E4A.narrow
Encoding: 433 -1 360
Width: 0
VWidth: 0
Flags: W
HStem: 696 50<-629.203 -580.812> 700 60<-480 -464.207> 796 50<-615.858 -581.614> 880 66<-613.46 -558.039>
VStem: -700 70<746.52 845.441> -580 50<746.124 795.175> -460 80<799.879 878.81> -366 116<800.291 926>
LayerCount: 2
Fore
SplineSet
-606 796 m 4xbf
 -618 796 -630 784 -630 770 c 4
 -630 757 -618 746 -606 746 c 4
 -592 746 -580 757 -580 770 c 4
 -580 784 -592 796 -606 796 c 4xbf
-480 880 m 5
 -506 846 l 5
 -556 846 l 5
 -558 858 -566 880 -586 880 c 4
 -602 880 -612 863 -616 845 c 5
 -612 845 -608 846 -606 846 c 4
 -564 846 -530 812 -530 770 c 4
 -530 729 -564 696 -606 696 c 4xbf
 -670 696 -700 760 -700 820 c 4
 -700 881 -650 946 -596 946 c 4
 -556 946 -534 923 -520 903 c 5
 -496 946 l 5
 -480 946 l 6
 -424 946 -380 886 -380 826 c 4
 -380 817 -380 808 -382 799 c 5
 -372 815 -366 851 -366 926 c 5
 -250 926 l 5
 -250 782 -308 700 -480 700 c 5
 -480 760 l 5x7f
 -466 760 -460 786 -460 826 c 4
 -460 851 -468 875 -480 880 c 5
EndSplineSet
EndChar

StartChar: uni0292
Encoding: 434 658 361
Width: 610
VWidth: 0
Flags: W
HStem: -270 120<30 327.048> 480 120<30 370>
VStem: 410 160<-61.5347 143.84>
LayerCount: 2
Fore
SplineSet
30 600 m 1
 510 600 l 1
 510 480 l 1
 347 334 l 1
 482 296 570 188 570 40 c 0
 570 -148 429 -270 230 -270 c 2
 30 -270 l 1
 30 -150 l 1
 230 -150 l 2
 340 -150 410 -70 410 40 c 0
 410 150 340 230 230 230 c 2
 130 230 l 1
 130 280 l 1
 370 480 l 1
 30 480 l 1
 30 600 l 1
EndSplineSet
EndChar

StartChar: OE
Encoding: 453 338 380
Width: 1040
VWidth: 0
Flags: W
HStem: -20 120<305.796 488.861> 0 120<650 1000> 340 120<650 960> 680 120<650 990> 700 120<307.729 489.056>
VStem: 60 160<184.731 611.28> 490 160<120 340 460 680>
AnchorPoint: "diac_top" 570 850 basechar 0
AnchorPoint: "diac_bottom" 570 -50 basechar 0
LayerCount: 2
Fore
SplineSet
650 120 m 1x76
 1000 120 l 1
 1000 0 l 1
 548 0 l 1x76
 507 -13 460 -20 410 -20 c 0
 203 -20 60 98 60 280 c 2
 60 510 l 2
 60 686 203 820 410 820 c 0xae
 458 820 502 813 542 800 c 1
 990 800 l 1
 990 680 l 1
 650 680 l 1
 650 460 l 1
 960 460 l 1
 960 340 l 1
 650 340 l 1
 650 120 l 1x76
490 687 m 1
 466 695 440 700 410 700 c 0
 293 700 220 629 220 510 c 2
 220 280 l 2
 220 170 293 100 410 100 c 0xae
 440 100 466 104 490 113 c 1
 490 687 l 1
EndSplineSet
EndChar

StartChar: oe
Encoding: 454 339 381
Width: 1060
VWidth: 0
Flags: W
HStem: -20 120<246.327 414.012 647.617 810.702> 270 90<610 850> 500 120<251.692 409.127 649.772 811.669>
VStem: 50 160<138.233 452.663> 450 160<138.233 270 360 456.387> 850 160<138.479 200 360 457.719>
CounterMasks: 1 1c
AnchorPoint: "diac_top" 530 650 basechar 0
AnchorPoint: "diac_bottom" 530 -50 basechar 0
LayerCount: 2
Fore
SplineSet
730 500 m 0
 641 500 610 443 610 360 c 1
 850 360 l 1
 850 443 819 500 730 500 c 0
730 620 m 0
 920 620 1010 482 1010 360 c 2
 1010 270 l 1
 610 270 l 1
 610 230 l 1
 610 200 l 2
 610 149 652 100 730 100 c 0
 808 100 850 149 850 200 c 1
 1010 200 l 1
 1010 89 909 -20 730 -20 c 0
 645 -20 577 5 530 43 c 1
 482 2 414 -20 330 -20 c 0
 156 -20 50 77 50 230 c 2
 50 350 l 2
 50 508 156 620 330 620 c 0
 415 620 483 594 531 548 c 1
 577 591 643 620 730 620 c 0
330 500 m 0
 265 500 210 469 210 350 c 2
 210 230 l 2
 210 131 261 100 330 100 c 0
 399 100 450 131 450 230 c 2
 450 350 l 2
 450 469 395 500 330 500 c 0
EndSplineSet
EndChar

StartChar: uni25CC
Encoding: 459 9676 386
Width: 720
VWidth: 0
Flags: W
HStem: 0 100<315.957 404.043> 73 100<138.957 227.043 492.957 581.043> 250 100<65.957 154.043 565.957 654.043> 427 100<138.957 227.043 492.957 581.043> 500 100<315.957 404.043>
VStem: 60 100<255.957 344.043> 133 100<78.957 167.043 432.957 521.043> 310 100<5.95703 94.043 505.957 594.043> 487 100<78.957 167.043 432.957 521.043> 560 100<255.957 344.043>
LayerCount: 2
Fore
SplineSet
110 250 m 4x25
 82 250 60 272 60 300 c 4
 60 328 82 350 110 350 c 4
 138 350 160 328 160 300 c 4
 160 272 138 250 110 250 c 4x25
610 250 m 4
 582 250 560 272 560 300 c 4
 560 328 582 350 610 350 c 4
 638 350 660 328 660 300 c 4x2140
 660 272 638 250 610 250 c 4
410 550 m 4
 410 522 388 500 360 500 c 4
 332 500 310 522 310 550 c 4
 310 578 332 600 360 600 c 4x29
 388 600 410 578 410 550 c 4
233 477 m 4x33
 233 449 211 427 183 427 c 4
 155 427 133 449 133 477 c 4
 133 505 155 527 183 527 c 4
 211 527 233 505 233 477 c 4x33
487 477 m 4x3180
 487 505 509 527 537 527 c 4
 565 527 587 505 587 477 c 4
 587 449 565 427 537 427 c 4
 509 427 487 449 487 477 c 4x3180
410 50 m 4
 410 22 388 0 360 0 c 4
 332 0 310 22 310 50 c 4
 310 78 332 100 360 100 c 4xa1
 388 100 410 78 410 50 c 4
233 123 m 4x63
 233 95 211 73 183 73 c 4
 155 73 133 95 133 123 c 4
 133 151 155 173 183 173 c 4
 211 173 233 151 233 123 c 4x63
487 123 m 4x6180
 487 151 509 173 537 173 c 4
 565 173 587 151 587 123 c 4
 587 95 565 73 537 73 c 4
 509 73 487 95 487 123 c 4x6180
EndSplineSet
EndChar

StartChar: uni0351
Encoding: 722 849 649
Width: 0
VWidth: 0
Flags: W
HStem: 880 80<-367.608 -320> 1080 80<-367.608 -320>
VStem: -460 80<971.55 1068.45>
AnchorPoint: "diac_top" -400 850 mark 0
LayerCount: 2
Fore
SplineSet
-320 880 m 0
 -396 880 -460 943 -460 1020 c 0
 -460 1097 -396 1160 -320 1160 c 0
 -320 1080 l 0
 -352 1080 -380 1053 -380 1020 c 0
 -380 987 -352 960 -320 960 c 0
 -320 880 l 0
EndSplineSet
EndChar

StartChar: kgreenlandic
Encoding: 734 312 661
Width: 620
VWidth: 0
Flags: W
HStem: 0 21G<70 230 426.264 620> 580 20G<70 230 395.674 580>
VStem: 70 160<0 265 385 600>
AnchorPoint: "diac_bottom" 320 -50 basechar 0
AnchorPoint: "diac_top" 320 650 basechar 0
LayerCount: 2
Fore
SplineSet
410 600 m 1
 580 600 l 1
 385 335 l 1
 620 0 l 1
 440 0 l 1
 258 265 l 1
 230 265 l 1
 230 0 l 1
 70 0 l 1
 70 600 l 1
 230 600 l 1
 230 385 l 1
 256 385 l 1
 410 600 l 1
EndSplineSet
EndChar

StartChar: dcroat
Encoding: 735 273 662
Width: 720
VWidth: 0
Flags: W
HStem: -20 120<245.568 407.162> 0 21<460 620> 500 120<252.244 421.713> 710 90<260 720> 880 20<460 620>
VStem: 40 160<147.236 442.713> 460 160<0 43 127.414 476.49 570 900>
LayerCount: 2
Fore
SplineSet
260 800 m 5x3e
 720 800 l 5
 720 710 l 5
 260 710 l 5
 260 800 l 5x3e
EndSplineSet
Refer: 135 100 N 1 0 0 1 0 0 2
EndChar

StartChar: Hbar
Encoding: 736 294 663
Width: 800
VWidth: 0
Flags: W
HStem: 0 21<70 230 570 730> 340 120<230 570> 570 80<0 800> 780 20<70 230 570 730>
VStem: 70 160<0 340 460 800> 570 160<0 340 460 800>
LayerCount: 2
Fore
SplineSet
0 650 m 5
 800 650 l 5
 800 570 l 5
 0 570 l 5
 0 650 l 5
EndSplineSet
Refer: 110 72 N 1 0 0 1 0 0 2
EndChar

StartChar: hbar
Encoding: 737 295 664
Width: 710
VWidth: 0
Flags: W
HStem: 0 21<100 260 500 660> 500 120<339.773 473.195> 710 90<0 460> 880 20<100 260>
VStem: 100 160<0 463.445 539 900> 500 160<0 472.354>
LayerCount: 2
Fore
SplineSet
0 800 m 5
 460 800 l 5
 460 710 l 5
 0 710 l 5
 0 800 l 5
EndSplineSet
Refer: 143 104 S 1 0 0 1 30 0 2
EndChar

StartChar: Ohorn
Encoding: 869 416 796
Width: 850
VWidth: 0
Flags: W
HStem: -20 120<305.796 514.204> 700 120<307.729 514.191>
VStem: 60 160<184.731 611.28> 600 160<184.731 614.769> 690 130<749.938 860>
AnchorPoint: "diac_top" 410 850 basechar 0
AnchorPoint: "diac_bottom" 410 -50 basechar 0
AnchorPoint: "cedilla" 410 40 basechar 0
AnchorPoint: "ogonek" 410 40 basechar 0
AnchorPoint: "ring_above" 410 760 basechar 0
AnchorPoint: "hook_above" 410 850 basechar 0
LayerCount: 2
Fore
SplineSet
690 800 m 2xe8
 690 860 l 1
 820 860 l 1
 820 800 l 2xe8
 820 724 776 686 712 674 c 1
 743 627 760 571 760 510 c 2
 760 280 l 2xf0
 760 98 617 -20 410 -20 c 0
 203 -20 60 98 60 280 c 2
 60 510 l 2
 60 686 203 820 410 820 c 0
 505 820 586 792 646 745 c 1
 677 745 690 761 690 800 c 2xe8
600 510 m 2xf0
 600 629 527 700 410 700 c 0
 293 700 220 629 220 510 c 2
 220 280 l 2
 220 170 293 100 410 100 c 0
 527 100 600 170 600 280 c 2
 600 510 l 2xf0
EndSplineSet
EndChar

StartChar: ohorn
Encoding: 870 417 797
Width: 720
VWidth: 0
Flags: W
HStem: -20 120<253.552 426.448> 500 120<255.502 424.197>
VStem: 50 160<144.041 452.567> 470 160<144.041 452.567> 560 130<569.479 680>
AnchorPoint: "hook_above" 350 680 basechar 0
AnchorPoint: "diac_top" 340 650 basechar 0
AnchorPoint: "diac_bottom" 340 -50 basechar 0
AnchorPoint: "cedilla" 340 40 basechar 0
AnchorPoint: "ogonek" 340 40 basechar 0
LayerCount: 2
Fore
SplineSet
560 620 m 2xe8
 560 680 l 1
 690 680 l 1
 690 620 l 2xe8
 690 548 649 509 590 496 c 1
 616 455 630 405 630 350 c 2
 630 230 l 2xf0
 630 77 514 -20 340 -20 c 0
 166 -20 50 77 50 230 c 2
 50 350 l 2
 50 508 166 620 340 620 c 0
 413 620 476 600 524 566 c 1
 550 568 560 584 560 620 c 2xe8
340 500 m 0
 275 500 210 469 210 350 c 2
 210 230 l 2
 210 131 271 100 340 100 c 0
 409 100 470 131 470 230 c 2
 470 350 l 2xf0
 470 469 405 500 340 500 c 0
EndSplineSet
EndChar

StartChar: uhorn
Encoding: 871 432 798
Width: 740
VWidth: 0
Flags: W
HStem: -20 120<257.752 442.248> 580 20G<60 220 430 456>
VStem: 60 160<135.111 600> 480 160<135.111 493.638> 590 130<565.861 680>
AnchorPoint: "hook_above" 360 680 basechar 0
AnchorPoint: "diac_top" 350 650 basechar 0
AnchorPoint: "diac_bottom" 350 -50 basechar 0
AnchorPoint: "cedilla" 350 40 basechar 0
AnchorPoint: "ogonek" 350 40 basechar 0
AnchorPoint: "ring_above" 350 680 basechar 0
LayerCount: 2
Fore
SplineSet
590 620 m 2xe8
 590 680 l 1
 720 680 l 1
 720 620 l 2xe8
 720 546 678 508 618 495 c 1
 632 466 640 433 640 400 c 2
 640 200 l 2
 640 78 525 -20 350 -20 c 0
 175 -20 60 78 60 200 c 2
 60 600 l 1
 220 600 l 1
 220 200 l 2
 220 133 276 100 350 100 c 0
 424 100 480 133 480 200 c 2
 480 400 l 2xf0
 480 451 465 510 430 510 c 1
 430 620 l 1
 482 620 529 598 566 564 c 1
 583 572 590 591 590 620 c 2xe8
EndSplineSet
EndChar

StartChar: Uhorn
Encoding: 872 431 799
Width: 840
VWidth: 0
Flags: W
HStem: -20 120<296.384 503.616> 700 120<480 548.561> 780 20G<60 220>
VStem: 60 160<179.904 800> 580 160<179.904 670.499> 690 130<750.064 860>
AnchorPoint: "diac_top" 400 850 basechar 0
AnchorPoint: "diac_bottom" 400 -50 basechar 0
AnchorPoint: "cedilla" 400 40 basechar 0
AnchorPoint: "ogonek" 400 40 basechar 0
AnchorPoint: "ring_above" 400 760 basechar 0
AnchorPoint: "hook_above" 400 850 basechar 0
LayerCount: 2
Fore
SplineSet
690 800 m 2xb4
 690 860 l 1
 820 860 l 1
 820 800 l 2xb4
 820 729 781 690 723 676 c 1
 734 648 740 616 740 580 c 2
 740 280 l 2
 740 85 593 -20 400 -20 c 0
 207 -20 60 85 60 280 c 2
 60 800 l 1
 220 800 l 1xb8
 220 280 l 2
 220 141 317 100 400 100 c 0
 483 100 580 141 580 280 c 2
 580 580 l 2
 580 671 536 700 480 700 c 1
 480 820 l 1xd8
 555 820 626 797 674 749 c 1
 685 759 690 776 690 800 c 2xb4
EndSplineSet
EndChar

StartChar: eth
Encoding: 893 240 820
Width: 680
VWidth: 0
Flags: W
HStem: -20 120<253.552 426.448> 500 120<262.244 423.557> 880 20G<315.714 343>
VStem: 50 160<144.041 442.713> 470 160<144.041 457.539>
LayerCount: 2
Fore
SplineSet
280 830 m 1
 330 900 l 1
 356 885 383 869 410 851 c 1
 490 945 l 1
 550 895 l 1
 471 803 l 1
 560 723 630 598 630 350 c 2
 630 230 l 2
 630 77 514 -20 340 -20 c 0
 166 -20 50 77 50 230 c 2
 50 340 l 2
 50 528 164 620 320 620 c 0
 380 620 426 599 462 566 c 1
 454 637 438 687 407 728 c 1
 340 650 l 1
 280 700 l 1
 352 783 l 1
 331 799 308 814 280 830 c 1
470 425 m 1
 451 469 416 500 350 500 c 0
 248 500 210 435 210 340 c 2
 210 230 l 2
 210 131 271 100 340 100 c 0
 409 100 470 131 470 230 c 2
 470 350 l 2
 470 377 470 402 470 425 c 1
EndSplineSet
EndChar

StartChar: dong
Encoding: 900 8363 827
Width: 720
VWidth: 0
Flags: W
HStem: -170 90<100 560> -20 120<245.568 407.162> 0 21<460 620> 500 120<252.244 421.713> 710 90<260 720> 880 20<460 620>
VStem: 40 160<147.236 442.713> 460 160<0 43 127.414 476.49 570 900>
LayerCount: 2
Fore
SplineSet
100 -80 m 5x9f
 560 -80 l 5
 560 -170 l 5
 100 -170 l 5
 100 -80 l 5x9f
EndSplineSet
Refer: 662 273 N 1 0 0 1 0 0 2
EndChar

StartChar: uni0E24.liga
Encoding: 219 -1 828
Width: 980
VWidth: 0
Flags: W
HStem: -10 80<184.668 265.332> 390 20<296.974 320> 500 120<242.711 419.019 628.76 741.087>
VStem: 100 160<224.463 367.476> 100 80<74.9226 155.588> 270 80<74.6675 155.638> 450 160<-270 469.256> 760 160<-270 482.11>
LayerCount: 2
Fore
SplineSet
100 115 m 2xef
 100 280 l 2
 100 350 131 379 154 391 c 1
 50 420 l 1
 70 493 152 620 340 620 c 0
 410 620 474 602 521 569 c 1
 560 601 615 620 685 620 c 0
 842 620 920 525 920 400 c 2
 920 -270 l 1
 760 -270 l 1
 760 400 l 2
 760 466 737 500 685 500 c 0
 633 500 610 466 610 400 c 2
 610 -270 l 5
 450 -270 l 5
 450 400 l 2
 450 473 395 500 340 500 c 0
 277 500 227 476 203 436 c 1
 320 410 l 1
 320 390 l 1
 320 390 260 387 260 280 c 2
 260 235 l 1xf7
 312 220 350 172 350 115 c 0
 350 46 294 -10 225 -10 c 0
 156 -10 100 46 100 115 c 2xef
225 160 m 0
 200 160 180 140 180 115 c 0xef
 180 90 200 70 225 70 c 0
 250 70 270 90 270 115 c 0
 270 140 250 160 225 160 c 0
EndSplineSet
LCarets2: 1 0 
Ligature2: "'liga' Thai Ligatures" uni0E24 uni0E45
Ligature2: "'liga' Thai Ligatures" uni0E24 uni0E32
EndChar

StartChar: uni0E26.liga
Encoding: 220 -1 829
Width: 1000
VWidth: 0
Flags: W
HStem: -10 80<124.668 205.332> 390 20<326.974 350> 500 120<262.711 439.019 648.76 761.087>
VStem: 40 80<74.6675 155.638> 130 160<224.463 368.096> 210 80<74.9226 155.588> 470 160<-270 469.256> 780 160<-270 482.11>
LayerCount: 2
Fore
SplineSet
940 400 m 2xfb
 940 -270 l 1
 780 -270 l 1
 780 400 l 2
 780 466 757 500 705 500 c 0
 653 500 630 466 630 400 c 2
 630 -270 l 1
 470 -270 l 1
 470 400 l 2
 470 473 415 500 360 500 c 0
 297 500 247 476 223 437 c 1
 265 428 308 419 350 410 c 1
 350 390 l 1
 350 390 290 387 290 280 c 2xfb
 290 115 l 2xf7
 290 46 234 -10 165 -10 c 0
 96 -10 40 46 40 115 c 0
 40 172 78 220 130 235 c 1
 130 280 l 2
 130 348 159 378 182 391 c 1
 70 420 l 1
 90 493 172 620 360 620 c 0
 430 620 494 602 541 569 c 1
 580 601 635 620 705 620 c 0
 862 620 940 525 940 400 c 2xfb
165 160 m 0
 140 160 120 140 120 115 c 0
 120 90 140 70 165 70 c 0
 190 70 210 90 210 115 c 0xf7
 210 140 190 160 165 160 c 0
EndSplineSet
LCarets2: 1 0 
Ligature2: "'liga' Thai Ligatures" uni0E26 uni0E45
Ligature2: "'liga' Thai Ligatures" uni0E26 uni0E32
EndChar
